<?xml version="1.0" encoding="utf-8"?>
<!-- Generator: Adobe Illustrator 26.3.1, SVG Export Plug-In . SVG Version: 6.00 Build 0)  -->
<svg version="1.1" id="Capa_1" xmlns="http://www.w3.org/2000/svg" xmlns:xlink="http://www.w3.org/1999/xlink" x="0px" y="0px"
	 viewBox="0 0 300 300" style="enable-background:new 0 0 300 300;" xml:space="preserve">
<style type="text/css">
	.st0{fill:#FFFFFF;}
</style>
<g>
	<g>
		<g>
			<g>
				<g>
					<rect x="199.56" y="34.54" class="st0" width="16.39" height="43.2"/>
				</g>
			</g>
		</g>
		<g>
			<g>
				<g>
					<rect x="186.16" y="47.94" class="st0" width="43.26" height="16.39"/>
				</g>
			</g>
		</g>
	</g>
	<g>
		<g>
			<path class="st0" d="M85.29,110.47c-5.92-0.75-11.66-2.12-17.08-4.61c-12.59-5.8-21.57-15.02-26.62-27.99
				c-1.25-3.18-0.37-6.17,2.24-8.29c9.66-7.79,20.57-12.59,32.91-14.4c10.22-1.5,20.26-0.69,29.92,3.12
				c6.98,2.74,13.09,6.98,18.51,12.16c3.62,3.43,6.79,7.23,9.48,11.41c0.62,0.94,0.87,0.62,1.5,0c5.61-5.98,12.41-10.29,20.07-13.22
				c2.81-1.06,5.98-0.19,7.67,1.87c1.99,2.43,2.24,5.86,0.69,8.48c-0.87,1.37-2.12,2.24-3.62,2.87c-4.3,1.81-8.35,3.93-11.91,6.98
				c-5.61,4.8-8.73,10.91-10.04,18.02c-0.37,1.87-0.56,3.8-0.81,5.74c-0.06,0.37-0.19,0.81,0.12,1.06c0.37,0.31,0.69-0.06,1-0.19
				c8.42-4.18,17.39-5.36,26.68-4.55c8.91,0.75,17.45,2.87,25.5,6.86c14.96,7.36,23.75,19.51,27.37,35.59
				c1.75,7.67,2.06,15.46,1.62,23.25c-0.75,12.59-3.55,24.75-7.42,36.72c-4.55,14.15-10.72,27.55-19.76,39.46
				c-6.79,8.91-14.77,16.52-25.31,20.82c-11.72,4.8-23.38,4.43-34.91-0.62c-1.56-0.69-2.74-0.62-4.24,0.06
				c-8.17,3.62-16.58,4.74-25.43,3.24c-9.79-1.68-18.02-6.36-25.18-13.03c-9.29-8.54-16.02-18.95-21.51-30.23
				c-6.61-13.71-11.03-28.18-13.71-43.14c-1.25-6.92-1.93-13.9-1.75-20.95c0.25-9.97,1.87-19.7,6.42-28.8
				c5.49-11.03,14.15-18.7,25.37-23.63C76.94,112.83,81.05,111.59,85.29,110.47z M100.38,122.68c-6.48,0.19-13.59,1.56-20.45,4.24
				s-12.59,6.73-16.89,12.78c-5.36,7.54-7.23,16.15-7.67,25.18c-0.31,7.23,0.37,14.4,1.62,21.51c3.05,17.14,8.66,33.35,17.7,48.37
				c4.61,7.67,10.04,14.59,17.33,19.89c5.17,3.74,10.91,6.05,17.33,6.23c6.36,0.19,12.22-1.62,17.83-4.43
				c2.43-1.18,4.74-1.25,7.11-0.06c1.37,0.69,2.74,1.31,4.11,1.87c10.1,3.99,19.89,3.49,29.24-2.43c5.86-3.68,10.47-8.6,14.52-14.09
				c5.74-7.73,10.16-16.27,13.78-25.18c4.92-12.09,8.23-24.62,9.66-37.59c0.94-8.1,1.06-16.21-0.69-24.25
				c-2.06-9.48-6.36-17.52-14.46-23.07c-10.1-6.86-21.44-9.48-33.48-8.73c-8.66,0.56-15.83,3.99-20.7,11.72
				c-2.62,4.18-9.16,3.74-11.59-0.56c-1.87-3.3-4.61-5.55-7.73-7.42C112.22,123.74,106.86,122.68,100.38,122.68z M85.73,68.64
				c-1.81,0-3.62,0.06-5.36,0.25c-8.04,0.94-15.52,3.49-22.38,7.92c-0.81,0.5-0.94,0.94-0.44,1.75c2.24,3.86,5.11,7.29,8.73,9.97
				c8.66,6.48,18.45,8.66,29.11,7.85c8.85-0.69,17.02-3.62,24.5-8.35c0.87-0.56,1.12-0.94,0.37-1.87
				C111.6,74.87,100.25,68.57,85.73,68.64z M125.75,101.11c-6.17,3.43-12.28,5.98-18.76,7.73c0.25,0.19,0.5,0.31,0.75,0.37
				c5.3,0.56,10.35,2.06,15.09,4.49c1.06,0.56,1.06-0.19,1.12-0.81C124.25,109.03,124.81,105.29,125.75,101.11z"/>
		</g>
	</g>
	<g>
		<g>
			<g>
				<path class="st0" d="M258.97,25v38.15h-10.54v-25c-1.68,1.31-3.37,2.37-4.92,3.18c-1.56,0.81-3.62,1.56-5.98,2.31V35.1
					c3.55-1.12,6.3-2.49,8.29-4.11c1.99-1.62,3.49-3.62,4.61-5.92h8.54V25z"/>
			</g>
		</g>
	</g>
</g>
</svg>
