<?xml version="1.0" encoding="utf-8"?>
<!-- Generator: Adobe Illustrator 26.3.1, SVG Export Plug-In . SVG Version: 6.00 Build 0)  -->
<svg version="1.1" id="Capa_1" xmlns="http://www.w3.org/2000/svg" xmlns:xlink="http://www.w3.org/1999/xlink" x="0px" y="0px"
	 viewBox="0 0 300 300" width="300" heigh="300" style="enable-background:new 0 0 300 300;" xml:space="preserve">
<style type="text/css">
	.st0{fill:#FFFFFF;}
	.st1{fill-rule:evenodd;clip-rule:evenodd;fill:#FFFFFF;}
</style>
<g>
	<g>
		<g>
			<path class="st0" d="M183.66,275H99.04C73.67,275,53,254.33,53,228.95V71.05C53,45.67,73.67,25,99.04,25h84.62
				c25.37,0,46.05,20.67,46.05,46.05v157.97C229.71,254.39,209.03,275,183.66,275z M99.04,37.66c-18.38,0-33.39,14.95-33.39,33.39
				v157.97c0,18.38,14.95,33.39,33.39,33.39h84.62c18.38,0,33.39-14.95,33.39-33.39V71.05c0-18.38-14.95-33.39-33.39-33.39
				L99.04,37.66L99.04,37.66z"/>
		</g>
	</g>
	<g>
		<g>
			<path class="st0" d="M232.3,104.13h-12.84V64.96h12.84c8.14,0,14.71,6.63,14.71,14.77v9.7C247,97.5,240.44,104.13,232.3,104.13z
				 M227.3,96.3h5c3.8,0,6.87-3.07,6.87-6.93v-9.7c0-3.8-3.07-6.93-6.87-6.93h-5V96.3z"/>
		</g>
	</g>
	<g>
		<g>
			<path class="st0" d="M232.3,222.81h-12.84v-39.18h12.84c8.14,0,14.71,6.63,14.71,14.71v9.7
				C247,216.24,240.44,222.81,232.3,222.81z M227.3,214.97h5c3.8,0,6.87-3.07,6.87-6.93v-9.64c0-3.8-3.07-6.87-6.87-6.87h-5V214.97z
				"/>
		</g>
	</g>
	<g>
		<g>
			<path class="st0" d="M232.3,168.32h-12.84v-53.58h12.84c8.14,0,14.71,6.63,14.71,14.71v24.11
				C247,161.75,240.44,168.32,232.3,168.32z M227.3,160.49h5c3.8,0,6.87-3.07,6.87-6.93v-24.11c0-3.8-3.07-6.87-6.87-6.87h-5V160.49
				z"/>
		</g>
	</g>
	<g>
		<g>
			<path class="st1" d="M177.33,162.96c-3.68-2.17-8.44-4.64-12.78-2.89c-3.31,1.33-5.42,6.57-7.59,9.22
				c-1.08,1.39-2.41,1.57-4.1,0.9c-12.48-4.94-22-13.26-28.93-24.77c-1.15-1.81-0.96-3.19,0.42-4.82c2.05-2.47,4.7-5.24,5.24-8.5
				c0.54-3.31-0.96-7.17-2.35-10.07c-1.75-3.74-3.68-9.1-7.47-11.21c-3.44-1.93-8.02-0.84-11.09,1.63
				c-5.3,4.34-7.9,11.09-7.77,17.84c0,1.93,0.24,3.8,0.72,5.67c1.08,4.46,3.13,8.56,5.42,12.54c1.75,2.95,3.62,5.85,5.67,8.62
				c6.69,9.04,14.95,16.94,24.59,22.84c4.82,2.95,9.94,5.48,15.31,7.29c6.03,1.99,11.33,4.04,17.84,2.83
				c6.81-1.27,13.5-5.48,16.15-12.05c0.78-1.93,1.21-4.1,0.72-6.15C186.49,167.48,180.77,165.01,177.33,162.96z"/>
		</g>
	</g>
</g>
</svg>
