<?xml version="1.0" encoding="utf-8"?>
<!-- Generator: Adobe Illustrator 26.3.1, SVG Export Plug-In . SVG Version: 6.00 Build 0)  -->
<svg version="1.1" id="Capa_1" xmlns="http://www.w3.org/2000/svg" xmlns:xlink="http://www.w3.org/1999/xlink" x="0px" y="0px"
	 viewBox="0 0 300 300" width="300" heigh="300" style="enable-background:new 0 0 300 300;" xml:space="preserve">
<style type="text/css">
	.st0{fill:#FFFFFF;}
</style>
<g>
	<g>
		<g>
			<path class="st0" d="M242.71,228.83H57.34c-17.86,0-32.34-14.54-32.34-32.34v-92.97c0-17.86,14.54-32.34,32.34-32.34h185.31
				c17.86,0,32.34,14.54,32.34,32.34v92.97c0,8.64-3.38,16.77-9.45,22.9C259.49,225.45,251.36,228.83,242.71,228.83z M57.4,79.76
				c-13.11,0-23.76,10.65-23.76,23.76v92.97c0,13.11,10.65,23.76,23.76,23.76h185.37c6.35,0,12.31-2.46,16.83-6.98
				c4.47-4.47,6.98-10.48,6.98-16.83v-92.91c0-13.11-10.65-23.76-23.76-23.76H57.4z"/>
		</g>
	</g>
	<g>
		<g>
			<g>
				<g>
					<path class="st0" d="M103.37,187.84H64.84c-3.09,0-5.67-2.52-5.67-5.67v-11.79c0-13.74,11.16-24.9,24.9-24.9
						s24.9,11.16,24.9,24.9v11.79C109.04,185.32,106.52,187.84,103.37,187.84z M84.14,150.06c-11.22,0-20.32,9.1-20.32,20.32v11.79
						c0,0.57,0.46,1.09,1.09,1.09h38.53c0.57,0,1.09-0.52,1.09-1.09v-11.79C104.46,159.16,95.36,150.06,84.14,150.06z"/>
				</g>
				<g>
					<path class="st0" d="M103.37,188.41H64.84c-3.43,0-6.24-2.81-6.24-6.24v-11.79c0-14.03,11.45-25.48,25.48-25.48
						s25.48,11.45,25.48,25.48v11.79C109.61,185.61,106.81,188.41,103.37,188.41z M84.14,146.05c-13.4,0-24.33,10.93-24.33,24.33
						v11.79c0,2.81,2.29,5.1,5.09,5.1h38.53c2.81,0,5.09-2.29,5.09-5.1v-11.79C108.47,156.98,97.53,146.05,84.14,146.05z
						 M103.37,183.83H64.84c-0.92,0-1.66-0.74-1.66-1.66v-11.79c0-11.51,9.39-20.9,20.9-20.9s20.9,9.39,20.9,20.9v11.79
						C105.03,183.09,104.29,183.83,103.37,183.83z M84.14,150.63c-10.88,0-19.75,8.87-19.75,19.75v11.79c0,0.29,0.23,0.52,0.52,0.52
						h38.53c0.29,0,0.52-0.23,0.52-0.52v-11.79C103.89,159.5,95.01,150.63,84.14,150.63z"/>
				</g>
			</g>
		</g>
		<g>
			<g>
				<g>
					<path class="st0" d="M84.14,143.36c-8.7,0-15.8-7.84-15.8-17.52s7.1-17.52,15.8-17.52s15.8,7.84,15.8,17.52
						S92.84,143.36,84.14,143.36z M84.14,112.85c-6.24,0-11.28,5.78-11.28,12.94c0,7.16,5.04,12.94,11.28,12.94
						s11.28-5.84,11.28-12.94C95.41,118.69,90.32,112.85,84.14,112.85z"/>
				</g>
				<g>
					<path class="st0" d="M84.14,143.93c-9.05,0-16.37-8.13-16.37-18.09s7.38-18.09,16.37-18.09c9.05,0,16.43,8.13,16.43,18.09
						C100.51,135.8,93.18,143.93,84.14,143.93z M84.14,108.84c-8.42,0-15.23,7.61-15.23,16.95s6.87,16.95,15.23,16.95
						c8.42,0,15.29-7.61,15.29-16.95S92.55,108.84,84.14,108.84z M84.14,139.35c-6.53,0-11.85-6.07-11.85-13.51
						c0-7.44,5.32-13.51,11.85-13.51s11.85,6.07,11.85,13.51C95.99,133.28,90.66,139.35,84.14,139.35z M84.14,113.42
						c-5.9,0-10.71,5.55-10.71,12.37s4.81,12.37,10.71,12.37s10.71-5.55,10.71-12.37C94.78,118.97,90.03,113.42,84.14,113.42z"/>
				</g>
			</g>
		</g>
	</g>
	<g>
		<g>
			<g>
				<path class="st0" d="M178.71,145.48c-0.69,0-1.43-0.23-2.06-0.69c-1.26-0.92-1.72-2.4-1.26-3.89l1.43-4.47
					c0.06-0.11,0-0.29-0.11-0.34l-3.78-2.75c-1.26-0.92-1.72-2.4-1.26-3.89c0.46-1.43,1.77-2.4,3.32-2.4h4.69
					c0.11,0,0.29-0.11,0.34-0.23l1.43-4.47c0.46-1.43,1.77-2.4,3.32-2.4s2.81,0.92,3.32,2.4l1.43,4.47
					c0.06,0.11,0.17,0.23,0.34,0.23h4.69c1.55,0,2.81,0.92,3.32,2.4c0.46,1.43,0,2.98-1.26,3.89l-3.78,2.75
					c-0.11,0.06-0.17,0.23-0.11,0.34l1.43,4.47c0.46,1.43,0,2.98-1.26,3.89c-1.26,0.92-2.86,0.92-4.06,0l-3.78-2.75
					c-0.11-0.06-0.29-0.06-0.4,0l-3.78,2.75C180.08,145.25,179.4,145.48,178.71,145.48z M174.99,130.19c-0.06,0-0.23,0-0.34,0.23
					c-0.06,0.23,0.06,0.34,0.11,0.34l3.78,2.75c1.2,0.92,1.72,2.46,1.26,3.89l-1.43,4.47c0,0.06-0.06,0.23,0.11,0.34
					c0.17,0.11,0.34,0.06,0.4,0l3.78-2.75c1.2-0.86,2.86-0.86,4.06,0l3.78,2.75c0.06,0.06,0.17,0.11,0.4,0
					c0.17-0.11,0.11-0.29,0.11-0.34l-1.43-4.47c-0.46-1.43,0.06-2.98,1.26-3.89l3.78-2.75c0.06-0.06,0.17-0.11,0.11-0.34
					c-0.06-0.23-0.23-0.23-0.34-0.23h-4.69c-1.49,0-2.81-0.97-3.32-2.4l-1.43-4.47c0-0.06-0.06-0.23-0.34-0.23
					c-0.23,0-0.29,0.17-0.34,0.23l-1.43,4.47c-0.46,1.43-1.77,2.4-3.32,2.4H174.99L174.99,130.19z"/>
			</g>
			<g>
				<path class="st0" d="M178.71,146.05c-0.86,0-1.66-0.29-2.35-0.8c-1.43-1.03-2-2.81-1.49-4.52l1.37-4.29l-3.66-2.63
					c-1.43-1.03-2-2.81-1.49-4.52c0.57-1.72,2.06-2.81,3.84-2.81h4.52l1.37-4.29c0.57-1.72,2.06-2.81,3.84-2.81
					c1.77,0,3.32,1.09,3.84,2.81l1.37,4.29h4.52c1.77,0,3.32,1.09,3.84,2.81c0.57,1.66,0,3.43-1.49,4.52l-3.66,2.63l1.37,4.29
					c0.57,1.72,0,3.49-1.49,4.52c-1.43,1.03-3.32,1.03-4.75,0l-3.66-2.63l-3.66,2.63C180.37,145.76,179.51,146.05,178.71,146.05z
					 M174.99,127.67c-1.26,0-2.35,0.8-2.75,2c-0.4,1.2,0,2.46,1.03,3.26l3.78,2.75c0.34,0.23,0.46,0.63,0.34,1.03l-1.43,4.47
					c-0.4,1.2,0,2.46,1.03,3.26c1.03,0.74,2.35,0.74,3.43,0l3.78-2.75c0.34-0.23,0.74-0.23,1.09,0l3.78,2.75
					c1.03,0.74,2.35,0.74,3.38,0c1.03-0.74,1.43-2,1.03-3.26l-1.43-4.47c-0.11-0.4,0-0.8,0.34-1.03l3.78-2.75
					c1.03-0.74,1.43-2,1.03-3.26c-0.4-1.2-1.49-2-2.75-2h-4.69c-0.4,0-0.74-0.23-0.86-0.63l-1.43-4.47c-0.4-1.2-1.49-2-2.75-2
					s-2.35,0.8-2.75,2l-1.43,4.47c-0.11,0.4-0.46,0.63-0.86,0.63L174.99,127.67L174.99,127.67z M193.08,136.55L193.08,136.55
					L193.08,136.55z M176.31,136.32L176.31,136.32L176.31,136.32z M193.14,136.32L193.14,136.32L193.14,136.32z M179.45,126.64
					L179.45,126.64L179.45,126.64z M190.73,142.9c-0.17,0-0.4-0.06-0.52-0.17l-3.78-2.75c-1.03-0.74-2.4-0.74-3.38,0l-3.78,2.75
					c-0.34,0.23-0.74,0.23-1.09,0c-0.34-0.23-0.46-0.63-0.34-0.97l1.43-4.47c0.4-1.2-0.06-2.52-1.03-3.26l-3.78-2.75
					c-0.34-0.23-0.46-0.63-0.34-1.03c0.06-0.17,0.17-0.34,0.29-0.46v-0.17h5.27c1.26,0,2.35-0.8,2.75-2l1.43-4.47
					c0.23-0.57,0.69-0.63,0.86-0.63c0.4,0,0.74,0.23,0.86,0.63l1.43,4.47c0.4,1.2,1.49,2,2.75,2h4.69c0.4,0,0.74,0.23,0.86,0.63
					c0.11,0.4,0,0.8-0.34,1.03l-3.78,2.75c-1.03,0.74-1.43,2.06-1.03,3.26l1.43,4.47c0.11,0.4,0,0.8-0.34,1.03
					C191.13,142.84,190.9,142.9,190.73,142.9z M190.9,141.81L190.9,141.81L190.9,141.81z M184.72,138.26c0.86,0,1.66,0.29,2.35,0.8
					l3.21,2.35l-1.2-3.78c-0.52-1.66,0.06-3.49,1.49-4.52l3.21-2.35h-3.95c-1.77,0-3.32-1.14-3.84-2.81l-1.2-3.78l-1.2,3.78
					c-0.57,1.66-2.12,2.81-3.84,2.81h-3.95l3.21,2.35c1.43,1.03,2,2.86,1.49,4.52l-1.2,3.78l3.21-2.35
					C183.06,138.55,183.86,138.26,184.72,138.26z M174.99,130.19v0.57l0,0V130.19z M194.34,130.36L194.34,130.36L194.34,130.36z
					 M184.49,123.55L184.49,123.55L184.49,123.55z"/>
			</g>
		</g>
	</g>
	<g>
		<g>
			<g>
				<path class="st0" d="M211.4,145.48c-0.69,0-1.43-0.23-2.06-0.69c-1.26-0.92-1.72-2.4-1.26-3.89l1.43-4.47
					c0.06-0.11,0-0.29-0.11-0.34l-3.78-2.75c-1.26-0.92-1.72-2.4-1.26-3.89c0.46-1.43,1.77-2.4,3.32-2.4h4.69
					c0.11,0,0.29-0.11,0.34-0.23l1.43-4.47c0.46-1.43,1.77-2.4,3.32-2.4s2.81,0.92,3.32,2.4l1.43,4.47
					c0.06,0.11,0.17,0.23,0.34,0.23h4.69c1.55,0,2.81,0.92,3.32,2.4c0.46,1.43,0,2.98-1.26,3.89l-3.78,2.75
					c-0.11,0.06-0.17,0.23-0.11,0.34l1.43,4.47c0.46,1.43,0,2.98-1.26,3.89c-1.26,0.92-2.86,0.92-4.06,0l-3.78-2.75
					c-0.11-0.06-0.29-0.06-0.4,0l-3.78,2.75C212.83,145.25,212.14,145.48,211.4,145.48z M217.41,138.84c0.69,0,1.43,0.23,2.06,0.69
					l3.78,2.75c0.06,0.06,0.17,0.11,0.4,0c0.17-0.11,0.11-0.29,0.11-0.34l-1.43-4.47c-0.46-1.43,0.06-2.98,1.26-3.89l3.78-2.75
					c0.06-0.06,0.17-0.11,0.11-0.34c-0.06-0.23-0.23-0.23-0.34-0.23h-4.69c-1.49,0-2.81-0.97-3.32-2.4l-1.43-4.47
					c0-0.06-0.06-0.23-0.34-0.23c-0.23,0-0.29,0.17-0.34,0.23l-1.43,4.47c-0.46,1.43-1.77,2.4-3.32,2.4h-4.69
					c-0.06,0-0.23,0-0.34,0.23c-0.06,0.23,0.06,0.34,0.11,0.34l3.78,2.75c1.2,0.92,1.72,2.46,1.26,3.89l-1.43,4.47
					c0,0.06-0.06,0.23,0.11,0.34s0.34,0.06,0.4,0l3.78-2.75C215.98,139.07,216.72,138.84,217.41,138.84z"/>
			</g>
			<g>
				<path class="st0" d="M211.4,146.05c-0.86,0-1.66-0.29-2.35-0.8c-1.43-1.03-2-2.81-1.49-4.52l1.37-4.29l-3.66-2.63
					c-1.43-1.03-2-2.81-1.49-4.52c0.57-1.72,2.06-2.81,3.84-2.81h4.52l1.37-4.29c0.57-1.72,2.06-2.81,3.84-2.81
					c1.77,0,3.32,1.09,3.84,2.81l1.37,4.29h4.52c1.77,0,3.32,1.09,3.84,2.81c0.57,1.66,0,3.43-1.49,4.52l-3.66,2.63l1.37,4.29
					c0.57,1.72,0,3.49-1.49,4.52c-1.43,1.03-3.32,1.03-4.75,0l-3.66-2.63l-3.66,2.63C213.06,145.76,212.26,146.05,211.4,146.05z
					 M207.68,127.62c-1.26,0-2.35,0.8-2.75,2c-0.4,1.2,0,2.46,1.03,3.26l3.78,2.75c0.34,0.23,0.46,0.63,0.34,1.03l-1.43,4.47
					c-0.4,1.2,0,2.46,1.03,3.26c1.03,0.74,2.35,0.74,3.43,0l3.78-2.75c0.34-0.23,0.74-0.23,1.09,0l3.78,2.75
					c1.03,0.74,2.35,0.74,3.38,0c1.03-0.74,1.43-2,1.03-3.26l-1.43-4.47c-0.11-0.4,0-0.8,0.34-1.03l3.78-2.75
					c1.03-0.74,1.43-2,1.03-3.26c-0.4-1.2-1.49-2-2.75-2h-4.69c-0.4,0-0.74-0.23-0.86-0.63l-1.43-4.47c-0.4-1.2-1.49-2-2.75-2
					s-2.35,0.8-2.75,2l-1.43,4.47c-0.11,0.4-0.46,0.63-0.86,0.63H207.68z M225.77,136.55L225.77,136.55L225.77,136.55z
					 M208.99,136.32L208.99,136.32L208.99,136.32z M225.88,136.32L225.88,136.32L225.88,136.32z M223.48,142.9
					c-0.17,0-0.4-0.06-0.52-0.17l-3.78-2.75c-0.97-0.74-2.35-0.74-3.43,0l-3.78,2.75c-0.34,0.23-0.74,0.23-1.09,0
					c-0.34-0.23-0.46-0.63-0.34-0.97l1.43-4.47c0.4-1.2-0.06-2.52-1.03-3.26l-3.78-2.75c-0.34-0.23-0.46-0.63-0.34-1.03
					c0.11-0.4,0.46-0.63,0.86-0.63h4.69c1.26,0,2.35-0.8,2.75-2l1.43-4.47c0.23-0.57,0.69-0.63,0.86-0.63c0.4,0,0.74,0.23,0.86,0.63
					l1.43,4.47c0.4,1.2,1.49,2,2.75,2h4.69c0.4,0,0.74,0.23,0.86,0.63c0.11,0.4,0,0.8-0.34,1.03l-3.78,2.75
					c-1.03,0.74-1.43,2.06-1.03,3.26l1.43,4.47c0.11,0.4,0,0.74-0.34,1.03C223.82,142.84,223.65,142.9,223.48,142.9z M217.41,138.26
					c0.86,0,1.66,0.29,2.35,0.8l3.21,2.35l-1.2-3.78c-0.52-1.66,0.06-3.49,1.49-4.52l3.21-2.35h-3.95c-1.77,0-3.32-1.14-3.84-2.81
					l-1.2-3.78l-1.2,3.78c-0.52,1.66-2.06,2.81-3.84,2.81h-3.95l3.21,2.35c1.43,1.03,2,2.86,1.49,4.52l-1.2,3.78l3.21-2.35
					C215.75,138.55,216.61,138.26,217.41,138.26z M227.03,130.36L227.03,130.36L227.03,130.36z M217.18,123.55L217.18,123.55
					L217.18,123.55z"/>
			</g>
		</g>
	</g>
	<g>
		<g>
			<g>
				<path class="st0" d="M158.04,145.48c-0.69,0-1.43-0.23-2.06-0.69l-3.78-2.75c-0.11-0.06-0.29-0.06-0.4,0l-3.78,2.75
					c-1.26,0.92-2.86,0.92-4.06,0c-1.26-0.92-1.72-2.4-1.26-3.89l1.43-4.47c0.06-0.11,0-0.29-0.11-0.34l-3.78-2.75
					c-1.26-0.92-1.72-2.4-1.26-3.89c0.46-1.43,1.77-2.4,3.32-2.4h4.69c0.11,0,0.29-0.11,0.34-0.23l1.43-4.47
					c0.46-1.43,1.77-2.4,3.32-2.4l0,0c1.55,0,2.81,0.92,3.32,2.4l1.43,4.47c0.06,0.11,0.17,0.23,0.34,0.23h4.69
					c1.55,0,2.81,0.92,3.32,2.4c0.46,1.43,0,2.98-1.26,3.89l-3.78,2.75c-0.11,0.06-0.17,0.23-0.11,0.34l1.43,4.47
					c0.46,1.43,0,2.98-1.26,3.89C159.47,145.25,158.73,145.48,158.04,145.48z M152.03,138.84c0.69,0,1.43,0.23,2.06,0.69l3.78,2.75
					c0.06,0.06,0.17,0.11,0.4,0c0.17-0.11,0.11-0.29,0.11-0.34l-1.43-4.47c-0.46-1.43,0.06-2.98,1.26-3.89l3.78-2.75
					c0.06-0.06,0.17-0.11,0.11-0.34c-0.06-0.23-0.23-0.23-0.34-0.23h-4.69c-1.49,0-2.81-0.97-3.32-2.4l-1.43-4.47
					c0-0.06-0.06-0.23-0.34-0.23l0,0c-0.23,0-0.29,0.17-0.34,0.23l-1.43,4.47c-0.46,1.43-1.77,2.4-3.32,2.4h-4.69
					c-0.06,0-0.23,0-0.34,0.23c-0.06,0.23,0.06,0.34,0.11,0.34l3.78,2.75c1.2,0.92,1.72,2.46,1.26,3.89l-1.43,4.47
					c0,0.06-0.06,0.23,0.11,0.34c0.23,0.11,0.34,0.06,0.4,0l3.78-2.75C150.6,139.07,151.29,138.84,152.03,138.84z"/>
			</g>
			<g>
				<path class="st0" d="M145.96,146.05c-0.8,0-1.66-0.29-2.35-0.8c-1.43-1.03-2-2.81-1.49-4.52l1.37-4.29l-3.66-2.63
					c-1.43-1.03-2-2.81-1.49-4.52c0.57-1.72,2.06-2.81,3.84-2.81h4.52l1.37-4.29c0.57-1.72,2.06-2.81,3.84-2.81
					c1.77,0,3.32,1.09,3.84,2.81l1.37,4.29h4.52c1.77,0,3.32,1.09,3.84,2.81c0.57,1.66,0,3.43-1.49,4.52l-3.66,2.63l1.37,4.29
					c0.57,1.72,0,3.49-1.49,4.52c-1.43,1.03-3.38,1.03-4.75,0l-3.66-2.63l-3.66,2.63C147.62,145.82,146.82,146.05,145.96,146.05z
					 M152.03,141.41c0.17,0,0.4,0.06,0.52,0.17l3.78,2.75c1.03,0.74,2.35,0.74,3.43,0c1.03-0.74,1.43-2,1.03-3.21l-1.43-4.47
					c-0.11-0.4,0-0.8,0.34-1.03l3.78-2.75c1.03-0.74,1.43-2,1.03-3.26c-0.4-1.2-1.49-2-2.75-2h-4.69c-0.4,0-0.74-0.23-0.86-0.63
					l-1.43-4.47c-0.4-1.2-1.49-2-2.75-2c-1.26,0-2.35,0.8-2.75,2l-1.43,4.47c-0.11,0.4-0.46,0.63-0.86,0.63h-4.69
					c-1.26,0-2.35,0.8-2.75,2c-0.4,1.2,0,2.46,1.03,3.26l3.78,2.75c0.34,0.23,0.46,0.63,0.34,1.03l-1.43,4.47
					c-0.4,1.2,0,2.46,1.03,3.26c1.03,0.74,2.35,0.74,3.38,0l3.78-2.75C151.63,141.47,151.8,141.41,152.03,141.41z M151.86,142.5
					L151.86,142.5L151.86,142.5z M160.33,136.55L160.33,136.55L160.33,136.55z M143.56,136.32L143.56,136.32L143.56,136.32z
					 M160.45,136.32L160.45,136.32L160.45,136.32z M158.04,142.9c-0.17,0-0.4-0.06-0.52-0.17l-3.78-2.75c-0.97-0.74-2.4-0.74-3.43,0
					l-3.78,2.75c-0.52,0.34-0.92,0.11-1.09,0c-0.34-0.23-0.46-0.63-0.34-0.97l1.43-4.47c0.4-1.2-0.06-2.52-1.03-3.26l-3.78-2.75
					c-0.34-0.23-0.46-0.63-0.34-1.03c0.11-0.4,0.46-0.63,0.86-0.63h4.69c1.26,0,2.35-0.8,2.75-2l1.43-4.47
					c0.23-0.57,0.69-0.63,0.86-0.63c0.4,0,0.74,0.23,0.86,0.63l1.43,4.47c0.4,1.2,1.49,2,2.75,2h4.69c0.4,0,0.74,0.23,0.86,0.63
					c0.11,0.4,0,0.74-0.34,1.03l-3.78,2.75c-1.03,0.74-1.43,2.06-1.03,3.26l1.43,4.47c0.11,0.4,0,0.74-0.34,1.03
					C158.39,142.84,158.22,142.9,158.04,142.9z M152.03,138.26c0.86,0,1.66,0.29,2.35,0.8l3.21,2.35l-1.2-3.78
					c-0.52-1.66,0.06-3.49,1.49-4.52l3.21-2.35h-3.95c-1.77,0-3.32-1.14-3.84-2.81l-1.2-3.78l-1.2,3.78
					c-0.52,1.66-2.06,2.81-3.84,2.81h-3.95l3.21,2.35c1.43,1.03,2,2.86,1.49,4.52l-1.2,3.78l3.21-2.35
					C150.31,138.55,151.17,138.26,152.03,138.26z M151.8,123.55L151.8,123.55L151.8,123.55z"/>
			</g>
		</g>
	</g>
	<g>
		<g>
			<path class="st0" d="M231.03,186.12h-88.56c-4.87,0-8.87-3.95-8.87-8.87v-11.56c0-4.87,3.95-8.87,8.87-8.87h88.56
				c4.87,0,8.87,3.95,8.87,8.87v11.56C239.91,182.17,235.9,186.12,231.03,186.12z M142.47,162.54c-1.72,0-3.15,1.43-3.15,3.15v11.56
				c0,1.72,1.43,3.15,3.15,3.15h88.56c1.72,0,3.15-1.43,3.15-3.15v-11.56c0-1.72-1.43-3.15-3.15-3.15H142.47z"/>
		</g>
	</g>
</g>
</svg>
