<?xml version="1.0" encoding="utf-8"?>
<!-- Generator: Adobe Illustrator 26.3.1, SVG Export Plug-In . SVG Version: 6.00 Build 0)  -->
<svg version="1.1" id="Capa_1" xmlns="http://www.w3.org/2000/svg" xmlns:xlink="http://www.w3.org/1999/xlink" x="0px" y="0px"
	 viewBox="0 0 300 300" width="300" heigh="300" style="enable-background:new 0 0 300 300;" xml:space="preserve">
<style type="text/css">
	.st0{fill:#FFFFFF;}
</style>
<g>
	<g>
		<g>
			<path class="st0" d="M216.16,123.41c-1.88-0.87-3.76-1.07-5.51-1.95c-6.92-3.36-10.81-9.87-10.61-16.99
				c0.2-8.13,5.1-14.51,12.36-17.06c6.98-2.42,14.91-0.34,19.81,5.24c8.66,10.01,4.63,25.25-7.92,29.55
				c-0.4,0.13-0.81,0.27-1.21,0.4c-0.34,0.13-0.67,0.34-0.6,0.74c0.07,0.34,0.4,0.4,0.74,0.4c1.41,0,1.48,0.94,1.48,1.95
				c0,0.4,0,0.81,0,1.28c0,32.37,0,64.74,0,97.11c0,8.46-1.48,16.59-5.57,24.04c-10.21,18.6-26.06,28.21-47.21,26.73
				c-19.54-1.34-33.38-12.02-41.5-29.89c-2.89-6.31-4.1-13.1-4.1-20.08c0-18.54-0.07-37.07,0.07-55.67c0-1.88-0.6-2.55-2.42-2.89
				c-7.25-1.28-13.3-4.9-18.67-9.81c-6.72-6.11-11.15-13.83-15.45-21.62c-1.34-2.42-2.69-4.84-3.96-7.25
				c-0.74-1.28-1.61-2.55-0.81-4.16c0.27-0.6-0.27-1.14-0.6-1.61c-5.51-10.14-10.54-20.55-14.24-31.5
				c-3.9-11.55-6.78-23.3-7.05-35.59c-0.07-3.9,0.47-7.72,1.68-11.48c2.75-8.6,8.66-13.36,17.53-14.64
				c5.1-0.81,10.28-0.27,15.38-0.27c1.75,0,3.36-0.2,4.97-1.14c2.22-1.34,4.7-2.15,7.32-2.15c4.1-0.07,5.51,1.07,6.04,5.17
				c0.54,3.83-1.01,7.19-3.9,8.46c-0.87,0.4-1.81,0.54-2.82,0.47c-2.95-0.4-5.71-1.48-8.06-3.29c-1.21-0.94-2.42-1.34-3.9-1.34
				c-4.23,0.07-8.46-0.54-12.69-0.07c-9.07,1.07-13.9,5.84-15.11,14.98c-1.07,8.13,0.4,15.98,2.08,23.84
				c3.56,16.59,10.41,31.9,18.6,46.67c0.54,0.94,1.07,1.75,2.35,1.88c1.21,0.13,1.81,1.28,2.42,2.28
				c3.02,5.24,5.64,10.68,8.93,15.78c4.03,6.31,8.86,11.89,15.45,15.71c3.22,1.81,6.65,3.09,10.34,3.09
				c4.97,0.07,9.47-1.48,13.83-4.16c8.6-5.24,13.43-13.36,18.13-21.69c1.68-2.89,3.22-5.84,4.84-8.8c0.6-1.14,1.34-2.15,2.75-2.35
				c0.81-0.13,1.21-0.81,1.54-1.41c10.34-18.47,18.33-37.74,20.95-58.96c0.6-4.9,0.54-9.81-0.54-14.64
				c-1.61-6.98-6.45-11.28-13.57-12.16c-5.1-0.67-10.14,0.07-15.24,0c-0.81,0-1.28,0.54-1.88,0.94c-2.35,1.75-4.84,3.02-7.79,3.49
				c-3.43,0.6-6.18-1.07-7.12-4.5c-0.47-1.61-0.54-3.29-0.27-4.97c0.6-3.22,1.75-4.3,5.04-4.5c3.09-0.2,5.91,0.87,8.53,2.28
				c1.28,0.74,2.48,1.01,3.9,1.01c4.3-0.07,8.6-0.2,12.89-0.07c7.19,0.27,13.5,2.62,17.8,8.8c3.02,4.43,4.23,9.47,4.5,14.77
				c0.54,9.74-1.48,19.14-3.9,28.47c-3.69,14.24-9.67,27.53-16.66,40.36c-0.6,1.21-1.61,2.28-0.74,3.76c0.27,0.54,0,1.21-0.27,1.75
				c-4.57,8.06-8.46,16.52-14.24,23.84c-5.24,6.65-11.48,12.02-19.54,14.98c-1.48,0.54-3.09,1.01-4.63,1.28
				c-1.28,0.27-1.75,0.87-1.75,2.22c0.07,6.25,0.07,12.42,0.07,18.67c0,12.63-0.07,25.25,0.07,37.88
				c0.07,11.22,4.1,20.89,12.09,28.81c14.04,13.9,37.07,14.64,51.91,1.61c8.46-7.45,13.1-16.72,13.83-28
				c0.13-2.22,0.2-4.43,0.2-6.65c0-31.63,0-63.33,0-94.96C214.48,124.75,214.35,123.61,216.16,123.41z M231.88,104.94
				c0.07-7.52-5.84-13.63-13.3-13.63c-7.25-0.07-13.5,6.04-13.57,13.23c-0.13,7.32,5.98,13.63,13.3,13.77
				C225.7,118.44,231.81,112.4,231.88,104.94z"/>
		</g>
	</g>
	<g>
		<g>
			<path class="st0" d="M228.39,104.88c0,5.51-4.57,10.01-10.07,10.01c-5.51-0.07-9.94-4.63-9.87-10.21c0-5.57,4.5-10.01,10.07-9.94
				C224.15,94.8,228.45,99.17,228.39,104.88z"/>
		</g>
	</g>
</g>
</svg>
