<?xml version="1.0" encoding="utf-8"?>
<!-- Generator: Adobe Illustrator 26.3.1, SVG Export Plug-In . SVG Version: 6.00 Build 0)  -->
<svg version="1.1" id="Capa_1" xmlns="http://www.w3.org/2000/svg" xmlns:xlink="http://www.w3.org/1999/xlink" x="0px" y="0px"
	 viewBox="0 0 300 300" width="300" heigh="300" style="enable-background:new 0 0 300 300;" xml:space="preserve">
<style type="text/css">
	.st0{fill:#FFFFFF;}
	.st1{fill:#FFFFFF;stroke:#020203;stroke-width:10;stroke-linecap:round;stroke-linejoin:round;stroke-miterlimit:10;}
</style>
<g>
	<g>
		<g>
			<path class="st0" d="M211,237.79H64.68V25H211c13.39,0,24.33,10.93,24.33,24.33v164.21C235.25,226.85,224.39,237.79,211,237.79z
				 M74.81,227.65H211c7.82,0,14.12-6.37,14.19-14.19V49.33c0-7.82-6.37-14.19-14.19-14.19H74.81V227.65z"/>
		</g>
	</g>
	<g>
		<g>
			<path class="st0" d="M176.61,264h-31.06c-2.17,0-3.98-1.81-3.98-3.98v-23.6c0-2.17,1.81-3.98,3.98-3.98h31.06
				c2.17,0,3.98,1.81,3.98,3.98v23.6C180.59,262.26,178.78,264,176.61,264z M149.53,256.03h23.1v-15.64h-23.1V256.03z"/>
		</g>
	</g>
	<g>
		<g>
			<path class="st0" d="M123.54,275H92.48c-2.17,0-3.98-1.81-3.98-3.98v-34.61c0-2.17,1.81-3.98,3.98-3.98h31.06
				c2.17,0,3.98,1.81,3.98,3.98v34.61C127.52,273.19,125.78,275,123.54,275z M96.46,267.04h23.1v-26.64h-23.1V267.04z"/>
		</g>
	</g>
	<g>
		<g>
			<g>
				<path class="st0" d="M167.41,143.88c-0.22,0-0.51,0-0.72-0.07h-0.07c-1.81-0.36-3.04-2.1-2.9-3.91
					c0.22-1.88,1.74-3.26,3.62-3.26h0.07c2.03,0,3.62,1.59,3.62,3.62l0,0c0,1.09-0.51,2.1-1.3,2.82
					C169.08,143.59,168.28,143.88,167.41,143.88z"/>
			</g>
		</g>
		<g>
			<g>
				<path class="st1" d="M130.92,140.26"/>
			</g>
		</g>
		<g>
			<g>
				<path class="st0" d="M167.41,143.88c-0.22,0-0.43,0-0.72-0.07h-0.14c-0.07,0-0.07,0-0.14,0h-0.14l0,0
					c-2.61-0.72-3.11-2.97-2.82-4.34c0,0,0.8-3.33,4.34-2.75l0,0h0.14c0.07,0,0.07,0,0.14,0c1.95,0.43,3.19,2.32,2.75,4.27
					C170.6,142.72,169.15,143.88,167.41,143.88z"/>
			</g>
		</g>
		<g>
			<g>
				<path class="st0" d="M167.41,165.67h-36.49c-2.03,0-3.62-1.59-3.62-3.62v-17.81c-0.14,0-0.29,0-0.43,0
					c-12.38,0-22.44-10.06-22.44-22.44c0-12.16,9.63-22.01,21.72-22.44c1.74-10.72,11-18.9,22.15-18.9
					c11.15,0,20.42,8.18,22.15,18.9c0.29,0,0.58,0,0.87,0c12.38,0,22.44,10.06,22.44,22.44s-10.06,22.44-22.44,22.44
					c-0.07,0-0.22,0-0.29,0v17.81C171.03,164.08,169.44,165.67,167.41,165.67z M134.54,158.43h29.32v-16.72
					c-0.36-0.8-0.43-1.67-0.29-2.32c0,0,0.8-3.33,4.34-2.75l0,0h0.14c0,0,0,0,0.07,0c0.07,0,0.07,0,0.14,0
					c0.94,0.22,2.03,0.29,3.04,0.29c8.4,0,15.2-6.81,15.2-15.2s-6.81-15.2-15.2-15.2c-1.16,0-2.32,0.14-3.4,0.36
					c-1.16,0.29-2.32,0-3.19-0.8c-0.87-0.8-1.3-1.88-1.23-3.04c0,0,0-0.07,0-0.14c0-8.4-6.81-15.2-15.2-15.2
					c-8.4,0-15.2,6.81-15.2,15.2c0.07,1.09-0.36,2.1-1.09,2.82c-0.8,0.8-1.95,1.16-3.04,0.94c-0.65-0.07-1.3-0.14-2.03-0.14
					c-8.4,0-15.2,6.81-15.2,15.2s6.81,15.2,15.2,15.2c1.09,0,2.24-0.14,3.26-0.36c1.09-0.22,2.17,0,3.04,0.72
					c0.87,0.65,1.38,1.74,1.38,2.82v18.32H134.54z M133.02,102.76L133.02,102.76L133.02,102.76z"/>
			</g>
		</g>
		<g>
			<g>
				<path class="st0" d="M167.41,143.88c-0.22,0-0.51,0-0.72-0.07h-0.07c-1.81-0.36-3.04-2.1-2.9-3.91
					c0.22-1.88,1.74-3.26,3.62-3.26h0.07c2.03,0,3.62,1.59,3.62,3.62l0,0c0,1.09-0.51,2.1-1.3,2.82
					C169.08,143.59,168.28,143.88,167.41,143.88z"/>
			</g>
		</g>
		<g>
			<g>
				<path class="st0" d="M135.34,110.43c-1.09,0-2.1-0.43-2.82-1.38c-1.59-1.95-4.2-2.53-4.2-2.53c-1.95-0.36-3.26-2.24-2.97-4.2
					c0.36-1.95,2.24-3.26,4.2-2.97c0.51,0.07,5.36,1.01,8.62,5.14c1.23,1.59,1.01,3.84-0.58,5.07
					C136.93,110.22,136.14,110.43,135.34,110.43z"/>
			</g>
		</g>
		<g>
			<g>
				<path class="st0" d="M162.34,110.43c-0.8,0-1.59-0.29-2.24-0.8c-1.59-1.23-1.81-3.55-0.58-5.07c3.26-4.13,8.11-5.07,8.62-5.14
					c1.95-0.36,3.84,1.01,4.2,2.97c0.36,1.95-0.94,3.84-2.9,4.2c-0.07,0-2.68,0.58-4.2,2.53C164.44,110,163.43,110.43,162.34,110.43
					z"/>
			</g>
		</g>
	</g>
</g>
</svg>
