<?xml version="1.0" encoding="utf-8"?>
<!-- Generator: Adobe Illustrator 26.3.1, SVG Export Plug-In . SVG Version: 6.00 Build 0)  -->
<svg version="1.1" id="Capa_1" xmlns="http://www.w3.org/2000/svg" xmlns:xlink="http://www.w3.org/1999/xlink" x="0px" y="0px"
	 viewBox="0 0 300 300" width="300" heigh="300" style="enable-background:new 0 0 300 300;" xml:space="preserve">
<style type="text/css">
	.st0{fill:#FFED1A;}
</style>
<g>
	<g>
		<g>
			<path class="st0" d="M149.9,213.8c-19.7,0-39.5,0-59.2,0c-6.4,0-7-0.6-7-6.9c0.2-29.3,24.5-56.7,54.8-61.7
				c40.1-6.7,76,22.1,78.4,62.8c0.2,4.3-1.3,5.8-6.4,5.8C190.3,213.9,170.1,213.8,149.9,213.8z"/>
		</g>
	</g>
	<g>
		<g>
			<path class="st0" d="M153.3,110.8c0,6.8,0,13.4,0,20.1c0,2.1-0.1,4.4-2.9,4.6c-2.9,0.2-3.2-2.3-3.3-4.2
				c-0.2-8.4-0.3-16.9-0.4-25.3c0-5.2,0-10.3,0-15.5c0-2.1,0.3-4.3,3.1-4.4c3.1-0.1,3.4,2.2,3.4,4.5
				C153.3,97.4,153.3,104.1,153.3,110.8z"/>
		</g>
	</g>
	<g>
		<g>
			<path class="st0" d="M85.5,172.3c-0.8,3.4-3.1,3.1-5.4,1.9c-4.4-2.3-8.7-4.9-13.1-7.4c-7.1-4.1-14.3-8.3-21.4-12.5
				c-0.5-0.3-1.1-0.6-1.6-1c-1.7-1.1-3-2.6-2-4.6c1.1-2.2,3.2-1.7,4.9-0.8c5,2.6,9.9,5.2,14.8,8c6.2,3.5,12.5,7.1,18.7,10.7
				C82.6,167.9,84.9,169.3,85.5,172.3z"/>
		</g>
	</g>
	<g>
		<g>
			<path class="st0" d="M113.8,142.7c0,1.8-0.2,2.9-1.3,3.4c-1.1,0.6-2.2,0.1-3-0.6c-1-1-1.9-2-2.6-3.2
				c-6.3-10.7-12.5-21.5-18.7-32.3c-0.4-0.8-1-1.6-1.3-2.5c-0.8-1.8-1.2-3.8,1-4.9c2.1-1.1,3.6,0.2,4.7,1.9
				c2.2,3.6,4.3,7.2,6.4,10.8c4.2,7.3,8.4,14.6,12.5,21.9C112.6,139.2,113.2,141.3,113.8,142.7z"/>
		</g>
	</g>
	<g>
		<g>
			<path class="st0" d="M188.8,146.5c-1.6-0.1-2.3-1.2-2.6-2.7c-0.2-2,0.8-3.6,1.7-5.2c6.1-10.7,12.3-21.4,18.5-32.1
				c0.7-1.2,1.6-2.3,2.6-3.3c0.9-1,2.2-1.3,3.4-0.5c1.2,0.8,1.6,1.9,1.3,3.2c-0.4,1.5-0.9,3-1.6,4.3c-6.3,11-12.7,21.9-19.1,32.8
				C192,144.7,191.1,146.4,188.8,146.5z"/>
		</g>
	</g>
	<g>
		<g>
			<path class="st0" d="M258.9,150.1c-0.4,1.5-1.4,2.4-2.6,3.1c-11.7,6.8-23.4,13.7-35.1,20.5c-1.9,1.1-4.2,2.1-5.8-0.4
				c-1.9-2.9,0.6-4.4,2.6-5.6c11.6-6.8,23.3-13.4,34.9-19.9C255.7,146.2,259,147.6,258.9,150.1z"/>
		</g>
	</g>
	<g>
		<g>
			<path class="st0" d="M49.5,213.8c-6.4,0-12.8,0.1-19.2,0c-2.2,0-5.3,0.4-5.2-3c0.1-3,2.9-2.7,5.1-2.7c10.1-0.1,20.3,0,30.5-0.1
				c2.9,0,5.9-0.2,8.9-0.4c2.5-0.2,5.1-0.1,5.5,2.9c0.4,3.5-2.6,3.4-4.9,3.4C63.2,213.9,56.3,213.8,49.5,213.8z"/>
		</g>
	</g>
	<g>
		<g>
			<path class="st0" d="M250,213.8c-6.8,0-13.4,0-20.2,0c-2,0-4.6,0.1-4.6-2.7c-0.1-3.1,2.6-3,4.8-3c13.4-0.1,26.9-0.1,40.4,0
				c2.2,0,4.9,0.3,4.6,3.3c-0.1,2.8-2.8,2.5-4.8,2.5C263.4,213.9,256.7,213.9,250,213.8L250,213.8z"/>
		</g>
	</g>
</g>
</svg>
