<?xml version="1.0" encoding="utf-8"?>
<!-- Generator: Adobe Illustrator 26.3.1, SVG Export Plug-In . SVG Version: 6.00 Build 0)  -->
<svg version="1.1" id="Capa_1" xmlns="http://www.w3.org/2000/svg" xmlns:xlink="http://www.w3.org/1999/xlink" x="0px" y="0px"
	 viewBox="0 0 300 300" width="300" heigh="300" style="enable-background:new 0 0 300 300;" xml:space="preserve">
<style type="text/css">
	.st0{fill:#FFEF4A;}
</style>
<g>
	<g>
		<g>
			<path class="st0" d="M229.2,172.3c-0.3,15.5-10.4,36.1-30.2,52.1c-2.5,2.1-2.8,3.5-1.1,6.1c3.3,5.3,6.4,10.6,9.3,16.1
				c3,5.5,1.8,10.6-3,13.4c-4.7,2.7-9.7,1-12.9-4.5c-3.3-5.5-6.6-11.2-9.8-16.8c-1.2-2.2-2.4-2.8-5-2c-17,6-34.1,5.9-51.2,0.2
				c-2.6-0.8-4-0.2-5.3,2.2c-3,5.4-6.1,10.8-9.3,16.1c-3.4,5.8-8.4,7.5-13.2,4.8c-5-2.9-6-8.3-2.5-14.2c2.7-4.7,5.3-9.6,8.3-14.1
				c2.2-3.5,1.7-5.4-1.6-8c-29-22.9-38.2-63.8-21.1-96.4c14.6-27.9,38.4-43.2,69.8-43.4C197,83.6,229.6,121.7,229.2,172.3z
				 M210.5,162.4c0-33.1-26.8-60-59.7-59.9c-33,0.1-60.2,27.3-60.1,60.4c0.1,32.9,27.1,59.6,60.3,59.5
				C184.1,222.2,210.5,195.7,210.5,162.4z"/>
		</g>
	</g>
	<g>
		<g>
			<path class="st0" d="M183.1,38.7c7.4,1.9,14.7,4.6,21.8,8.1c34.6,17.3,57.6,44.4,68.8,81.6c0.4,1.2,0.8,2.5,1,3.9
				c0.8,3.2-0.2,5.7-3.4,6.6c-3.4,0.9-5.3-1.1-6.1-4.2c-2.2-8.4-5.3-16.5-9.1-24.3C241.3,80.8,218,61.1,187,50.1
				c-2.2-0.8-4.5-1.4-6.6-2.4s-2.9-2.9-2.2-5.2C178.7,40,180.4,38.9,183.1,38.7z"/>
		</g>
	</g>
	<g>
		<g>
			<path class="st0" d="M25,139.8c2.2-12.3,6.2-23.9,11.8-35c13-25.2,32.1-44,57.2-57.1c1.1-0.7,2.3-1.2,3.6-1.7
				c3-1.2,5.3,0,6.7,2.6c1.5,2.8,0.1,4.7-2.4,6c-10.5,5.4-20.4,11.6-29.2,19.6c-19.9,17.8-32,40-37.6,65.9c-0.5,2.4-1,4.7-3.9,5.4
				C27.7,146.3,24.7,143.4,25,139.8z"/>
		</g>
	</g>
	<g>
		<g>
			<path class="st0" d="M244.2,118.6c0,3.1-1.4,4.7-3.7,5.5c-2.5,0.8-4.2-0.5-5.4-2.6c-3.1-5.7-6.5-11.2-10.3-16.4
				c-7.2-9.5-16-17.2-26.1-23.4c-0.8-0.5-1.5-0.8-2.2-1.4c-2.6-1.7-4-4-2.2-7c1.8-3,4.4-3,7.3-1.4c6.3,3.6,12.1,7.9,17.5,12.7
				c9.8,8.5,17.6,18.6,23.6,30C243.2,116.1,243.7,117.6,244.2,118.6z"/>
		</g>
	</g>
	<g>
		<g>
			<path class="st0" d="M52.2,130.6c0.2-0.8,0.4-1.7,0.8-2.7c6.7-18,17.2-33.4,32-45.7c0.8-0.7,1.7-1.2,2.6-1.6c2.6-1,4.6,0,6.1,2.2
				c1.4,2.1,0.7,3.8-1,5.4c-4,3.9-8.2,7.7-11.9,11.7c-7.9,8.5-13.7,18.4-17.8,29.2c-0.7,1.6-1.3,3.3-2.3,4.7
				c-1.3,1.9-3.3,2.4-5.5,1.4C53.2,134.6,52.2,133.1,52.2,130.6z"/>
		</g>
	</g>
	<g>
		<g>
			<path class="st0" d="M150.4,79.5c-2.5,0-5.1-0.2-7.5,0c-4.1,0.4-5.5-1.4-5.2-5.3c0.6-6.8,6.9-12.3,14-11.8s12.6,7,12.1,13.9
				c-0.2,2.2-1,3.3-3.2,3.3C157.3,79.5,153.9,79.5,150.4,79.5L150.4,79.5z"/>
		</g>
	</g>
	<g>
		<g>
			<path class="st0" d="M156,130.6c0,2.1,0.1,4.1,0,6.2c-0.3,5.3-0.6,10.4,5.8,12.7c0.8,0.3,1.8,1.3,2.2,2.2
				c2.1,5.4,6.4,5.6,11.2,5.4c3.2-0.2,6.5-0.1,9.8,0c4.2,0.2,6.8,2.4,6.5,5.6c-0.4,3.9-3,5.2-6.5,5.2c-4.6,0-9.1,0.1-13.7,0
				c-2.4-0.1-4,0.8-5.4,2.9c-4.5,7.1-10.8,10-18.3,8.5c-6.7-1.3-12.2-6.9-13.5-13.6c-1.4-6.9,1.7-13.6,8.4-17.9
				c2.2-1.4,2.8-3.1,2.8-5.4c-0.1-7,0-14.2,0-21.2c0-1.5-0.1-3,0.3-4.4c0.8-2.8,2.6-4.8,5.6-4.6c3.1,0.2,4.8,2.2,4.8,5.3
				C156.1,121.8,156,126.2,156,130.6L156,130.6z"/>
		</g>
	</g>
</g>
</svg>
