<?xml version="1.0" encoding="utf-8"?>
<!-- Generator: Adobe Illustrator 26.3.1, SVG Export Plug-In . SVG Version: 6.00 Build 0)  -->
<svg version="1.1" id="Capa_1" xmlns="http://www.w3.org/2000/svg" xmlns:xlink="http://www.w3.org/1999/xlink" x="0px" y="0px"
	 viewBox="0 0 300 300" width="300" heigh="300" style="enable-background:new 0 0 300 300;" xml:space="preserve">
<style type="text/css">
	.st0{fill:#A1D5D3;}
	.st1{fill:#ECE423;}
</style>
<g>
	<g>
		<path class="st0" d="M84.75,274.97c-6.69,0-12.62-3.11-15.92-8.33c-3.02-4.78-3.31-10.72-0.78-15.88c0.01-0.2-0.2-0.99-0.35-1.51
			c-0.1-0.31-0.18-0.64-0.26-0.95c-6.8-26.73-4.39-51.57,7.18-73.84c9.18-17.68,23.04-31.47,41.21-40.99
			c0.61-0.33,0.79-0.52,0.8-0.53c0,0,0.08-0.23,0.07-0.89c-0.11-14.31-0.11-29.28-0.01-45.73c0.01-3-0.71-5.52-2.3-7.95
			c-3.51-5.41-7.04-10.92-10.45-16.25l-2.67-4.18c-0.86-1.35-3.49-5.46-1.89-9.63c1.58-4.13,6.17-5.39,7.68-5.82
			c6.81-1.88,13.48-2.17,19.84-0.83l0.37,0.08c0.45,0.1,0.89,0.19,1.29,0.26c0-0.64,0-1.28,0-1.92c-0.01-1.44-0.01-2.94,0.03-4.44
			c0.16-6.22,4.21-10.36,10.31-10.53c4.92-0.14,10.13-0.15,15.96-0.01c6.18,0.14,10.21,4.09,10.51,10.31
			c0.11,2.12,0.12,4.43,0.07,7.01c8.69,1.17,12.6,5.95,12.61,15.32c0,0.84,0,1.69,0,2.52c0,1.55-0.01,3.12,0.01,4.67
			c0,0.49,0.01,0.86,0.04,1.12c0.25,0.05,0.57,0.12,1.01,0.19c13.18,2.26,23.26,8.77,29.93,19.37c10.43,16.53,6.88,37.83-8.46,50.62
			c-1.96,1.65-4.07,3.04-6.22,4.32c4.7,3.49,8.7,6.95,12.35,10.64c18.39,18.66,28.3,40.76,29.48,65.71
			c0.53,11.25-0.61,22.78-3.39,34.31c-0.23,0.94-0.2,1.31-0.1,1.7c1.62,5.5,0.75,11.07-2.38,15.29c-3.13,4.21-8.21,6.63-13.95,6.67
			c-12.24,0.07-24.69,0.05-36.73,0.04c-4.98,0-9.98-0.01-14.95-0.01c-7.61,0.01-15.24-0.01-22.87-0.04
			c-18.62-0.04-37.86-0.1-56.78,0.15C84.92,274.97,84.83,274.97,84.75,274.97z M107.82,51.54c0.14,0.34,0.38,0.86,0.87,1.62
			l2.68,4.19c3.39,5.31,6.9,10.81,10.4,16.19c2.53,3.89,3.76,8.09,3.73,12.83c-0.1,16.41-0.1,31.34,0.01,45.62
			c0.03,4.32-1.74,7.27-5.6,9.3c-16.53,8.68-29.14,21.2-37.48,37.25c-10.69,20.58-12.8,42.68-6.46,67.59
			c0.07,0.25,0.14,0.49,0.2,0.74c0.53,1.85,1.32,4.67-0.22,7.8c-1.2,2.45-1.09,5.03,0.33,7.27c1.7,2.68,4.9,4.28,8.62,4.22
			c18.98-0.23,38.26-0.19,56.91-0.15c7.61,0.01,15.24,0.03,22.84,0.04c5,0,9.97,0,14.97,0.01c12.03,0.01,24.46,0.03,36.68-0.04
			c2.97-0.01,5.43-1.12,6.92-3.11c1.48-2,1.84-4.67,1.01-7.53c-0.75-2.53-0.39-4.67-0.01-6.26c2.61-10.84,3.65-21.26,3.16-31.81
			c-1.09-23.03-9.9-42.64-26.95-59.94c-4.66-4.73-10.01-9.06-16.87-13.65l-6.18-4.14l6.59-3.45c4.02-2.1,7.8-4.07,10.95-6.7
			c11.89-9.93,14.68-26.38,6.65-39.14c-5.37-8.5-13.2-13.52-23.96-15.36c-6.11-1.05-8.31-3.64-8.38-9.91
			c-0.01-1.61-0.01-3.2-0.01-4.81c0-0.83,0-1.66,0-2.49c0-5.28-0.82-6.22-5.82-6.69c-4.48-0.41-6.96-3.23-6.81-7.71
			c0.1-2.83,0.08-5.3-0.03-7.52c-0.08-1.65-0.48-1.89-1.89-1.92c-5.68-0.12-10.76-0.11-15.53,0.01c-1.17,0.03-1.69,0.12-1.74,1.93
			c-0.04,1.36-0.03,2.72-0.01,4.17c0,0.78,0.01,1.57,0,2.34c-0.01,2.29-0.01,5.12-2.22,7.08c-2.19,1.95-5.09,1.61-7.2,1.36
			c-0.91-0.11-1.77-0.29-2.52-0.45l-0.34-0.07c-5.03-1.06-10.16-0.83-15.68,0.69C108.62,51.19,108.13,51.39,107.82,51.54z"/>
	</g>
	<g>
		<path class="st1" d="M151.23,252.75c-18.58,0-37.15-0.08-55.73,0.08c-3.4,0.03-5.3-0.97-6.77-4.11
			c-7.08-15.14-7.16-30.36-1.29-45.84c0.99-2.61,2.52-3.99,5.31-4.6c17.94-3.92,35.2-2.6,51.68,6.02
			c6.22,3.25,12.35,6.69,19.45,7.89c13.11,2.19,24.9-1.63,36.23-7.69c1.85-0.99,3.66-2.06,5.41-3.23c1.62-1.08,2.61-0.68,3.53,0.93
			c8.84,15.59,9.98,31.73,3.57,48.47c-0.84,2.21-2.57,2.11-4.39,2.11c-14.07-0.01-28.12,0-42.19,0
			C161.11,252.75,156.16,252.75,151.23,252.75z"/>
	</g>
	<g>
		<path class="st0" d="M175.53,129.51c-1.1,0-2.23-0.08-3.36-0.26c-5.07-0.78-7.86-4.1-7.68-9.12c0.12-3.36,0.1-6.84,0.07-10.2
			c-0.01-1.48-0.03-2.96-0.03-4.44l0,0c0-1.47,0.01-2.94,0.01-4.41c0.01-3.47,0.04-7.08-0.05-10.58c-0.12-4.68,2.49-7.87,7.18-8.74
			c1.29-0.25,3.24-0.6,5.42-0.16c8.69,1.77,15.08,7.11,18.47,15.44c3.57,8.78,2.41,17.32-3.25,24.06
			C187.62,126.65,181.88,129.51,175.53,129.51z M173.28,120.5c0.05,0.01,0.12,0.03,0.2,0.04c4.67,0.72,8.5-0.9,12.04-5.11
			c3.55-4.24,4.18-9.3,1.84-15.06c-2.29-5.62-6.22-8.93-12.04-10.12c-0.45-0.1-1.16,0.03-2.02,0.18c0.1,3.6,0.07,7.2,0.05,10.7
			c-0.01,1.46-0.01,2.91-0.01,4.36c0,1.46,0.01,2.91,0.03,4.37c0.03,3.46,0.05,7.03-0.07,10.58
			C173.3,120.45,173.3,120.47,173.28,120.5z"/>
	</g>
</g>
</svg>
