<?xml version="1.0" encoding="utf-8"?>
<!-- Generator: Adobe Illustrator 26.3.1, SVG Export Plug-In . SVG Version: 6.00 Build 0)  -->
<svg version="1.1" id="Capa_1" xmlns="http://www.w3.org/2000/svg" xmlns:xlink="http://www.w3.org/1999/xlink" x="0px" y="0px"
	 viewBox="0 0 300 300" width="300" heigh="300" style="enable-background:new 0 0 300 300;" xml:space="preserve">
<style type="text/css">
	.st0{fill:#664495;}
	.st1{fill:#724227;}
</style>
<path class="st0" d="M220.56,181.15c-3.22-3.71-7.77-6.86-10.38-10.87l0,0c-10.9-12.22-24.03-23.28-34.78-35.56l-6.88-6.82
	c-10.42-9.37-20.5-20.02-30.31-30.07l-7.18-6.64c-6.12-2.89-16.28-22.08-23.36-14.55c-8.15,8.03-16.3,16.12-24.33,24.27
	c-4.29,4.51-0.36,9.94,5.07,10.75c-19.63,20.27-39.91,39.94-59.89,59.89c-4.71,4.65-4.65,7.49,0,12.14
	c29.16,29.04,58.26,58.2,87.36,87.3c3.56,3.56,6.46,3.56,10.02-0.06c4.71-4.71,9.3-9.48,14.01-14.19c0,0,45.28-45.28,45.28-45.28
	c0.36-0.36,0.6-0.97,1.33-0.85c3.56,10.93,11,4.61,16.06-1.27c6.04-6.04,12.08-12.07,18.05-18.17
	C224.06,187.61,224,184.59,220.56,181.15z M135.67,248.4c-4.65,4.53-9.18,9.06-13.71,13.71c-1.03,1.09-1.63,0.91-2.6-0.06
	c-27.65-27.71-55.3-55.36-83.02-83.02c-1.21-1.15-1.33-1.81-0.06-3.02c4.81-4.57,9.26-9.58,14.13-14.13
	c21.69,19.89,42.25,41.86,63.58,62.43c7.18,7.19,14.43,14.37,21.67,21.49C136.64,246.77,136.7,247.38,135.67,248.4z M182.34,201.73
	c-12.62,12.56-25.24,25.12-37.79,37.73c-1.21,1.21-1.81,0.91-2.9-0.12c-27.63-27.58-55.41-55.14-83.08-82.71
	c-1.21-1.21-1.09-1.87,0.06-3.02c13.45-12.67,26.1-26.79,39.73-38.88c3.74,1.15,7.25,2.23,10.81,3.38c3.56,1.55,9.03,1.19,10.14,5.8
	c3.62,11.89,7.37,23.79,10.93,35.68c1.27,4.17,3.62,6.64,7.91,7.91c11.83,3.38,23.55,7.18,35.32,10.75
	c2.35,0.72,3.68,2.11,4.35,4.41C178.28,186.46,184.54,199.8,182.34,201.73z M211.93,187.18c-5.61,5.68-11.29,11.29-16.91,16.97
	c-1.03,1.09-1.27,0.48-1.57-0.54c-2.35-7.85-4.95-15.7-7.18-23.61c-1.57-5.49-5.01-8.63-10.38-10.2
	c-11.65-3.5-23.3-7.18-34.96-10.69c-1.39-0.42-1.93-1.27-2.29-2.54c-3.62-11.83-7.31-23.67-10.93-35.5
	c-1.51-4.89-4.59-8.03-9.54-9.48c-8.03-2.42-16-4.95-23.97-7.37c-1.27-0.36-1.33-0.72-0.42-1.63c5.61-5.49,11.29-10.99,16.84-16.54
	c0.97-0.91,1.45-1.03,2.48,0c33.17,33.34,66.55,66.38,99.68,99.8C212.65,186.52,212.23,186.82,211.93,187.18z"/>
<path class="st1" d="M270.07,85.39c-87.76-88.4-53.51-70.07-139.16,5.74l7.18,6.64c8.34-10.71,19.89-19.95,29.22-30.13
	c0.85-0.84,1.45-0.9,2.36,0c9.64,10.05,20.18,19.57,29.46,29.89c-10.13,9.92-20.18,21.17-30.73,30.31l6.88,6.82
	c8.56-10.57,19.72-19.74,29.1-29.83c0.97-1.03,1.63-0.97,2.66,0.06c8.93,9.18,18.31,18.14,27.23,27.41
	c-5.07,6.04-11.46,11.56-17.03,17.39c-4.11,4.17-8.27,8.27-12.38,12.44c-0.6,0.66-1.09,0.91-1.57,0.72l6.76,7.37
	c17.51-19.04,41.22-41.31,59.17-59.77C276.59,103.2,276.95,92.39,270.07,85.39z M202.93,88.47c-8.88-8.88-17.75-17.81-26.69-26.63
	c-1.27-1.27-1.09-1.99,0.06-3.08c6.94-5.43,19.91-23.5,27.35-23.73c7.65-0.09,22.65,20.51,30.01,26.2c1.03,1.09,0.48,1.63-0.24,2.36
	c-8.33,8.27-16.66,16.6-25,24.93C205.71,91.25,205.71,91.25,202.93,88.47z M263.61,103.5c-7.24,7.31-14.55,14.61-21.8,21.92
	c-0.72,0.72-1.21,0.85-2.05,0c-8.69-8.75-17.45-17.51-26.2-26.26c-1.69-1.69-1.63-1.69,0.06-3.38c8.57-8.57,17.09-17.09,25.6-25.66
	c1.27-1.33,1.99-1.33,3.32,0c6.7,6.82,13.52,13.58,20.29,20.35C266.63,93.65,267.38,99.92,263.61,103.5z"/>
</svg>
