<?xml version="1.0" encoding="utf-8"?>
<!-- Generator: Adobe Illustrator 26.3.1, SVG Export Plug-In . SVG Version: 6.00 Build 0)  -->
<svg version="1.1" id="Capa_1" xmlns="http://www.w3.org/2000/svg" xmlns:xlink="http://www.w3.org/1999/xlink" x="0px" y="0px"
	 viewBox="0 0 300 300" width="300" heigh="300" style="enable-background:new 0 0 300 300;" xml:space="preserve">
<style type="text/css">
	.st0{fill:#A1D5D3;}
	.st1{fill:#64B339;}
</style>
<g>
	<g>
		<path class="st0" d="M230.31,250.94H69.69c-24.64,0-44.69-20.05-44.69-44.69v-5.05h250v5.05
			C275,230.89,254.95,250.94,230.31,250.94z M35.45,211.3c2.45,16.7,16.87,29.55,34.23,29.55h160.63
			c17.37,0,31.77-12.87,34.23-29.55H35.45z"/>
	</g>
	<g>
		<g>
			<path class="st1" d="M239.15,194.44H59.95c-3.07,0-5.95-1.36-7.91-3.72c-1.96-2.37-2.76-5.45-2.18-8.47L70.29,74.73l0.03-0.12
				c0.23-0.97,0.53-1.96,0.87-2.94c4.64-13.52,17.35-22.6,31.66-22.6c8.99,0,17.41,3.55,23.63,9.75c6.2-6.2,14.63-9.75,23.63-9.75
				c8.99,0,17.41,3.55,23.61,9.73c6.2-6.18,14.63-9.73,23.61-9.73c14.3,0,27.02,9.08,31.66,22.6c0.39,1.14,0.73,2.35,1.01,3.58
				l0.36,1.82l19.8,104.11c0.62,3.29-0.23,6.64-2.37,9.2C245.62,192.96,242.49,194.44,239.15,194.44z M60.59,183.63h178.56
				c0.05,0,0.17,0,0.28-0.12c0.11-0.12,0.09-0.25,0.08-0.3L219.41,77.52c-0.19-0.79-0.4-1.57-0.65-2.32
				c-3.15-9.17-11.76-15.33-21.45-15.33c-7.74,0-14.87,3.89-19.06,10.4l-4.55,7.06l-4.55-7.06c-4.19-6.51-11.32-10.4-19.06-10.4
				s-14.87,3.89-19.08,10.42l-4.55,7.07l-4.55-7.07c-4.21-6.53-11.32-10.42-19.08-10.42c-9.69,0-18.3,6.15-21.43,15.3
				c-0.22,0.62-0.4,1.25-0.55,1.84l-0.5,2.65L60.59,183.63z"/>
		</g>
		<g>
			<path class="st1" d="M77.18,79.06l-4.27-0.69c0.14-1,0.33-2.01,0.58-3.01l4.22,0.92L77.18,79.06z"/>
		</g>
		<g>
			<path class="st1" d="M219.71,79.11l-0.33-1.68l10.58-2.21c0.16,0.65,0.28,1.34,0.39,2.04L219.71,79.11z"/>
		</g>
		<g>
			<path class="st1" d="M109.11,188.6c-0.26,0-0.53-0.02-0.81-0.06c-2.96-0.44-4.98-3.19-4.55-6.15l17.38-115.82
				c0.44-2.96,3.19-4.98,6.15-4.55c2.96,0.44,4.98,3.19,4.55,6.15l-17.38,115.82C114.04,186.67,111.74,188.6,109.11,188.6z"/>
		</g>
		<g>
			<path class="st1" d="M187.7,189.12c-2.69,0-5.03-2.01-5.36-4.77L168.32,68c-0.36-2.96,1.76-5.65,4.72-6.01
				c2.96-0.34,5.65,1.76,6.01,4.72l14.02,116.35c0.36,2.96-1.76,5.65-4.72,6.01C188.14,189.1,187.92,189.12,187.7,189.12z"/>
		</g>
	</g>
</g>
</svg>
