<?xml version="1.0" encoding="utf-8"?>
<!-- Generator: Adobe Illustrator 26.3.1, SVG Export Plug-In . SVG Version: 6.00 Build 0)  -->
<svg version="1.1" id="Capa_1" xmlns="http://www.w3.org/2000/svg" xmlns:xlink="http://www.w3.org/1999/xlink" x="0px" y="0px"
	 viewBox="0 0 300 300" width="300" heigh="300" style="enable-background:new 0 0 300 300;" xml:space="preserve">
<style type="text/css">
	.st0{fill:#97663D;}
	.st1{fill:#6E4216;}
</style>
<g>
	<g>
		<path class="st0" d="M146.84,275c-2.21,0-4.41-0.1-6.65-0.33c-7.22-0.72-14.59-2.74-22.55-6.15l-8.34-3.58
			c-8.98-3.86-17.95-7.72-26.95-11.54c-5.58-2.38-10.32-6.01-14.51-11.13c-3.38-4.12-6.87-8.29-10.27-12.32
			c-3-3.55-6.08-7.24-9.1-10.91c-7.98-9.7-12.91-19.49-15.04-29.93c-0.78-3.77-1.67-7.63-2.55-11.37
			c-1.21-5.17-2.46-10.51-3.45-15.9c-2.43-13.35-1.59-27.17,2.6-42.25c2.22-7.99,4.58-15.11,7.22-21.78
			c2.1-5.31,5.65-9.72,10.3-12.84c3.74-9.56,9.99-18.37,19.07-26.9c15.32-14.39,33.89-24.07,56.74-29.6
			c15.08-3.64,30.69-4.43,46.4-2.33c9.15,1.22,18.16,3.84,27.55,8.01c0.78,0.34,1.4,0.74,1.84,1.02c0.1,0.07,0.21,0.14,0.31,0.19
			l4.45,2.64l-1.96,4.79c-2.91,7.08-2.71,15.46,0.55,22.4c2.29,4.88,7.15,11.35,17.21,14.47l5.08,1.59l-0.96,5.22
			c-2.19,11.8,0.69,21.4,8.82,29.38c7.94,7.79,17.66,10.44,29.69,8.13l5.81-1.12l1.19,5.79c0.28,1.38,0.57,2.76,0.84,4.1
			c0.64,3.05,1.22,5.93,1.79,8.91c2.57,13.47,2.58,23.95,0.05,33.96c-0.64,2.52-0.95,5.24-1.29,8.12c-0.19,1.67-0.4,3.41-0.67,5.17
			c-1.57,10.05-6.12,17.92-13.49,23.4c-3.7,2.74-5.91,6.5-8.1,11.29c-3.98,8.72-8.75,15.95-14.59,22.11
			c-7.91,8.32-18.14,13.9-32.24,17.54c-9.1,2.34-18.11,4.84-24.97,6.75C167.31,272.67,157.29,275,146.84,275z M152.66,37.02
			c-8.96,0-17.82,1.05-26.47,3.14c-20.8,5.01-37.6,13.75-51.36,26.69c-8.1,7.6-13.49,15.32-16.52,23.59
			c-0.62,1.67-1.84,3.15-3.36,4.07c-2.98,1.77-5.26,4.46-6.56,7.75c-2.48,6.27-4.72,12.99-6.82,20.57
			c-3.69,13.3-4.46,25.38-2.36,36.91c0.93,5.08,2.14,10.29,3.33,15.32c0.9,3.81,1.81,7.75,2.62,11.68
			c1.74,8.48,5.86,16.58,12.56,24.73c2.98,3.62,6.05,7.27,9.01,10.8c3.41,4.05,6.94,8.25,10.37,12.44c2.91,3.57,6.17,6.08,9.92,7.68
			c9.01,3.83,17.99,7.7,26.98,11.56l8.32,3.58c6.82,2.93,13.04,4.65,19.02,5.24c10.32,1.03,20.3-0.95,32.08-4.24
			c6.89-1.93,15.99-4.43,25.17-6.81c11.82-3.05,20.26-7.56,26.55-14.2c4.91-5.19,8.98-11.34,12.39-18.83
			c2.55-5.6,5.75-11.42,11.85-15.94c4.84-3.58,7.72-8.7,8.8-15.63c0.24-1.52,0.41-3.07,0.6-4.69c0.36-3.14,0.74-6.39,1.57-9.68
			c2.08-8.24,2.02-17.11-0.21-28.77c-0.47-2.45-0.96-4.86-1.48-7.36c-13.42,1.17-25-2.89-34.46-12.16
			c-9.7-9.51-14.11-21.55-12.91-35.1c-8.8-3.91-15.7-10.53-19.69-19.02c-3.93-8.34-4.79-17.78-2.58-26.62
			c-7.12-2.88-13.99-4.72-20.9-5.65C163,37.36,157.81,37.02,152.66,37.02z"/>
	</g>
	<g>
		<g>
			<g>
				<path class="st1" d="M136.21,132.87c-10.1,1.28-17.7-1.17-23-9.06c-4.29-6.41-3.93-15.42,1.1-22.5
					c5.13-7.22,12.04-11.27,21.11-10.73c6.89,0.4,12.8,5.69,14.73,12.77c0.74,2.72,1.21,5.5,2.91,7.94c0.78,1.12,0.96,2.89,0.9,4.34
					c-0.38,7.31-5.39,13.73-12.37,15.95C139.51,132.22,137.34,132.59,136.21,132.87z"/>
			</g>
			<g>
				<path class="st1" d="M202.45,177.34c1.21,5.17-0.84,9.7-5.03,13.92c-4,4.01-8.29,6.79-13.99,7.41
					c-9.91,1.09-18.01-5.12-19.99-14.87c-2.05-10.08,5.55-20.21,16.4-22.19c2.34-0.43,4.81-0.55,7.18-0.36
					C196.73,162.02,200.96,166.33,202.45,177.34z"/>
			</g>
			<g>
				<path class="st1" d="M69.63,164.44c-1.12-8.86,4.91-18.85,13.37-21.73c9.73-3.31,22.23,4.51,23.36,14.73
					c0.19,1.65-0.09,3.46-0.57,5.07c-0.88,2.88-2,5.67-3.15,8.44c-2.1,5.03-6,7.89-11.35,8.37c-6.69,0.6-12.68-1.33-17.61-5.94
					C71.27,171.1,70.01,168.11,69.63,164.44z"/>
			</g>
			<g>
				<path class="st1" d="M179.13,98.55c8.94-1.07,16.27,4.17,17.21,12.32c0.98,8.56-5.34,14.2-13.63,11.91
					c-6.24-1.72-10.51-5.62-11.99-12.2C169.17,103.82,172.23,99.37,179.13,98.55z"/>
			</g>
		</g>
		<g>
			<path class="st1" d="M98.68,86.26c-0.31,6.01-1.88,11.65-7.46,14.77c-2.77,1.55-6.29,1.79-9.48,2.57
				c-12.32,2.96-18.13-5.46-19.9-14.51c-1.4-7.06,0.19-13.2,6.58-17.35c7.81-5.03,19.64-4.67,25.62,1.91
				C97.27,77.23,98.83,81.42,98.68,86.26z"/>
		</g>
		<g>
			<path class="st1" d="M167.32,229.48c-0.45,8.49-2.67,16.45-10.53,20.87c-3.91,2.19-8.87,2.53-13.39,3.62
				c-17.4,4.19-25.6-7.72-28.12-20.49c-1.96-9.98,0.26-18.66,9.3-24.5c11.03-7.12,27.76-6.6,36.18,2.71
				C165.34,216.71,167.56,222.64,167.32,229.48z"/>
		</g>
		<g>
			<path class="st1" d="M226.94,200.05c8.44,0.19,14.18,7.58,11.89,15.47c-1.19,4.12-5.19,6.89-10.15,6.69
				c-4.62-0.19-8.63-1.9-11.63-5.62c-4.7-5.82-2.55-13.27,4.58-15.51C223.34,200.55,225.16,200.39,226.94,200.05z"/>
		</g>
		<g>
			<path class="st1" d="M149.23,37.17c5.77-0.07,8.56,2.29,9.17,6.81c0.62,4.63-0.84,8.67-4.01,11.99
				c-3.53,3.7-8.56,3.34-12.06-0.67c-0.16-0.17-0.26-0.38-0.4-0.55c-2.76-3.43-4.38-7.39-2.38-11.51
				C141.62,38.98,145.79,37.42,149.23,37.17z"/>
		</g>
		<g>
			<path class="st1" d="M244.15,141.42c4.45,0.05,8.2,4.03,8.12,8.58c-0.1,5.27-4.5,10.08-9.15,9.98c-4.22-0.1-7.77-3.72-7.7-7.86
				C235.5,146.05,239.33,141.36,244.15,141.42z"/>
		</g>
	</g>
</g>
</svg>
