<?xml version="1.0" encoding="utf-8"?>
<!-- Generator: Adobe Illustrator 26.3.1, SVG Export Plug-In . SVG Version: 6.00 Build 0)  -->
<svg version="1.1" id="Capa_1" xmlns="http://www.w3.org/2000/svg" xmlns:xlink="http://www.w3.org/1999/xlink" x="0px" y="0px"
	 viewBox="0 0 300 300" width="300" heigh="300" style="enable-background:new 0 0 300 300;" xml:space="preserve">
<style type="text/css">
	.st0{fill:#84AD28;}
	.st1{fill:#020203;}
	.st2{fill:#925F22;}
</style>
<g>
	<g>
		<path class="st0" d="M198.71,221.98c-1.96,3.01-5.56,4.71-9.25,3.97c-4.87-0.96-8.03-5.74-7.06-10.72
			c0.21-1.11,0.63-2.13,1.18-3.04c0-0.03,0.01-0.06,0.04-0.07c0.21-0.28,0.42-0.57,0.61-0.87c7.69-11.33,10.99-32.3,11.14-33.08
			C195.38,178.17,210.96,204.04,198.71,221.98z"/>
	</g>
	<g>
		<path class="st1" d="M195.73,205.76c-0.02,0.01-0.02,0.04-0.02,0.06l0,0C195.7,205.79,195.71,205.78,195.73,205.76z"/>
	</g>
	<g>
		<path class="st2" d="M176.3,85.54l-10.37-0.76c2.62-35.3-11.8-45.94-20.63-49.15c-1.32-0.48-2.83-0.22-3.93,0.69
			c-1.77,1.45-2.17,2.46-2.17,2.64c0.02,0.01,0.1,0.12,0.28,0.25c15.87,10.78,29.93,28.32,21.78,45.16l-9.37-4.53
			c6.79-14.06-14.02-29.14-18.26-32.02c-2.04-1.38-3.51-3.27-4.27-5.44c-0.97-2.8-1.57-8.36,5.38-14.09
			c3.93-3.24,9.32-4.17,14.09-2.44C158.19,29.22,179.55,41.83,176.3,85.54z"/>
	</g>
	<g>
		<path class="st0" d="M150.01,275c-0.34,0-0.69,0-1.02,0c-40.25-0.54-73.02-33.74-73.05-74.01c-0.01-22.54,10.06-43.61,27.64-57.76
			c8.06-6.49,12.74-16.07,12.82-26.28c0-0.15,0-0.33,0-0.51c0.43-21.35,17.48-38.69,38.78-39.5c11.11-0.42,21.59,3.57,29.58,11.26
			c7.99,7.69,12.38,18.02,12.38,29.1c0,2.02-0.15,4.05-0.45,6.03c-1.54,10.28,1.44,20.46,8.2,27.91
			c12.37,13.64,19.17,31.3,19.17,49.72c0,19.97-7.82,38.69-22.05,52.72C188.04,267.45,169.6,275,150.01,275z M156.77,87.31
			c-0.39,0-0.79,0.01-1.18,0.03c-15.81,0.6-28.45,13.48-28.78,29.31v0.37c-0.1,13.36-6.19,25.86-16.7,34.33
			c-15.11,12.17-23.77,30.26-23.76,49.65c0.01,34.61,28.18,63.14,62.78,63.6c0.3,0,0.58,0,0.88,0c16.85,0,32.69-6.49,44.7-18.35
			c12.22-12.05,18.95-28.15,18.95-45.31c0-15.83-5.85-31.01-16.47-42.74c-8.86-9.77-12.79-23.05-10.78-36.44
			c0.22-1.47,0.33-2.98,0.33-4.48c0-8.21-3.27-15.89-9.19-21.59C171.89,90.26,164.56,87.31,156.77,87.31z"/>
	</g>
</g>
</svg>
