<?xml version="1.0" encoding="utf-8"?>
<!-- Generator: Adobe Illustrator 26.3.1, SVG Export Plug-In . SVG Version: 6.00 Build 0)  -->
<svg version="1.1" id="Capa_1" xmlns="http://www.w3.org/2000/svg" xmlns:xlink="http://www.w3.org/1999/xlink" x="0px" y="0px"
	 viewBox="0 0 300 300" width="300" heigh="300" style="enable-background:new 0 0 300 300;" xml:space="preserve">
<style type="text/css">
	.st0{fill:#DEAA5F;}
	.st1{fill:#020203;}
</style>
<g>
	<g>
		<g>
			<path class="st0" d="M69.6,169.14c-17.83,0-33.8-9.04-40.82-23.94c-8.77-18.63-1.95-40.06,17.01-53.35
				c7.66-5.38,11.54-10.12,13.84-16.92c11.89-35.43,34.61-36.85,47.11-34.53c22.66,4.21,36.19,22.81,36.19,49.76l0,0
				c0,36.17-28.19,71.13-62.85,77.96C76.53,168.81,73.03,169.14,69.6,169.14z M98.85,54.98c-6.84,0-17.47,3.41-24.67,24.85
				c-4.21,12.56-12.27,19.49-19.58,24.63c-12.8,8.97-17.47,22.39-11.91,34.19c5.29,11.21,19.75,17.25,34.39,14.37
				c27.35-5.38,50.45-34.17,50.45-62.87c0-13.8-4.1-31.03-23.61-34.64C102.73,55.29,100.98,54.98,98.85,54.98z"/>
		</g>
		<g>
			<path class="st1" d="M43.84,95.73c-4.56,3.5-2.57,10.83,3.17,11.27c5.27,0.42,12.82-1.62,23.3-9.7c0,0,20.11-16.08,1.84-31.23
				c-3.34-2.77-8.53-1.11-9.68,3.08C60.54,76.24,55.71,86.65,43.84,95.73z"/>
		</g>
	</g>
	<g>
		<g>
			<path class="st0" d="M224.53,170.54c-17.07,5.16-34.97,1.13-46-11.12c-13.8-15.3-13.44-37.8,0.86-55.99
				c5.78-7.35,8.13-13.02,8.35-20.2c1.15-37.36,22.5-45.27,35.12-46.66c22.9-2.52,41.24,11.36,49.03,37.18l0,0
				c10.45,34.61-6.42,76.25-37.63,92.79C231.07,168.21,227.81,169.54,224.53,170.54z M219.53,52.77
				c-6.56,1.97-15.75,8.3-16.43,30.92c-0.4,13.24-6.11,22.21-11.63,29.23c-9.66,12.29-10.25,26.49-1.53,36.19
				c8.3,9.21,23.9,10.81,37.1,3.83c24.63-13.04,38.4-47.28,30.12-74.77c-3.99-13.22-12.89-28.52-32.62-26.33
				C223.34,51.97,221.56,52.17,219.53,52.77z"/>
		</g>
		<g>
			<path class="st1" d="M178.67,107.69c-3.37,4.67,0.66,11.1,6.29,9.88c5.16-1.13,11.8-5.25,19.51-16.03c0,0,14.62-21.19-7.26-30.43
				c-4.01-1.68-8.48,1.4-8.37,5.74C189.01,84.21,187.39,95.57,178.67,107.69z"/>
		</g>
	</g>
	<g>
		<g>
			<path class="st0" d="M138.69,262.14c-12.29,3.72-25.18,0.8-33.11-8.02c-9.92-11.03-9.68-27.22,0.62-40.31
				c4.16-5.29,5.85-9.39,6.02-14.55c0.82-26.91,16.19-32.6,25.29-33.62c16.5-1.82,29.7,8.19,35.3,26.77l0,0
				c7.53,24.94-4.63,54.9-27.11,66.82C143.41,260.48,141.06,261.43,138.69,262.14z M135.11,177.34
				c-4.72,1.42-11.34,5.98-11.83,22.26c-0.29,9.55-4.41,15.99-8.37,21.06c-6.95,8.84-7.4,19.07-1.09,26.07
				c5.98,6.62,17.21,7.8,26.71,2.75c17.74-9.39,27.66-34.06,21.68-53.84c-2.88-9.52-9.28-20.53-23.5-18.98
				C137.83,176.76,136.57,176.9,135.11,177.34z"/>
		</g>
		<g>
			<path class="st1" d="M105.67,216.89c-2.41,3.37,0.49,7.99,4.52,7.11c3.72-0.8,8.5-3.79,14.04-11.54c0,0,10.52-15.26-5.23-21.92
				c-2.88-1.22-6.11,1-6.02,4.14C113.11,199.99,111.96,208.17,105.67,216.89z"/>
		</g>
	</g>
</g>
</svg>
