<?xml version="1.0" encoding="utf-8"?>
<!-- Generator: Adobe Illustrator 26.3.1, SVG Export Plug-In . SVG Version: 6.00 Build 0)  -->
<svg version="1.1" id="Capa_1" xmlns="http://www.w3.org/2000/svg" xmlns:xlink="http://www.w3.org/1999/xlink" x="0px" y="0px"
	 viewBox="0 0 300 300" width="300" heigh="300" style="enable-background:new 0 0 300 300;" xml:space="preserve">
<style type="text/css">
	.st0{fill:#A1D5D3;}
</style>
<g>
	<g>
		<path class="st0" d="M133.27,275c-12.18,0-24.44-2.22-36.28-6.71c-33.59-12.79-57.44-41.65-63.8-77.21
			c-3.45-19.27-5.34-39.76-6.11-66.47c-0.18-6.22,3.07-10.75,9.64-13.46c8.55-3.51,17.47-4.83,25.86-5.86
			c21.08-2.63,43.14-3.81,73.76-3.97h0.16l3.45,0.08c23.1,0.53,49.28,1.1,75.17,5.68c5.84,1.03,10.87,2.48,15.37,4.43
			c6.12,2.66,9.29,7.65,8.9,14.05c-0.21,3.5-0.36,7.09-0.51,10.56c-0.1,2.59-0.21,5.25-0.36,7.91
			c13.08,2.22,24.28,10.42,30.12,22.16c6.04,12.16,5.66,26.02-1.08,38.05c-14.76,26.35-37.68,42.32-68.15,47.44
			c-1.64,0.28-2.43,0.69-3.15,1.26C177.81,267.48,155.7,275,133.27,275z M136.33,113.56c-30.06,0.16-51.66,1.31-72.22,3.87
			c-7.57,0.94-15.56,2.1-22.7,5.04c-2.07,0.85-2.07,1.18-2.05,1.76c0.76,26.07,2.58,46.02,5.93,64.67
			c5.6,31.29,26.56,56.67,56.08,67.92c29.6,11.28,62.27,6.22,87.35-13.51c2.48-1.95,5.24-3.14,8.7-3.71
			c26.63-4.48,46.64-18.39,59.49-41.35c4.73-8.44,5.01-18.12,0.8-26.6c-4.28-8.62-12.35-14.33-22.11-15.68
			c-6.29-0.87-9.69-5.02-9.34-11.39c0.16-2.97,0.3-6.03,0.41-8.98c0.15-3.53,0.3-7.19,0.53-10.82c0.07-0.98,0.08-1.35-1.54-2.05
			c-3.61-1.56-7.73-2.74-12.62-3.61c-24.97-4.42-50.66-4.99-73.32-5.5L136.33,113.56z M238.49,145.77L238.49,145.77L238.49,145.77z"
			/>
	</g>
	<g>
		<path class="st0" d="M228.08,219.74c-2,0-3.99-0.62-5.71-1.9c-3.51-2.58-4.84-7.06-3.28-11.13l0,0
			c4.48-11.79,6.44-23.95,7.98-38.58c0.53-4.99,3.35-7.29,8.39-6.83c5.99,0.56,11.54,3.89,15.22,9.14
			c4.05,5.8,5.35,13.02,3.56,19.82c-1.36,5.19-3.96,10.18-7.95,15.27c-3.33,4.25-7.45,8.32-12.25,12.12
			C232.3,219.04,230.2,219.74,228.08,219.74z M233.81,167.83c-0.05,0.18-0.11,0.49-0.16,0.98c-1.61,15.15-3.64,27.78-8.37,40.24l0,0
			c-0.76,1.97,0.59,3.15,1.02,3.46c0.44,0.33,2,1.28,3.69-0.07c4.32-3.41,8.18-7.21,11.13-11c3.41-4.37,5.63-8.59,6.76-12.89
			c1.3-4.93,0.34-10.15-2.59-14.35c-2.56-3.66-6.37-5.98-10.42-6.35C234.34,167.81,234.01,167.81,233.81,167.83z"/>
	</g>
	<g>
		<path class="st0" d="M138.84,71.35c0.28-6.21,2.99-11.15,7.99-14.76c2.68-1.92,5.57-3.53,8.31-5.37c7.09-4.73,8.72-8.88,5.8-16.84
			c-1.3-3.53-0.41-4.94,2.77-6.44c9.67-4.56,10.08-4.5,12.58,5.89c2.56,10.64-0.21,19.57-8.91,26.38c-3.09,2.41-6.44,4.48-9.65,6.73
			c-4.15,2.92-4.84,5.63-2.41,10.01c0.99,1.77,1.99,3.64,3.41,5.06c3.18,3.17,1.82,5.15-1.1,7.47c-7.81,6.24-7.78,6.34-13.25-2.36
			C141.32,82.32,138.89,77.24,138.84,71.35z"/>
	</g>
	<g>
		<path class="st0" d="M98.68,72.78c0.07-7.16,2.41-11.97,7.04-15.5c2.99-2.27,6.29-4.12,9.41-6.22c6.73-4.53,8.47-8.37,5.75-15.94
			c-1.59-4.42-0.25-6.06,3.56-7.72c8.64-3.76,8.7-3.86,11.23,5.22c3.28,11.72,0.28,20.88-9.37,28.24c-2.99,2.27-6.19,4.27-9.31,6.35
			c-3.61,2.43-4.38,5.52-2.18,9.29c0.79,1.35,1.59,2.71,2.5,3.99c4.01,5.7,4.02,5.7-1.4,10.13c-6.01,4.91-6.07,4.96-10.41-1.43
			C101.84,83.86,98.42,78.38,98.68,72.78z"/>
	</g>
</g>
</svg>
