<?xml version="1.0" encoding="utf-8"?>
<!-- Generator: Adobe Illustrator 26.3.1, SVG Export Plug-In . SVG Version: 6.00 Build 0)  -->
<svg version="1.1" id="Capa_1" xmlns="http://www.w3.org/2000/svg" xmlns:xlink="http://www.w3.org/1999/xlink" x="0px" y="0px"
	 viewBox="0 0 300 300" width="300" heigh="300" style="enable-background:new 0 0 300 300;" xml:space="preserve">
<style type="text/css">
	.st0{fill:#7DB3E1;}
</style>
<g>
	<g>
		<g>
			<path class="st0" d="M149.9,213.7c-19.7,0-39.4,0-59.1,0c-7.1,0-7.5-0.6-7.2-7.4c1.1-27.5,21.9-52.6,49.7-60
				c37.6-9.9,77.5,15.9,82.6,55.6c0,0.3,0.1,0.6,0.1,0.9c1.1,10.4,0.5,10.9-9.8,10.9C187.5,213.7,168.7,213.7,149.9,213.7z"/>
		</g>
	</g>
	<g>
		<g>
			<path class="st0" d="M153.2,111.1c0,6.5,0,13.1,0,19.7c0,2.5-0.2,5.2-3.3,5.2c-3.3,0.1-3.1-2.9-3.2-5.2c-0.1-13.1,0-26.2,0-39.3
				c0-2.4,0.1-5.1,3.4-5.2c3.4-0.1,3.1,2.8,3.1,5.2C153.3,97.9,153.2,104.5,153.2,111.1z"/>
		</g>
	</g>
	<g>
		<g>
			<path class="st0" d="M258.2,150.1c-0.2,1.7-1.4,2.7-2.9,3.5c-11.3,6.6-22.7,13.2-34,19.8c-0.4,0.2-0.8,0.4-1.3,0.6
				c-1.9,0.7-4.1,1.5-5.2-1c-1-2.2,0.5-3.5,2.2-4.6c3.4-2.2,6.9-4.3,10.4-6.3c8.2-4.7,16.5-9.5,24.9-14.1
				C255.6,146.2,258.4,147.4,258.2,150.1z"/>
		</g>
	</g>
	<g>
		<g>
			<path class="st0" d="M113.7,142.6c0,1.7-0.2,2.9-1.2,3.5c-1.3,0.8-2.5,0.3-3.4-0.7c-1.1-1.3-2.3-2.6-3.2-4.1
				c-6.2-10.8-12.4-21.7-18.5-32.5c-1.2-2.1-2.7-4.4,0.1-6.2c2.9-1.8,4.2,1.1,5.3,2.9c6.5,11,13.1,22.1,19.4,33.1
				C113.1,140.2,113.4,141.7,113.7,142.6z"/>
		</g>
	</g>
	<g>
		<g>
			<path class="st0" d="M45,147.1c0.7,0.3,2,0.6,3,1.2c11.5,6.5,23,13.1,34.5,19.7c1.9,1.1,4,2.6,2.2,5.2c-1.7,2.5-3.8,1.4-5.8,0.3
				c-10.7-6.1-21.4-12.2-32.1-18.4c-1.6-0.9-3.1-2.1-4.5-3.4c-0.8-0.8-1-1.9-0.6-3.1C42.4,147.7,43.3,147.2,45,147.1z"/>
		</g>
	</g>
	<g>
		<g>
			<path class="st0" d="M213.4,106.7c-0.3,0.8-0.7,2.1-1.4,3.3c-6.3,10.8-12.6,21.6-18.9,32.4c-0.6,1.1-1.4,2.1-2.2,2.9
				c-0.9,0.9-2.1,1.5-3.4,0.8c-1.3-0.8-1.5-2.1-1.1-3.3c0.7-2,1.6-4.1,2.6-6c5.4-9.7,10.9-19.3,16.5-28.9c0.8-1.5,1.9-2.8,3-4.2
				c0.8-1,1.9-1.7,3.3-1.2C213.3,103.1,213.4,104.6,213.4,106.7z"/>
		</g>
	</g>
	<g>
		<g>
			<path class="st0" d="M249.9,213.7c-6.9,0-13.7,0-20.6,0c-1.9,0-4.1-0.1-4.4-2.6c-0.3-2.7,2-3.4,4.1-3.6c2.6-0.1,5.2,0.4,7.9,0.3
				c10.6-0.2,21.2,0.7,31.9-0.6c0.6-0.1,1.3-0.1,1.9,0c2.1,0.3,4.3,0.8,4.4,3.4c0.1,2.9-2.3,3-4.4,3
				C263.7,213.7,256.9,213.7,249.9,213.7L249.9,213.7z"/>
		</g>
	</g>
	<g>
		<g>
			<path class="st0" d="M49.5,213.7c-6.7,0-13.4,0.1-20.1,0c-2,0-4.4-0.1-4.4-3c0.1-2.5,2.2-2.7,4.2-2.7c13.9,0,27.7,0,41.6,0
				c1.9,0,4.1,0.3,4.1,2.8c0,2.9-2.4,2.9-4.4,2.9C63.5,213.7,56.5,213.7,49.5,213.7z"/>
		</g>
	</g>
</g>
</svg>
