<?xml version="1.0" encoding="utf-8"?>
<!-- Generator: Adobe Illustrator 26.3.1, SVG Export Plug-In . SVG Version: 6.00 Build 0)  -->
<svg version="1.1" id="Capa_1" xmlns="http://www.w3.org/2000/svg" xmlns:xlink="http://www.w3.org/1999/xlink" x="0px" y="0px"
	 viewBox="0 0 300 300" width="300" heigh="300" style="enable-background:new 0 0 300 300;" xml:space="preserve">
<style type="text/css">
	.st0{fill:#0E306D;}
</style>
<g>
	<g>
		<path class="st0" d="M184.5,249.8C127.7,249.7,84,205.4,83.6,150c-0.1-26,8.8-48.9,26-67.4c26.4-28.3,59.6-37.9,97.6-29.9
			c3.3,0.7,8.3,1,8.8,4.6c0.4,3.2-4.5,4.1-7.3,5.5c-28.6,15.2-46.8,38.4-52,70.5c-6.3,39.1,7.6,73.3,40.1,96.6
			c4.7,3.4,9.5,7,15.2,8.8c1.9,0.6,4.5,1.5,4.2,4.1c-0.3,2.4-2.9,2.9-5,3.4C202.1,248.6,192.7,250.7,184.5,249.8z"/>
	</g>
</g>
</svg>
