<?xml version="1.0" encoding="utf-8"?>
<!-- Generator: Adobe Illustrator 26.3.1, SVG Export Plug-In . SVG Version: 6.00 Build 0)  -->
<svg version="1.1" id="Capa_1" xmlns="http://www.w3.org/2000/svg" xmlns:xlink="http://www.w3.org/1999/xlink" x="0px" y="0px"
	 viewBox="0 0 300 300" width="300" heigh="300" style="enable-background:new 0 0 300 300;" xml:space="preserve">
<style type="text/css">
	.st0{fill:#F39400;}
</style>
<g>
	<g>
		<g>
			<path class="st0" d="M149.7,216.4c-35.1,0.8-66.5-28.4-66.6-65.9c-0.2-36.2,27.7-67,66-67.2c38.1-0.2,66.3,27.9,67.2,65.4
				C217.1,190.2,183,217.4,149.7,216.4z"/>
		</g>
	</g>
	<g>
		<g>
			<path class="st0" d="M113.9,82.2c0,1.3-0.4,2.6-1.7,3.1c-1.5,0.6-2.8,0-3.8-1.1c-2.2-2.6-4-5.6-5.6-8.6
				c-4.9-8.9-10.1-17.6-15.1-26.4c-0.5-1-1.1-1.9-1.5-2.9c-0.5-1.7-0.4-3.6,1.2-4.7c1.9-1.3,3.3,0.3,4.2,1.7
				c3.4,5.4,6.8,10.8,9.8,16.5c3.3,6.4,7.6,12.2,11,18.5C113,79.6,113.9,80.7,113.9,82.2z"/>
		</g>
	</g>
	<g>
		<g>
			<path class="st0" d="M210.6,41.2c2.8-0.2,3.9,2.8,2.2,6.2c-2.2,4.1-4.5,8.2-6.8,12.2c-4.6,7.8-9.2,15.6-13.8,23.4
				c-1.1,2-2.8,3.2-4.9,2.1c-2.2-1.1-1.6-3.2-0.7-4.9c3.8-7,7.7-13.9,11.6-20.9c2.6-4.5,5.2-8.9,7.7-13.4
				C207.1,43.9,208.3,42,210.6,41.2z"/>
		</g>
	</g>
	<g>
		<g>
			<path class="st0" d="M249.9,146.8c6.7,0,13.4,0,20.1,0c2.2,0,4.8,0.3,5,3.1c0.2,3.1-2.5,3.3-4.6,3.4c-13.7,0.1-27.5,0.1-41.2,0
				c-2.2,0-4.8-0.5-4.6-3.5c0.2-2.6,2.6-2.9,4.6-2.9C236.1,146.8,242.9,146.8,249.9,146.8L249.9,146.8z"/>
		</g>
	</g>
	<g>
		<g>
			<path class="st0" d="M50.2,146.8c6.6,0,13.1-0.1,19.7,0c2.4,0,5.2,0.1,5.1,3.4c-0.1,2.9-2.8,3.1-5,3.1c-13.3,0-26.6,0.1-39.9,0
				c-2.3,0-5.2-0.1-5-3.4c0.1-3.1,2.8-2.9,4.9-3C36.7,146.7,43.4,146.8,50.2,146.8z"/>
		</g>
	</g>
	<g>
		<g>
			<path class="st0" d="M44.7,213.5c-1.3,0-2.5-0.4-3.1-1.6c-0.6-1.4-0.1-2.5,1-3.3c3-2,5.9-4.1,9-5.9c8.5-4.9,17-9.9,25.6-14.6
				c2.2-1.3,5.3-4.6,7.7-0.7c2.2,3.7-1.7,4.9-4.1,6.4c-10.6,6-21.2,12-31.7,18.1C47.6,212.6,46.3,213.5,44.7,213.5z"/>
		</g>
	</g>
	<g>
		<g>
			<path class="st0" d="M113.9,218.3c-0.3,0.7-0.6,1.7-1.1,2.6c-6.2,10.7-12.2,21.4-18.6,32c-1.4,2.4-2.7,7-6.5,5s-0.7-5.6,0.8-8.1
				c5.9-10.4,12-20.9,18-31.2c0.7-1.2,1.7-2.2,2.7-3.1c1-0.9,2.2-1.1,3.4-0.3C113.6,215.7,113.9,216.8,113.9,218.3z"/>
		</g>
	</g>
	<g>
		<g>
			<path class="st0" d="M85.3,111.2c-0.8,2.9-2.8,3.2-4.8,2.2c-3-1.3-5.8-3-8.7-4.7c-9.3-5.4-18.7-10.8-27.9-16.3
				c-1.7-1.1-3.8-2.4-2.2-4.8c1.5-2.6,3.8-1.7,5.8-0.4C59,93.8,70.5,100.4,82,107.1C83.5,108,85,109.3,85.3,111.2z"/>
		</g>
	</g>
	<g>
		<g>
			<path class="st0" d="M258.4,211c-0.8,2.9-3.1,2.9-5.2,1.9c-3.8-1.7-7.6-3.7-11.3-5.8c-8-4.6-15.9-9.3-23.9-14
				c-0.5-0.3-1.1-0.6-1.6-1c-1.6-1.3-3.4-2.7-1.9-5c1.4-2.2,3.4-1.6,5.3-0.5c4.2,2.4,8.5,4.7,12.6,7.1c7.5,4.4,15,8.9,22.5,13.4
				C256.5,208.1,258.1,209,258.4,211z"/>
		</g>
	</g>
	<g>
		<g>
			<path class="st0" d="M258.3,89.1c-0.1,1.6-1.3,2.5-2.5,3.2c-11.5,6.7-23,13.4-34.4,20.1c-0.8,0.4-1.6,0.8-2.6,1.1
				c-1.6,0.5-3.1,0.6-4.2-1c-1.1-1.7,0-3,1.2-4.1c1.4-1.1,2.7-2.2,4.2-3c10.9-6.2,21.8-12.4,32.6-18.5
				C255.7,85.3,258.5,86.5,258.3,89.1z"/>
		</g>
	</g>
	<g>
		<g>
			<path class="st0" d="M188.1,214.6c2.2,0.1,3.4,1.3,4.3,2.8c6.8,11.6,13.6,23.1,20.3,34.7c1.1,1.9,1.9,4.3-0.5,5.8
				c-2.5,1.5-4.1-0.5-5.2-2.4c-6.4-11.2-12.8-22.4-19.2-33.7c-0.7-1.2-1.2-2.6-1.6-3.9C185.5,216,186.4,214.9,188.1,214.6z"/>
		</g>
	</g>
	<g>
		<g>
			<path class="st0" d="M146.9,249.5c0-6.4-0.1-12.8,0-19.2c0-2.2-0.4-5.5,2.8-5.6c3.2-0.1,2.9,3.1,2.9,5.4c0.1,9.5,0.1,19.1,0,28.6
				c-0.1,3.8,1.4,7.4,0.5,11.2c-0.4,2.2-0.8,5.3-3.8,5c-2.9-0.4-2.8-3.4-2.8-5.7c-0.1-6.5,0-13.1,0-19.7
				C146.7,249.5,146.7,249.5,146.9,249.5z"/>
		</g>
	</g>
	<g>
		<g>
			<path class="st0" d="M146.6,50c0-6.8,0-13.4,0-20.2c0-2.2,0-4.4,2.7-4.6c2.7-0.2,3.3,2,3.3,4.1c0,14,0,27.9,0,41.8
				c0,1.9-0.4,4.1-3,4c-2.6-0.2-3.1-2.1-3.1-4.3C146.6,63.7,146.6,56.8,146.6,50L146.6,50z"/>
		</g>
	</g>
	<g>
		<g>
			<path class="st0" d="M132.7,74c0.1,1.7-0.4,3.2-2.2,3.7c-1.6,0.4-2.8-0.4-3.4-1.8c-2.4-6.1-4.3-12.4-5.3-18.8
				c-0.3-1.6,0.1-3.2,1.9-3.8c2-0.6,3.4,0.5,4.1,2.2C129.9,61.5,131.4,67.7,132.7,74z"/>
		</g>
	</g>
	<g>
		<g>
			<path class="st0" d="M177.8,242.3c-0.1,2.6-0.4,4.1-2.2,4.6s-3.1-0.6-3.6-2.2c-1.8-6.1-3.4-12.2-5-18.4c-0.4-1.7,0.1-3.5,2.2-4.1
				c1.8-0.4,3.2,0.4,3.7,2.1C174.6,230.6,176.3,236.9,177.8,242.3z"/>
		</g>
	</g>
	<g>
		<g>
			<path class="st0" d="M221.6,81.3c-0.1,1.3-0.8,2.4-1.6,3.2c-3.8,3.9-7.6,7.7-11.6,11.6c-1.6,1.7-3.8,2.7-5.8,0.7
				c-1.9-1.9-0.4-3.8,1.1-5.2c3.9-4,8-7.9,11.9-11.9c1.2-1.1,2.6-1.7,4.3-1C220.9,79.3,221.6,80.1,221.6,81.3z"/>
		</g>
	</g>
	<g>
		<g>
			<path class="st0" d="M72.5,132.6c-5.1-1.4-11-3-16.9-4.8c-1.8-0.5-2.9-1.9-2.4-4c0.5-2.1,2.3-2.6,4-2.2
				c5.9,1.4,11.8,3.1,17.6,4.8c1.7,0.5,3,2,2.6,4C76.9,132.4,75.1,132.6,72.5,132.6z"/>
		</g>
	</g>
	<g>
		<g>
			<path class="st0" d="M81.1,78.4c1.3,0,2.4,0.7,3.3,1.6c4,4,8,7.9,11.9,11.9c1.4,1.4,2.5,3.2,0.8,4.9c-1.6,1.7-3.7,1-5-0.3
				c-4.3-4.1-8.6-8.3-12.7-12.5c-1.1-1.1-1.3-2.8-0.6-4.3C79.2,78.7,80,78.4,81.1,78.4z"/>
		</g>
	</g>
	<g>
		<g>
			<path class="st0" d="M226.8,132.7c-2.5-0.1-4.5,0.1-5-2.1c-0.5-2.1,1.1-3.3,2.8-3.8c5.9-1.8,11.7-3.4,17.6-4.9
				c1.9-0.5,3.4,0.4,4,2.3c0.5,1.8-0.3,3.2-2,3.7C238.1,129.6,232.1,131.3,226.8,132.7z"/>
		</g>
	</g>
	<g>
		<g>
			<path class="st0" d="M221.2,218.8c-0.5,3.1-2.6,3.6-4.7,2c-5.2-4.1-9.8-8.7-13.9-13.9c-0.8-1-1.1-2.3-0.2-3.5
				c1-1.3,2.6-1.7,3.8-0.9c5.6,4.2,10.7,9.1,14.8,14.8C221.1,217.7,221,218.2,221.2,218.8z"/>
		</g>
	</g>
	<g>
		<g>
			<path class="st0" d="M132.4,225.5c-1.1,6.5-3,12.9-5.2,19.3c-0.5,1.4-1.6,2.4-3.2,2.2c-1.7-0.3-2.4-1.6-2.3-3.1
				c0.4-7.4,3.3-14.3,6-21c0.4-1.1,1.6-1.6,2.8-1C132,222.5,132.3,223.9,132.4,225.5z"/>
		</g>
	</g>
	<g>
		<g>
			<path class="st0" d="M177.8,57.7c-1.4,5.2-2.9,11.3-4.6,17.3c-0.5,1.7-1.8,3.2-3.8,2.6c-2.2-0.6-2.9-2.5-2.2-4.4
				c1.5-5.8,3.1-11.7,4.9-17.5c0.5-1.7,1.7-3.1,3.8-2.5C177.7,53.7,177.8,55.3,177.8,57.7z"/>
		</g>
	</g>
	<g>
		<g>
			<path class="st0" d="M81.1,221.5c-2.7-0.4-4.3-2.1-2.5-4.5c4.1-5.2,9.1-9.8,14-14.3c1.1-1,2.6-1,3.9-0.1c1.2,0.9,1.6,2.2,0.8,3.3
				c-4.3,5.8-9.5,10.5-14.9,15.2C82.2,221.4,81.6,221.3,81.1,221.5z"/>
		</g>
	</g>
	<g>
		<g>
			<path class="st0" d="M227.9,167.4c5.1,1.5,10.6,3.1,16.1,4.8c1.6,0.5,2.6,1.8,2.2,3.6c-0.5,1.9-1.9,2.9-3.9,2.4
				c-5.9-1.5-11.7-3.1-17.6-4.9c-1.6-0.4-2.8-1.7-2.3-3.5C223.1,167.1,225.5,167.5,227.9,167.4z"/>
		</g>
	</g>
	<g>
		<g>
			<path class="st0" d="M58.1,177.7c-2.5,0-4.5-0.1-5-2.6c-0.4-2.4,1.2-3.3,3.2-3.8c5.2-1.4,10.3-2.6,15.5-4
				c2.1-0.5,4.3-0.8,5.1,1.8c0.9,3-1.4,3.8-3.6,4.4C68.2,175,62.8,176.4,58.1,177.7z"/>
		</g>
	</g>
</g>
</svg>
