<?xml version="1.0" encoding="utf-8"?>
<!-- Generator: Adobe Illustrator 26.3.1, SVG Export Plug-In . SVG Version: 6.00 Build 0)  -->
<svg version="1.1" id="Capa_1" xmlns="http://www.w3.org/2000/svg" xmlns:xlink="http://www.w3.org/1999/xlink" x="0px" y="0px"
	 viewBox="0 0 300 300" width="300" heigh="300" style="enable-background:new 0 0 300 300;" xml:space="preserve">
<style type="text/css">
	.st0{fill:#217331;}
	.st1{fill:#249A38;}
	.st2{fill:#BC742D;}
	.st3{fill:#B0672B;}
</style>
<g>
	<g>
		<path class="st0" d="M197.1,275c-30.15,0-48.69-10.03-59.26-19.03c-13.08-11.15-17.14-23.05-17.3-23.56l6.77-2.26
			c0.04,0.11,3.74,10.8,15.48,20.64c15.58,13.07,38.27,18.8,65.65,16.57c16.22-1.32,29.07-7.85,38.14-19.39
			c26.8-34.09,15.85-103.35,12.24-126.11c-3.69-23.28-27.91-27.53-38.14-28.27l0.52-7.12c25.24,1.82,41.52,14.32,44.68,34.27
			c3.72,23.52,15.05,95.1-13.67,131.65c-10.36,13.17-24.88,20.61-43.18,22.1C204.87,274.85,200.89,275,197.1,275z"/>
	</g>
	<g>
		<path class="st1" d="M188.42,263.31c-5.57,0-30.63-1.28-60.09-22.66c-6.49-4.71-10.38-11.13-11.54-19.07
			c-3.2-21.79,15.5-50.17,26.94-65.15c4.7-6.16,9.42-12.51,14.05-18.9l0,0c7.64-10.55,19.31-25.44,31.5-36.49
			c15.75-14.28,28.97-18.94,39.28-13.87c7.29,3.59,12.54,6.91,13.57,17.12c0.84,8.18-0.88,20.89-4.32,46.2
			c-1.32,9.72-2.8,20.73-4.52,34.06c-4.23,33.18-12.52,56.41-24.62,69.03c-9.04,9.45-17.33,9.8-19.45,9.7
			C189.05,263.29,188.79,263.31,188.42,263.31z M219.76,94.89c-12.05,0-31.68,17.42-54.09,48.32l0,0
			c-4.68,6.46-9.45,12.89-14.21,19.1c-8.46,11.08-27.82,38.9-25.04,57.84c0.79,5.33,3.28,9.45,7.63,12.61
			c29.98,21.76,54.74,20.8,55,20.8l0.5-0.03l0.17,0.03c1.5-0.03,25.17-1.61,33.94-70.25c1.71-13.38,3.2-24.41,4.53-34.15
			c3.23-23.78,5.01-36.88,4.28-43.91c-0.52-5.12-2.02-6.34-8.19-9.38C222.92,95.21,221.42,94.89,219.76,94.89z"/>
	</g>
	<g>
		<circle class="st2" cx="171.53" cy="166.28" r="36.77"/>
	</g>
	<g>
		<path class="st3" d="M76.11,191.54c-2.17,0-4.38-0.14-6.6-0.43c-4.95-0.65-9.55-2.02-13.66-4.09l0,0
			c-15.34-7.71-24.32-20.21-26.67-37.16c-1.04-7.45-0.1-14.82,2.86-22.55c3.07-8.03,8.36-14.95,16.64-21.75
			c9.07-7.47,13.69-17.32,13.69-29.27c0-5.81,0.28-12.02,2.24-18.06c3.8-11.69,10.87-20.61,20.99-26.52
			c10.81-6.3,22.17-8.18,33.77-5.57c15.78,3.55,27.06,12.79,33.53,27.47c4.82,10.92,5.31,22.31,1.49,33.84
			c-2.94,8.85-8.13,16.21-15.42,21.89c-6.11,4.77-10.32,9.97-12.86,15.9c-2.13,4.99-3.07,10.7-2.85,17.43
			c0.24,7.59-1.19,14.81-4.29,21.43c-3.6,7.71-8.86,14.02-15.64,18.73C95,188.62,85.87,191.54,76.11,191.54z M109.36,31.51
			c-6.98,0-13.84,1.95-20.49,5.82c-8.83,5.15-14.75,12.63-18.09,22.91c-1.6,4.91-1.92,9.97-1.92,16.06
			c-0.01,13.98-5.41,25.52-16.06,34.29c-7.38,6.07-12.05,12.13-14.71,19.06c-2.55,6.67-3.37,13-2.48,19.34
			c2.08,14.91,9.65,25.47,23.17,32.25l0,0c3.46,1.74,7.36,2.9,11.58,3.45c10.62,1.37,20.46-1.04,29.27-7.15
			c5.82-4.05,10.35-9.48,13.46-16.15c2.65-5.69,3.9-11.92,3.69-18.48c-0.25-7.7,0.86-14.3,3.37-20.19
			c2.99-6.97,7.84-13.01,14.84-18.47c6.27-4.88,10.73-11.22,13.25-18.82c3.31-9.96,2.89-19.77-1.26-29.17
			c-5.6-12.69-15.35-20.68-29.01-23.75C115.07,31.83,112.2,31.51,109.36,31.51z"/>
	</g>
	<g>
		<path class="st2" d="M58.47,136.62c-1.85,3.6-3.24,7.88-4.28,12.28c-0.28,1.22-0.03,2.03,0.88,2.87
			c8.27,7.67,18.03,12.13,29.21,13.52c1.01,0.13,1.6-0.25,2.17-1.02c4.38-5.83,7.52-12.31,9.98-19.14c0.49-1.36-0.38-1.49-1.23-1.67
			c-3.94-0.86-7.75-2.12-11.48-3.63c-1.08-0.43-1.57-0.13-2.02,0.84c-0.69,1.47-1.39,2.96-2.24,4.33c-1.04,1.67-2.76,2.19-4.36,1.51
			c-1.65-0.7-2.37-2.38-1.88-4.35c0.41-1.65,1.35-3.09,2.02-4.63c0.34-0.79,0.48-1.4-0.49-1.88c-3.77-1.85-7.28-4.12-10.56-6.73
			c-0.77-0.6-1.32-0.72-1.94,0.31C60.93,131.49,59.78,133.82,58.47,136.62z"/>
	</g>
	<g>
		<path class="st2" d="M102.55,79.02L102.55,79.02c3.56-7.64,7.1-15.28,10.7-22.9c0.59-1.25,0.35-1.92-0.94-2.31
			c-3.49-1.07-7.01-1.94-10.64-2.36c-1.18-0.14-1.89,0.28-2.59,1.21c-4.38,5.72-7.39,12.13-9.84,18.85
			c-0.35,0.95-0.15,1.4,0.84,1.63c1.7,0.38,3.39,0.76,5.05,1.29c2.29,0.73,3.34,2.64,2.71,4.64c-0.56,1.77-2.5,2.65-4.71,2.1
			c-1.37-0.34-2.76-0.6-4.09-1.05c-1.46-0.48-2.03-0.03-2.24,1.47c-0.81,5.61-2.24,11.06-4.43,16.31c-0.42,1-0.07,1.51,0.81,1.92
			c2.02,0.94,4.07,1.84,6.03,2.89c1.47,0.79,2.17,0.42,2.85-1.05C95.49,94.08,99.04,86.56,102.55,79.02z"/>
	</g>
	<g>
		<path class="st2" d="M109.1,82.01h0.01c-3.52,7.53-7.04,15.06-10.55,22.6c-0.88,1.91-0.86,2.01,1.08,2.93
			c1.81,0.87,3.67,1.64,5.47,2.55c1.25,0.63,2.02,0.34,2.64-0.86c2.61-4.98,5.88-9.51,9.62-13.69c0.88-1,0.86-1.57-0.22-2.29
			c-1.53-1.02-3.06-2.06-4.49-3.23c-1.43-1.16-1.77-3.21-0.91-4.54c0.94-1.46,2.89-1.99,4.61-1.22c0.55,0.24,1.05,0.56,1.54,0.9
			c1.25,0.87,2.5,1.74,3.72,2.65c0.69,0.52,1.19,0.59,1.7-0.28c3.69-6.31,6.65-12.93,8.32-20.08c0.25-1.07-0.04-1.74-0.8-2.44
			c-2.58-2.34-5.29-4.5-8.23-6.37c-1.79-1.14-2.1-1.07-3.03,0.9C116.07,67.04,112.59,74.53,109.1,82.01z"/>
	</g>
	<g>
		<path class="st2" d="M83.55,107.96c0,0.01-0.01,0.01-0.01,0.03c-0.88-0.42-1.77-0.83-2.66-1.25c-2.13-1-2.13-0.98-3.17,1.04
			c-0.32,0.63-0.69,1.23-1.05,1.84c-2.41,4.08-5.23,7.87-8.33,11.44c-0.5,0.57-1.25,1.15-0.17,1.99c2.94,2.33,6.1,4.33,9.41,6.11
			c0.84,0.45,1.42,0.31,1.82-0.59c2.69-5.76,5.38-11.53,8.09-17.28c0.41-0.87,0.17-1.44-0.69-1.82
			C85.71,108.98,84.63,108.47,83.55,107.96z"/>
	</g>
	<g>
		<path class="st2" d="M89.96,123.06c-0.01,0-0.01-0.01-0.03-0.01c-1.29,2.76-2.54,5.54-3.88,8.27c-0.56,1.14-0.38,1.79,0.86,2.23
			c3.39,1.16,6.76,2.37,10.28,3.11c1.12,0.24,1.4-0.11,1.57-1.14c0.88-5.65,2.2-11.19,4.42-16.49c0.46-1.12,0.21-1.84-0.93-2.34
			c-2.09-0.93-4.15-1.89-6.21-2.9c-1.07-0.52-1.68-0.24-2.17,0.83C92.61,117.45,91.27,120.26,89.96,123.06z"/>
	</g>
	<g>
		<path class="st2" d="M52.71,159.33c0.17,6.1,0.67,11.61,4.63,16.13c1.98,2.26,4.54,3.34,7.53,3.23c5.44-0.2,9.77-2.93,13.85-6.23
			c0.73-0.59,0.39-0.87-0.34-1.01c-0.42-0.08-0.86-0.17-1.28-0.27c-5.54-1.25-10.78-3.23-15.75-6.03
			C58.49,163.53,55.87,161.53,52.71,159.33z"/>
	</g>
	<g>
		<path class="st2" d="M94.82,164.99c5.71-0.83,10.83-2.8,15.05-6.77c0.34-0.32,0.63-0.76,0.8-1.21c1.5-3.83,2.22-7.81,2.2-11.93
			c0-0.87-0.28-0.94-1.04-0.8c-2.09,0.39-4.21,0.6-6.32,0.43c-1.21-0.1-1.77,0.39-2.09,1.51c-1.74,5.92-4.46,11.4-7.54,16.73
			C95.51,163.58,94.79,164.02,94.82,164.99z"/>
	</g>
	<g>
		<path class="st2" d="M91.19,51.6c-3.87,0.56-7.18,1.42-10.21,3.11c-2.17,1.22-4.74,2.24-5.78,4.59c-1.67,3.73-2.4,7.77-2.45,11.89
			c-0.01,0.93,0.31,1.29,1.28,1.08c2.09-0.45,4.21-0.52,6.32-0.41c1.08,0.06,1.61-0.38,1.85-1.37c0.87-3.51,2.5-6.7,3.97-9.98
			C87.56,57.52,89.11,54.62,91.19,51.6z"/>
	</g>
	<g>
		<path class="st2" d="M48.25,143.37c0.8-2.23,1.37-4.26,2.24-6.18c1.99-4.4,3.81-8.9,6.65-12.86c0.53-0.74,0.43-1.35-0.18-2.02
			c-1.4-1.53-2.73-3.11-3.67-4.96c-0.63-1.25-1.23-1.08-2.09-0.31c-2.34,2.13-4.28,4.6-6.07,7.21c-1.04,1.49-1.65,2.99-1.57,4.82
			C43.78,134.17,45.32,138.84,48.25,143.37z"/>
	</g>
	<g>
		<path class="st2" d="M137.46,73.37c-0.21,0.31-0.32,0.43-0.38,0.57c-1.99,6.59-4.91,12.76-8.65,18.54
			c-0.52,0.81-0.25,1.39,0.34,2.01c1.37,1.47,2.61,3.07,3.59,4.84c0.66,1.18,1.19,1.12,2.09,0.31c2.68-2.43,4.95-5.17,6.83-8.26
			c0.36-0.59,0.7-1.22,0.74-1.96C142.33,83.62,140.61,78.4,137.46,73.37z"/>
	</g>
	<g>
		<path class="st2" d="M72.47,94.84c0.35,0.15,0.69,0.32,1.04,0.48c1.82,0.83,1.99,0.77,2.72-1.09c0.34-0.86,0.59-1.75,0.9-2.62
			c1.29-3.65,2.1-7.4,2.73-11.2c0.17-1.07-0.07-1.53-1.21-1.47c-1.63,0.08-3.25,0.15-4.82,0.62c-0.83,0.25-1.22,0.67-1.28,1.6
			c-0.21,3.27-0.97,6.42-1.92,9.55C69.73,93.56,69.75,93.56,72.47,94.84z"/>
	</g>
	<g>
		<path class="st2" d="M69.51,101.44c-0.29-0.14-0.6-0.25-0.88-0.42c-1.35-0.86-2.22-0.7-3.1,0.83c-1.42,2.5-3.14,4.81-5.13,6.9
			c-2.58,2.72-2.61,2.94-0.34,6.06c0.32,0.43,0.69,0.84,0.98,1.3c0.73,1.15,1.29,1.07,2.19,0.04c2.83-3.24,5.24-6.76,7.47-10.43
			C72.48,102.81,72.55,102.87,69.51,101.44z"/>
	</g>
	<g>
		<path class="st2" d="M113.06,121.77c0-0.01,0.01-0.03,0.01-0.04c-0.2-0.1-0.39-0.18-0.59-0.28c-2.23-1.04-2.31-1.08-3.17,1.19
			c-1.7,4.47-2.8,9.11-3.6,13.84c-0.17,1.01,0.25,1.23,1.15,1.21c1.53-0.06,3.03-0.22,4.53-0.5c1.12-0.21,1.61-0.8,1.72-1.96
			c0.34-3.63,0.9-7.22,2.23-10.64c0.36-0.95,0.24-1.7-0.81-2.12C114.05,122.25,113.56,122,113.06,121.77z"/>
	</g>
	<g>
		<path class="st2" d="M116.19,115.27c1.14,0.25,2.44,1.89,3.6-0.24c1.28-2.36,3-4.39,4.74-6.39c3.35-3.84,3.35-4.02,0.06-8.12
			c-0.07-0.08-0.14-0.17-0.2-0.25c-0.56-0.84-1.07-0.88-1.77-0.07c-2.94,3.42-5.58,7.07-7.91,10.94
			C113.11,113.85,113.18,113.89,116.19,115.27z"/>
	</g>
	<g>
		<path class="st2" d="M125.92,45.98c0,0-0.01,0-0.01-0.01c-0.62,1.33-1.25,2.65-1.86,3.98c-0.29,0.65-0.39,1.29,0.38,1.68
			c2.69,1.35,5.03,3.2,7.39,5.02c0.81,0.63,1.16,0.48,1.11-0.53c-0.06-1.25-0.08-2.5-0.22-3.74c-0.43-3.65-1.33-7.15-3.49-10.22
			c-0.6-0.86-1.08-1.01-1.56,0.11C127.1,43.53,126.5,44.75,125.92,45.98z"/>
	</g>
	<g>
		<path class="st2" d="M119.29,43.05c0.01,0,0.03,0.01,0.04,0.01c0.53-1.14,1.07-2.26,1.58-3.39c0.73-1.63,0.65-1.82-1.11-1.64
			c-4.95,0.52-8.99,3-12.72,6.09c-0.69,0.56-0.62,0.93,0.31,1.11c2.92,0.62,5.79,1.39,8.58,2.47c0.8,0.31,1.22-0.15,1.53-0.8
			C118.1,45.6,118.69,44.33,119.29,43.05z"/>
	</g>
	<g>
		<path class="st2" d="M146.4,75.15c0.59-8.93-1.71-16.63-6.46-23.99c-0.14,0.49-0.22,0.63-0.21,0.77
			c0.38,3.69,0.34,7.38-0.21,11.05c-0.13,0.84,0.2,1.47,0.72,2.08C142.74,67.94,144.56,71.26,146.4,75.15z"/>
	</g>
	<g>
		<path class="st2" d="M79.52,180.91c8.46-0.87,15.85-4.02,21.95-10.01c-3.86,1.04-7.77,1.58-11.74,1.57
			c-0.56,0-1.07,0.14-1.47,0.57C85.62,175.96,82.68,178.51,79.52,180.91z"/>
	</g>
	<g>
		<path class="st2" d="M106.12,35.77c-8.46,0.83-15.83,4.01-22.35,10.25c4.36-1.29,8.34-1.84,12.41-1.95c0.59-0.01,1-0.34,1.39-0.74
			C100.23,40.64,103.01,38.06,106.12,35.77z"/>
	</g>
	<g>
		<path class="st2" d="M39.33,141.91c-0.62,8.53,1.64,16.24,6.45,23.24c-0.29-3.93-0.06-7.81,0.31-11.68
			c0.06-0.59-0.15-1.07-0.5-1.5C43.12,148.87,41.06,145.5,39.33,141.91z"/>
	</g>
	<g>
		<path class="st2" d="M74.85,155.15c-0.93,1.98-3.08,2.86-4.85,1.98c-1.75-0.87-2.44-3.01-1.58-4.89c0.9-1.96,3.04-2.85,4.87-2.02
			C75.2,151.1,75.82,153.06,74.85,155.15z"/>
	</g>
</g>
</svg>
