<?xml version="1.0" encoding="utf-8"?>
<!-- Generator: Adobe Illustrator 26.3.1, SVG Export Plug-In . SVG Version: 6.00 Build 0)  -->
<svg version="1.1" id="Capa_1" xmlns="http://www.w3.org/2000/svg" xmlns:xlink="http://www.w3.org/1999/xlink" x="0px" y="0px"
	 viewBox="0 0 300 300" width="300" heigh="300" style="enable-background:new 0 0 300 300;" xml:space="preserve">
<style type="text/css">
	.st0{fill:#941914;}
	.st1{fill:#FAE5D5;}
	.st2{fill:#DE2827;}
	.st3{fill:#E6D1C4;}
</style>
<g>
	<g>
		<path class="st0" d="M157.04,275c-25.69,0-59.85-15.74-80.81-32.96c-35.18-28.94-40.21-58.59-38.24-78.36
			c1.71-17.16,9.57-33.55,22.14-46.16c10.48-10.54,32.56-30.55,62.47-46.14c18.97-9.89,25.73-17.94,31.67-25.04
			c6.08-7.25,11.83-14.09,27.49-18.8l0,0c25.73-7.73,60.34,1.33,75.51,39.47c12.89,32.39-0.85,79.78-15.97,121.86
			c-13.01,36.19-33.38,78.64-75.8,85.48C162.82,274.79,159.97,275,157.04,275z M185.43,39.73c-12.02,3.61-15.74,8.05-21.4,14.79
			c-6.38,7.61-14.32,17.09-35.54,28.14c-28.4,14.79-49.37,33.8-59.35,43.82c-10.5,10.54-17.07,24.21-18.49,38.45
			c-2.43,24.25,8.89,46.9,33.66,67.27c23.73,19.52,59.24,32.81,79.16,29.58c35.85-5.79,54.04-44.33,65.85-77.24
			c8.66-24.11,28.97-80.58,16.12-112.86C233.2,40.85,206.47,33.41,185.43,39.73L185.43,39.73z"/>
	</g>
	<g>
		<path class="st1" d="M151.67,251.97c-18.99,0-44.11-11.7-59.47-24.53c-25.92-21.66-29.62-43.9-28.16-58.75
			c1.27-12.91,7.1-25.27,16.42-34.78c7.63-7.77,23.68-22.54,45.44-34.06c14.39-7.61,22.88-15.74,31.1-23.62
			c7.56-7.25,15.4-14.75,27.32-21.42l0,0c9.59-5.37,25.27-4.69,37.31,1.61c11.11,5.83,17.89,15.7,19.06,27.8
			c2.28,23.62-12.99,65.66-23.09,93.49c-1.33,3.68-2.58,7.08-3.63,10.1c-9.53,26.92-24.51,58.48-56.01,63.66
			C155.98,251.8,153.87,251.97,151.67,251.97z M200.18,63.94c-3.93,0-7.37,0.72-9.61,1.99l0,0c-10.5,5.87-17.41,12.51-24.74,19.5
			c-8.85,8.47-18,17.24-33.95,25.67c-20.26,10.71-35.22,24.47-42.32,31.73c-7.29,7.44-11.85,17.07-12.85,27.13
			c-1.69,17.16,6.27,33.23,23.66,47.75c16.46,13.75,41.92,23.47,55.59,21.25c24.91-4.08,37.71-31.73,46.08-55.35
			c1.08-3.04,2.32-6.49,3.68-10.2c9.13-25.12,24.38-67.16,22.37-87.93c-0.95-9.85-7.2-15.08-12.3-17.75
			C210.74,65.06,205.08,63.94,200.18,63.94z"/>
	</g>
	<g>
		<g>
			<path class="st2" d="M189.51,106.57c-3.42,1.27-6.25,3.8-8.73,6.4c-2.94,3.06-5.54,6.44-8.09,9.82c-2.58,3.4-5.35,6.7-7.82,10.16
				c-3.17,4.42-5.94,9.06-8.73,13.73c-10.48,17.58-21.85,34.61-33.95,51.11c-6.7,9.13-13.65,18.11-20.94,26.77
				c-0.61,0.72,0.42,1.75,1.04,1.04c12.95-15.38,24.87-31.67,36.13-48.32c5.58-8.26,11.01-16.65,16.18-25.16
				c2.66-4.39,5.22-8.85,8.01-13.16c2.64-4.12,5.62-7.9,8.6-11.77c2.87-3.72,5.62-7.54,8.7-11.07c2.77-3.17,5.98-6.63,10.01-8.13
				C190.78,107.65,190.4,106.24,189.51,106.57L189.51,106.57z"/>
		</g>
	</g>
	<g>
		<g>
			<path class="st2" d="M140.66,171.22c-0.36,4.33,2.35,7.35,5.94,9.34c2.18,1.18,4.48,2.13,6.55,3.51c2.03,1.35,3.59,3.17,4.73,5.3
				c2.22,4.14,2.87,9,3.65,13.56c0.97,5.77,1.84,11.54,2.6,17.35c0.82,6.42,1.52,12.85,2.09,19.29c0.08,0.93,1.54,0.95,1.46,0
				c-0.99-11.37-2.41-22.69-4.25-33.95c-0.78-4.77-1.37-9.74-3.08-14.28c-1.63-4.31-4.35-7.5-8.41-9.7
				c-4.39-2.37-10.31-4.35-9.82-10.42C142.2,170.27,140.75,170.29,140.66,171.22L140.66,171.22z"/>
		</g>
	</g>
	<g>
		<path class="st3" d="M199.95,119.17c-12.4,0-22.5-10.1-22.5-22.5s10.1-22.5,22.5-22.5s22.5,10.1,22.5,22.5
			S212.35,119.17,199.95,119.17z M199.95,86.86c-5.39,0-9.78,4.39-9.78,9.78s4.39,9.78,9.78,9.78c5.39,0,9.78-4.39,9.78-9.78
			S205.33,86.86,199.95,86.86z"/>
	</g>
</g>
</svg>
