<?xml version="1.0" encoding="utf-8"?>
<!-- Generator: Adobe Illustrator 26.3.1, SVG Export Plug-In . SVG Version: 6.00 Build 0)  -->
<svg version="1.1" id="Capa_1" xmlns="http://www.w3.org/2000/svg" xmlns:xlink="http://www.w3.org/1999/xlink" x="0px" y="0px"
	 viewBox="0 0 300 300" width="300" heigh="300" style="enable-background:new 0 0 300 300;" xml:space="preserve">
<style type="text/css">
	.st0{fill:#DBB879;}
</style>
<g>
	<g>
		<path class="st0" d="M168.54,137.79c0.48-0.9-0.03-1.7-0.27-2.52c-0.7-2.31-1.29-4.65-1.41-7.07c-0.05-1.04-0.19-1.88-1.64-1.83
			c0.9-0.34,1.32-0.92,1.86-1.62c1.12,3.62,1.49,7.39,3.19,10.8c-1.1-3.73,0.91-7.58-1.04-11.4c-2.03-3.95-2.52-8.4-2.32-12.9
			c1.62,4.87,2.05,10.16,5.22,14.49c-1.58-3.23-2.39-6.63-2.04-10.2c0.21-2.1-0.13-4.01-0.8-6.04c-1.39-4.15-1.05-8.42-0.27-13.12
			c0.71,1,0.51,1.74,0.49,2.39c-0.06,3.71,0.09,7.39,1.51,10.89c0.36,0.91,0.65,1.91,2.13,2.1c-1.45-3.52-1.47-6.97-1.32-10.55
			c0.08-2.06-1.34-4.15-1.56-6.39c-0.26-2.57,0.04-5.04,0.6-7.85c0.83,0.84,0.57,1.6,0.57,2.25c0.01,2.35,0.08,4.67,0.39,7.02
			c0.47,3.62,3.02,4.75,6.22,5.69c-2.43-5.78-0.48-10.54,3.15-14.9c0.51-0.61,0.64-1.3,0.66-2.05c0.09-2.88,0.18-5.76,0.31-8.65
			c0.03-0.7-0.21-1.48,0.42-2.08c0.7,0.1,0.58,0.68,0.6,1.09c0.05,1.41,0.04,2.82,0.09,4.23c0.13,3.74,0.31,7.3,2.93,10.53
			c2.39,2.95,2.89,6.71,1.54,10.63c1.91-0.82,3.56-1.53,5.21-2.22c0.78-0.32,1.04-1,1.34-1.67c1.1-2.52,1.26-5.19,1.26-7.89
			c0-1.12-0.27-2.26,0.19-3.38c0.83,0.26,0.68,0.95,0.75,1.51c0.57,3.92,0.35,7.76-1.29,11.45c-0.16,0.35-0.3,0.8-0.23,1.17
			c0.69,3.38,0.25,6.63-1.09,9.84c1.34,0.04,1.53-0.91,1.86-1.69c1.56-3.74,1.84-7.66,1.7-11.66c-0.01-0.47-0.42-1.04,0.43-1.6
			c0.99,4.69,1.09,9.22-0.52,13.64c-0.52,1.43-0.74,2.74-0.56,4.28c0.47,3.96-0.18,7.75-2.18,11.27c3.34-4.35,3.84-9.72,5.21-14.81
			c0.53,1.6,0.39,3.18,0.16,4.73c-0.53,3.47-1.35,6.85-2.93,10.01c-0.31,0.61-0.56,1.21-0.43,1.92c0.56,3.01,0.4,6-0.34,8.98
			c1.96-3.76,2.35-8,3.54-12.02c0.53,1.41,0.34,2.83,0.21,4.24c-0.09,0.93-0.21,1.88-0.47,2.78c-1.45,5.09-3.45,10.05-2.82,15.55
			c0.17,1.47-0.6,3-1.1,4.47c2.34-4.13,2.97-8.8,4-13.47c0.58,1.09,0.7,2.01,0.43,4.02c-0.49,3.61-1.32,7.13-2.93,10.42
			c-0.32,0.66-0.65,1.31-0.51,2.1c0.52,3.01,0.43,6-0.35,8.97c1.99-3.75,2.41-7.94,3.45-12.37c0.8,1.66,0.48,3.05,0.32,4.32
			c-0.45,3.75-1.34,7.4-3.02,10.8c-0.38,0.75-0.45,1.48-0.32,2.32c1.03,6.61-1.04,12.05-6.26,16.25c-1.52,1.22-3.06,2.43-4.73,3.43
			c-1.25,0.75-1.73,1.61-1.71,3.06c0.08,6.28,0.03,12.57,0.19,18.9c2.21-6.06,5.43-11.51,9.33-16.56c4.3-5.53,8.92-10.77,14.9-14.56
			c3.56-2.26,7.32-3.99,11.73-3.31c0.71,0.1,1.45,0.19,1.97,0.79c-0.19,0.71-0.83,0.61-1.31,0.78
			c-10.77,3.83-18.9,10.45-23.08,21.46c-2.34,6.13-6.72,10.97-11.05,15.75c-1.93,2.14-2.78,4.24-2.74,7.15
			c0.16,11.96,0.06,23.91,0.06,35.87c0,0.87-0.09,1.74-0.13,2.61c-0.93,0-1.88,0-2.82,0c0-8.46-0.03-16.91,0-25.38
			c0-1.44-0.23-2.78-0.82-4.1c-3.84-8.79-7.61-17.62-11.5-26.39c-1.71-3.87-3.79-7.53-6.98-10.48c-3.5-3.25-7.58-5.21-12.31-6.02
			c5.5-1.67,10.87-1.92,15.93,1.27c3.56,2.23,6.08,5.46,8.05,9.11c3.75,6.94,5.56,14.5,6.93,22.18c0.16,0.86,0.3,1.7,0.69,2.56
			c0-1.08,0-2.14,0-3.22c0-9.4-0.03-18.8,0.03-28.19c0.01-1.51-0.4-2.43-1.82-3.18c-7.26-3.84-9.94-8.97-9.09-17.19
			c0.12-1.18,0.03-2.19-0.49-3.28c-1.97-4.11-2.69-8.55-3.08-13.05c-0.03-0.38-0.14-0.83,0.68-1.1c1.03,4.4,1.6,8.92,3.75,12.97
			c-0.34-1.69-0.96-3.31-0.95-5.05c0.01-1.8,0.38-3.67,0.19-5.4c-0.21-1.99-1.32-3.89-2.1-5.8c-0.95-2.32-1.29-4.74-1.35-7.23
			c-0.04-1.16,0.12-2.48-1.78-2.97c1.45-0.25,2.51-0.42,3.57-0.6c-0.49,0.44-1.17,0.8-1.01,1.61c0.39,1.97,0.65,4,1.49,6.17
			c0.25-0.62,0.38-0.96,0.56-1.4c0.18,4.89,0.18,4.89,1.3,6.37c-1.08-3.15-0.96-6.15-0.66-9.15
			C170.39,139.82,169.77,138.66,168.54,137.79z M172.31,171.93c0.13,2.91,0.64,5.32,2.05,7.5c1.9,2.91,4.54,5.09,7.2,7.26
			c0.92,0.75,1.57,0.31,2.28-0.3c3.02-2.57,5.88-5.32,8.23-8.52c1.69-2.3,2.38-4.92,2.32-8.22c-1.87,2.09-3.43,3.83-4.98,5.57
			c-0.14-0.09-0.27-0.19-0.42-0.29c0.88-2.1,1.77-4.21,2.7-6.44c-6.93,2.83-8.44,9.02-10.11,15.68c-1.06-2.7-0.51-4.8-0.17-6.85
			c0.17-1.05-0.04-1.79-0.65-2.58c-1.41-1.84-3.36-2.89-5.71-4.21c1.04,2.47,1.91,4.52,2.78,6.56
			C175.6,175.88,174.48,173.66,172.31,171.93z M191.81,113.18c-7.04,2.88-8.48,9.14-10.32,15.17c-0.83-2.05-0.39-4.02-0.14-5.98
			c0.1-0.8,0.23-1.54-0.27-2.31c-1.41-2.1-3.36-3.48-6.04-4.8c1.06,2.53,1.92,4.58,2.78,6.62c-0.14,0.09-0.29,0.18-0.43,0.27
			c-1.57-1.74-3.15-3.49-4.96-5.49c-0.17,7.97,5.41,11.59,10.41,15.84c1.36-2.97,4.06-4.5,6.28-6.5c3.69-3.31,5.66-7.5,5.06-11.28
			c-1.65,1.79-3.25,3.52-4.83,5.24c-0.13-0.09-0.26-0.19-0.39-0.29C189.89,117.62,190.79,115.56,191.81,113.18z M191.69,154.99
			c-6.93,2.76-8.36,8.97-10.18,14.98c-0.9-2.12-0.39-4.14-0.14-6.17c0.1-0.82,0.22-1.56-0.35-2.28c-1.49-1.93-3.48-3.19-5.98-4.6
			c1.04,2.45,1.91,4.49,2.78,6.53c-0.14,0.09-0.3,0.19-0.44,0.29c-1.58-1.74-3.17-3.49-5.04-5.56c0.19,4.71,1.48,8.41,5.15,10.93
			c1.39,0.95,2.86,1.78,3.99,3.04c0.86,0.96,1.47,0.93,2.15-0.16c1.25-1.97,3.01-3.44,4.98-4.6c4.19-2.47,5.63-6.31,5.89-11.18
			c-2.06,1.61-3.13,3.8-5.36,5.32C189.71,159.07,190.95,157.22,191.69,154.99z M172.43,131.03c0.14,1.12,0.26,1.7,0.3,2.28
			c0.19,3.89,1.92,6.8,5.21,9c1.27,0.84,3,1.19,3.76,2.76c0.52,1.05,1.09,1.01,1.69,0.06c1.54-2.47,3.95-3.93,6.27-5.53
			c3.52-2.43,4.62-6.08,4.65-10.19c-1.58,1.48-3.01,3.05-4.41,4.65c-0.32,0.36-0.68,0.78-1.13,0.25c-0.44-0.51,0.23-0.58,0.42-0.87
			c1.08-1.73,1.83-3.6,2.49-5.58c-6.78,2.83-8.28,9.05-10.1,15.51c-0.91-2.17-0.55-3.92-0.35-5.67c0.09-0.86,0.74-1.8,0.25-2.53
			c-1.52-2.26-3.44-4.11-6.32-5.28c0.77,2.44,2.12,4.32,2.23,6.72C175.86,134.88,174.31,133.16,172.43,131.03z M189.22,148.12
			c0-1.3,0.23-2.23,0.78-3.06c0.42-0.62,0.97-1.29,0.13-1.91c-0.64-0.48-1.17-0.04-1.78,0.36c-2.36,1.54-3.73,3.76-4.6,6.35
			c-0.75,2.22-1.41,4.48-2.13,6.72c-0.78-1.51-0.69-3.01-0.47-4.52c0.53-3.7-0.3-5.37-3.56-7.09c-0.4-0.21-0.8-0.65-1.29-0.3
			c-0.56,0.42-0.21,0.95-0.06,1.47c0.36,1.36,1.39,2.52,1.49,4.43c-1.93-2.05-3.58-3.82-5.45-5.8c0.39,4.97,1.71,9,6.15,11.38
			c1.16,0.62,2.19,1.56,3.13,2.51c0.86,0.88,1.3,1.04,2.06-0.14c1.29-1.99,3.04-3.58,5.14-4.73c2.3-1.25,3.8-3.19,4.69-5.58
			c0.56-1.51,1.14-3.08,0.49-5.05C192.37,144.93,191.06,146.58,189.22,148.12z M181.73,114.97c-0.53-1.38-0.47-2.71-0.32-4.02
			c0.38-3.5-1.27-5.91-4.91-6.93c0.23,1.96,1.75,3.48,2.06,6.02c-1.73-1.91-3.05-3.35-4.67-5.14c-0.01,4.26,1.52,7.2,4.43,9.5
			c1.05,0.83,2.17,1.58,3.13,2.51c0.91,0.87,1.52,0.87,2.22-0.17c1.43-2.08,3.4-3.56,5.49-4.93c2.58-1.7,4.24-5.89,3.48-8.52
			c-1.32,1.45-2.64,2.89-3.93,4.34c-0.14-0.1-0.3-0.21-0.44-0.31c0.75-1.73,1.51-3.45,2.43-5.56
			C184.54,104.39,183.36,109.78,181.73,114.97z M181.32,90.68c-0.82,0.68-1.05,1.36-1.35,2.03c-1.4,3.14-0.86,6.26-0.04,9.42
			c0.34,1.34,1.19,2.18,2.13,3.05c0.51,0.48,0.82,0.43,1.32-0.06c3.25-3.22,3.88-11.16,0.69-14.15c-0.77,2.74-0.42,5.69-1.69,8.39
			C182.02,96.55,181.69,93.73,181.32,90.68z"/>
	</g>
	<g>
		<path class="st0" d="M103.85,111.35c0.65-1.22-0.04-2.31-0.38-3.41c-0.96-3.14-1.74-6.32-1.92-9.61c-0.08-1.4-0.27-2.56-2.23-2.49
			c1.21-0.47,1.79-1.25,2.52-2.21c1.52,4.92,2.03,10.03,4.34,14.66c-1.51-5.06,1.25-10.31-1.41-15.49
			c-2.74-5.36-3.41-11.4-3.15-17.51c2.21,6.62,2.78,13.8,7.09,19.67c-2.15-4.4-3.25-9.01-2.76-13.86c0.29-2.87-0.17-5.45-1.09-8.19
			c-1.9-5.63-1.43-11.45-0.38-17.82c0.97,1.36,0.67,2.36,0.66,3.25c-0.08,5.04,0.13,10.03,2.04,14.79c0.49,1.23,0.88,2.6,2.89,2.87
			c-1.99-4.78-2-9.46-1.8-14.33c0.12-2.82-1.82-5.63-2.12-8.67c-0.35-3.48,0.05-6.84,0.8-10.67c1.14,1.16,0.78,2.15,0.78,3.05
			c0.01,3.19,0.1,6.35,0.52,9.53c0.64,4.91,4.1,6.45,8.44,7.72c-3.3-7.85-0.65-14.32,4.27-20.25c0.69-0.83,0.87-1.77,0.91-2.79
			c0.12-3.92,0.25-7.83,0.42-11.75c0.04-0.95-0.29-2.01,0.56-2.82c0.95,0.14,0.79,0.92,0.8,1.49c0.08,1.91,0.05,3.83,0.12,5.74
			c0.17,5.08,0.42,9.9,3.99,14.29c3.25,4,3.93,9.11,2.1,14.45c2.58-1.1,4.82-2.08,7.07-3.01c1.05-0.43,1.41-1.36,1.82-2.28
			c1.51-3.43,1.71-7.05,1.71-10.71c0-1.51-0.38-3.06,0.26-4.58c1.14,0.35,0.92,1.29,1.03,2.04c0.78,5.34,0.47,10.54-1.74,15.55
			c-0.21,0.48-0.4,1.09-0.31,1.58c0.93,4.58,0.32,9.01-1.48,13.37c1.8,0.05,2.08-1.23,2.52-2.28c2.12-5.08,2.49-10.41,2.31-15.82
			c-0.03-0.65-0.57-1.41,0.58-2.17c1.34,6.37,1.48,12.51-0.7,18.54c-0.7,1.93-1,3.73-0.75,5.8c0.64,5.37-0.25,10.53-2.96,15.29
			c4.53-5.91,5.22-13.2,7.07-20.11c0.73,2.17,0.53,4.31,0.21,6.41c-0.71,4.7-1.83,9.31-3.99,13.59c-0.42,0.82-0.75,1.65-0.58,2.61
			c0.75,4.1,0.55,8.15-0.47,12.2c2.66-5.11,3.19-10.87,4.82-16.32c0.73,1.92,0.45,3.86,0.27,5.76c-0.12,1.27-0.29,2.56-0.64,3.76
			c-1.97,6.91-4.69,13.64-3.83,21.12c0.22,2-0.8,4.08-1.51,6.05c3.18-5.61,4.04-11.96,5.44-18.3c0.79,1.48,0.96,2.74,0.58,5.46
			c-0.68,4.89-1.8,9.67-3.99,14.15c-0.44,0.91-0.88,1.78-0.7,2.86c0.7,4.09,0.58,8.14-0.48,12.19c2.69-5.1,3.28-10.79,4.69-16.81
			c1.09,2.26,0.65,4.14,0.44,5.88c-0.61,5.09-1.82,10.05-4.11,14.67c-0.51,1.03-0.62,2.01-0.44,3.15c1.39,8.97-1.4,16.37-8.49,22.07
			c-2.05,1.66-4.17,3.28-6.41,4.65c-1.69,1.03-2.35,2.19-2.32,4.17c0.09,8.53,0.04,17.07,0.26,25.66c3-8.23,7.37-15.64,12.68-22.48
			c5.83-7.52,12.11-14.62,20.24-19.78c4.84-3.08,9.94-5.41,15.93-4.5c0.97,0.14,1.97,0.26,2.67,1.08c-0.26,0.97-1.13,0.83-1.78,1.05
			c-14.63,5.21-25.66,14.2-31.35,29.14c-3.17,8.32-9.14,14.89-14.99,21.38c-2.62,2.91-3.78,5.75-3.71,9.71
			c0.22,16.23,0.09,32.47,0.08,48.7c0,1.18-0.12,2.36-0.18,3.54c-1.27,0-2.56,0-3.83,0c-0.01-11.49-0.03-22.98,0-34.46
			c0-1.95-0.32-3.76-1.1-5.57c-5.22-11.94-10.33-23.92-15.62-35.84c-2.34-5.26-5.15-10.23-9.48-14.23
			c-4.76-4.4-10.31-7.06-16.72-8.18c7.46-2.27,14.76-2.6,21.63,1.73c4.83,3.04,8.24,7.41,10.93,12.37
			c5.1,9.42,7.54,19.69,9.42,30.13c0.21,1.16,0.42,2.32,0.92,3.48c0-1.45,0-2.91,0-4.36c0-12.76-0.04-25.52,0.04-38.29
			c0.01-2.05-0.55-3.31-2.48-4.32c-9.85-5.22-13.5-12.18-12.34-23.34c0.17-1.61,0.03-2.99-0.67-4.45
			c-2.69-5.59-3.65-11.6-4.17-17.72c-0.04-0.51-0.18-1.13,0.91-1.49c1.39,5.97,2.17,12.11,5.09,17.6c-0.47-2.28-1.3-4.49-1.29-6.87
			c0.01-2.45,0.51-5,0.26-7.33c-0.29-2.7-1.79-5.28-2.86-7.88c-1.3-3.15-1.74-6.44-1.83-9.81c-0.05-1.57,0.16-3.36-2.41-4.02
			c1.97-0.32,3.4-0.57,4.84-0.8c-0.66,0.6-1.58,1.1-1.36,2.18c0.53,2.69,0.88,5.43,2.03,8.36c0.34-0.86,0.52-1.31,0.75-1.91
			c0.25,6.65,0.25,6.65,1.75,8.66c-1.47-4.28-1.31-8.35-0.9-12.42C106.37,114.1,105.53,112.53,103.85,111.35z M108.99,157.72
			c0.18,3.95,0.86,7.23,2.79,10.19c2.58,3.95,6.17,6.91,9.77,9.85c1.25,1.01,2.14,0.42,3.1-0.4c4.1-3.49,7.98-7.23,11.18-11.57
			c2.3-3.12,3.23-6.69,3.15-11.15c-2.53,2.83-4.65,5.19-6.76,7.55c-0.18-0.13-0.38-0.26-0.56-0.39c1.19-2.86,2.4-5.71,3.66-8.74
			c-9.4,3.83-11.46,12.25-13.73,21.3c-1.44-3.66-0.67-6.52-0.23-9.31c0.22-1.41-0.04-2.43-0.87-3.5c-1.92-2.49-4.56-3.93-7.76-5.71
			c1.41,3.35,2.6,6.13,3.76,8.9C113.45,163.07,111.93,160.05,108.99,157.72z M135.46,77.94c-9.54,3.92-11.51,12.41-14.02,20.6
			c-1.14-2.79-0.53-5.46-0.18-8.13c0.14-1.1,0.32-2.1-0.38-3.14c-1.92-2.86-4.57-4.73-8.19-6.53c1.44,3.44,2.61,6.22,3.78,9
			c-0.19,0.13-0.39,0.25-0.57,0.38c-2.14-2.36-4.27-4.74-6.74-7.46c-0.23,10.83,7.35,15.73,14.15,21.51
			c1.86-4.04,5.52-6.13,8.54-8.84c5.01-4.5,7.68-10.2,6.87-15.3c-2.25,2.44-4.4,4.78-6.56,7.11c-0.17-0.13-0.35-0.26-0.52-0.39
			C132.85,83.96,134.06,81.16,135.46,77.94z M135.29,134.7c-9.41,3.75-11.36,12.19-13.81,20.34c-1.21-2.87-0.52-5.63-0.18-8.37
			c0.13-1.1,0.3-2.12-0.47-3.1c-2.04-2.64-4.73-4.35-8.13-6.23c1.41,3.34,2.6,6.1,3.76,8.85c-0.21,0.13-0.4,0.26-0.61,0.39
			c-2.14-2.38-4.3-4.74-6.84-7.54c0.26,6.39,2.01,11.42,7,14.84c1.88,1.29,3.88,2.41,5.41,4.13c1.16,1.3,1.99,1.27,2.92-0.22
			c1.69-2.69,4.09-4.66,6.78-6.24c5.69-3.35,7.65-8.57,8.01-15.19c-2.79,2.18-4.24,5.17-7.27,7.23
			C132.59,140.24,134.31,137.75,135.29,134.7z M109.14,102.17c0.19,1.52,0.35,2.31,0.4,3.1c0.27,5.28,2.61,9.24,7.07,12.22
			c1.73,1.16,4.06,1.62,5.1,3.75c0.7,1.43,1.48,1.38,2.3,0.08c2.1-3.35,5.36-5.34,8.52-7.52c4.78-3.3,6.27-8.26,6.31-13.84
			c-2.15,2-4.08,4.15-6,6.31c-0.44,0.51-0.91,1.06-1.53,0.34c-0.6-0.69,0.31-0.79,0.56-1.19c1.47-2.35,2.49-4.89,3.39-7.57
			c-9.2,3.86-11.24,12.28-13.71,21.07c-1.25-2.93-0.74-5.32-0.47-7.7c0.13-1.16,1-2.44,0.34-3.44c-2.05-3.08-4.66-5.58-8.58-7.18
			c1.04,3.32,2.87,5.87,3.04,9.13C113.78,107.4,111.71,105.07,109.14,102.17z M131.93,125.38c0-1.77,0.31-3.02,1.05-4.17
			c0.56-0.86,1.31-1.74,0.18-2.6c-0.87-0.65-1.58-0.05-2.41,0.49c-3.21,2.09-5.06,5.11-6.24,8.62c-1.03,3.02-1.93,6.08-2.88,9.13
			c-1.05-2.05-0.93-4.09-0.64-6.13c0.73-5.02-0.4-7.3-4.83-9.62c-0.55-0.29-1.1-0.88-1.74-0.42c-0.77,0.56-0.29,1.29-0.09,1.99
			c0.51,1.86,1.88,3.41,2.03,6.01c-2.62-2.79-4.85-5.18-7.4-7.88c0.53,6.75,2.32,12.2,8.36,15.46c1.57,0.84,2.99,2.1,4.24,3.39
			c1.17,1.19,1.77,1.4,2.8-0.19c1.75-2.7,4.11-4.87,6.98-6.41c3.13-1.69,5.15-4.34,6.37-7.57c0.77-2.04,1.56-4.18,0.66-6.87
			C136.23,121.06,134.44,123.29,131.93,125.38z M121.77,80.38c-0.71-1.87-0.62-3.69-0.43-5.46c0.52-4.75-1.74-8.02-6.66-9.41
			c0.32,2.65,2.38,4.73,2.8,8.19c-2.35-2.58-4.14-4.56-6.35-6.98c-0.03,5.79,2.06,9.79,6.01,12.9c1.43,1.13,2.95,2.14,4.24,3.4
			c1.22,1.18,2.05,1.18,3.02-0.23c1.93-2.83,4.62-4.83,7.46-6.7c3.5-2.3,5.75-8,4.73-11.57c-1.8,1.97-3.57,3.93-5.35,5.88
			c-0.19-0.14-0.4-0.27-0.6-0.42c1.03-2.35,2.04-4.69,3.28-7.54C125.6,66.01,123.97,73.33,121.77,80.38z M121.22,47.39
			c-1.12,0.92-1.44,1.86-1.83,2.74c-1.91,4.26-1.16,8.5-0.06,12.8c0.47,1.82,1.62,2.97,2.88,4.15c0.69,0.65,1.12,0.57,1.79-0.09
			c4.41-4.37,5.27-15.16,0.93-19.2c-1.04,3.73-0.57,7.72-2.3,11.38C122.18,55.35,121.71,51.53,121.22,47.39z"/>
	</g>
</g>
</svg>
