<?xml version="1.0" encoding="utf-8"?>
<!-- Generator: Adobe Illustrator 26.3.1, SVG Export Plug-In . SVG Version: 6.00 Build 0)  -->
<svg version="1.1" id="Capa_1" xmlns="http://www.w3.org/2000/svg" xmlns:xlink="http://www.w3.org/1999/xlink" x="0px" y="0px"
	 viewBox="0 0 300 300" width="300" heigh="300" style="enable-background:new 0 0 300 300;" xml:space="preserve">
<style type="text/css">
	.st0{fill:#A1D5D3;}
	.st1{fill:#E2E1E1;}
</style>
<g>
	<g>
		<path class="st0" d="M150.06,275c-0.66,0-1.31,0-1.97-0.02c-17.09-0.19-31.84-2.68-45.09-7.64c-5.96-2.24-10.88-4.88-15-8.08
			c-2.14-1.65-3.38-3.81-3.74-6.38c-1.03-7.73-2.07-15.46-3.13-23.17l-1.99-14.63c-1.14-8.42-2.27-16.82-3.4-25.24
			c-0.81-6.1-1.62-12.19-2.42-18.29c-0.96-7.29-1.92-14.58-2.9-21.87c-0.72-5.4-1.46-10.79-2.19-16.18
			c-0.72-5.34-1.46-10.69-2.17-16.03c-1.11-8.28-2.21-16.57-3.3-24.85c-0.88-6.63-1.75-13.25-2.64-19.88
			c-0.15-1.2-0.3-2.37-0.45-3.57c-0.42-3.35-0.83-6.53-1.41-9.66c-0.89-4.71-0.47-11.5,6.65-17.14c5.69-4.51,12.12-6.92,17.09-8.52
			c11.25-3.62,23.47-5.93,39.65-7.51c7.53-0.74,15.09-0.96,21.75-1.16c1.75-0.05,3.45-0.1,5.1-0.17h0.12h0.12
			c22.98,0.15,40.48,1.84,56.69,5.42c7.36,1.63,15.94,3.87,23.89,8.17c3.91,2.1,8.27,4.93,11.01,9.88c1.52,2.74,2.07,5.79,1.62,9.04
			c-0.74,5.42-1.46,10.83-2.21,16.23c-1.14,8.44-2.31,16.87-3.43,25.31c-0.86,6.43-1.7,12.85-2.54,19.28
			c-0.88,6.67-1.75,13.34-2.64,20c-0.84,6.3-1.72,12.59-2.58,18.89c-0.86,6.18-1.7,12.36-2.54,18.54
			c-1.72,12.83-3.42,25.66-5.14,38.49l-2.48,18.57c-0.25,1.9-0.51,3.79-0.77,5.69c-0.61,4.41-1.23,8.96-1.73,13.42
			c-0.61,5.25-4.34,7.73-5.57,8.55c-5.94,3.94-12.66,6.95-20.54,9.24C177.61,273.28,164.61,275,150.06,275z M95,250.89
			c3.22,2.42,7.09,4.46,11.84,6.25c12.04,4.51,25.58,6.79,41.39,6.95c14.24,0.17,26.84-1.43,38.47-4.82
			c6.8-1.99,12.56-4.56,17.56-7.88c0.52-0.35,0.71-0.54,0.76-0.59c0-0.02,0-0.05,0.02-0.1c0.52-4.58,1.16-9.19,1.77-13.66
			c0.25-1.89,0.52-3.75,0.77-5.64l2.48-18.57c1.7-12.83,3.4-25.68,5.14-38.51c0.82-6.2,1.68-12.39,2.54-18.59
			c0.88-6.28,1.73-12.56,2.58-18.84c0.89-6.65,1.77-13.3,2.63-19.97c0.84-6.43,1.68-12.88,2.54-19.31
			c1.13-8.45,2.29-16.89,3.43-25.34c0.74-5.4,1.48-10.81,2.21-16.23c0.15-1.18-0.1-1.85-0.35-2.31c-1.3-2.34-3.6-3.92-6.65-5.57
			c-6.75-3.65-14.11-5.57-21.06-7.12c-15.41-3.42-32.16-5-54.28-5.17c-1.63,0.05-3.32,0.1-5.03,0.15c-6.5,0.19-13.86,0.4-21.01,1.11
			c-15.37,1.5-26.91,3.67-37.38,7.04c-4.09,1.31-9.34,3.27-13.66,6.68c-2.85,2.26-3.13,4.24-2.69,6.53
			c0.67,3.49,1.11,6.97,1.53,10.35c0.15,1.16,0.29,2.32,0.45,3.49c0.89,6.63,1.77,13.27,2.64,19.9c1.09,8.28,2.19,16.57,3.3,24.84
			c0.71,5.34,1.45,10.67,2.17,16c0.74,5.4,1.48,10.81,2.21,16.21c0.98,7.29,1.94,14.58,2.91,21.89c0.81,6.1,1.62,12.19,2.42,18.27
			c1.13,8.4,2.26,16.8,3.4,25.21l1.99,14.63C92.96,235.79,93.99,243.33,95,250.89z"/>
	</g>
	<g>
		<path class="st1" d="M148.53,99.74c13.67-0.07,25.86,0.86,37.92,3.17c6.18,1.18,12.27,2.78,18.05,5.35
			c2.74,1.23,5.32,2.68,7.44,4.83c1.75,1.78,2.46,3.87,2.1,6.45c-1.48,10.67-2.83,21.37-4.28,32.04c-1.3,9.56-2.68,19.11-3.96,28.67
			c-1.67,12.36-3.28,24.7-4.93,37.06c-1.03,7.73-2.09,15.47-3.1,23.2c-0.19,1.45-0.86,2.42-2.07,3.25
			c-5.84,3.91-12.34,6.18-19.09,7.8c-10,2.39-20.17,3.37-30.43,2.96c-12.31-0.47-24.38-2.21-35.76-7.29
			c-2.21-0.99-4.28-2.21-6.33-3.5c-1.26-0.79-1.84-1.85-2.02-3.28c-1.92-14.63-3.87-29.28-5.83-43.91
			c-1.53-11.47-3.1-22.92-4.63-34.38c-1.38-10.29-2.74-20.58-4.13-30.86c-0.51-3.72-0.88-7.48-1.55-11.18
			c-0.62-3.45,0.56-6.03,3.2-8.13c4.68-3.74,10.25-5.56,15.89-7.11c9.29-2.56,18.79-3.87,28.39-4.55
			C138.93,99.96,144.42,99.71,148.53,99.74z"/>
	</g>
	<g>
		<path class="st0" d="M151.17,85.73c-0.42,0-0.84,0-1.26,0c-72.52-0.27-89.17-21.75-90.84-24.2l9.02-6.13l-0.07-0.1
			c0.15,0.19,15.2,19.26,81.93,19.51c0.4,0,0.79,0,1.2,0c65.7,0,80.65-20.79,80.8-21.01l-0.05,0.08l9.24,5.78
			c-0.47,0.74-4.97,7.49-18.71,13.89C205.12,81.64,181.14,85.73,151.17,85.73z"/>
	</g>
</g>
</svg>
