<?xml version="1.0" encoding="utf-8"?>
<!-- Generator: Adobe Illustrator 26.3.1, SVG Export Plug-In . SVG Version: 6.00 Build 0)  -->
<svg version="1.1" id="Capa_1" xmlns="http://www.w3.org/2000/svg" xmlns:xlink="http://www.w3.org/1999/xlink" x="0px" y="0px"
	 viewBox="0 0 300 300" width="300" heigh="300" style="enable-background:new 0 0 300 300;" xml:space="preserve">
<style type="text/css">
	.st0{fill:#E2E1E1;}
	.st1{fill:#A1D5D3;}
</style>
<g>
	<g>
		<path class="st0" d="M190.18,187.32c0,15.22,0.18,30.43-0.05,45.63c-0.23,15.92-6.88,21.79-24.21,21.87
			c-12.2,0.05-24.39,0.11-36.59,0.02c-15.05-0.13-22.08-5.96-22.24-19.78c-0.35-31.35-0.08-62.7-0.21-94.06
			c-0.03-5.96,2.71-9.04,9.09-10.27c10.14-1.95,20.2-2.22,30.2,0.16c11.36,2.71,22.85,3.26,34.23,1.08
			c8.01-1.53,9.65,1.98,9.67,7.85c0.03,15.83,0.02,31.67,0.02,47.5C190.13,187.32,190.15,187.32,190.18,187.32z"/>
	</g>
	<g>
		<g>
			<path class="st1" d="M151.74,275c-9.82,0-19.02-0.05-27.82-0.16c-23.14-0.29-35.93-12.18-36.01-33.48
				c-0.05-14.26-0.03-28.77-0.03-42.79c0-7.17,0.02-14.33,0-21.5l0,0c0-6.06,0.02-12.12,0.05-18.18
				c0.06-13.55,0.11-27.58-0.16-41.33c-0.29-14.68,4.09-27.46,13.44-39.07c2.47-3.06,4.87-6.43,5.83-10.35
				c1.32-5.35,0.64-7.56-3-9.78c-8.19-5-11.12-12.83-7.87-20.92C99.41,29.42,106.42,25,115.93,25c0.02,0,0.03,0,0.06,0
				c9.78,0.02,19.58,0.02,29.37,0.02c12.75,0,25.95,0,38.92,0.03c13.62,0.05,18.28,7.98,19.82,12.7c2.56,7.82-0.11,14.67-7.99,20.37
				c-1.85,1.34-4.14,3.59-4.48,6.7c-0.39,3.42,1.76,6.64,3.59,8.74c16.26,18.45,17.31,39.2,16.97,58.86
				c-0.39,23.27-0.34,46.98-0.27,69.9c0.03,12.78,0.06,25.98,0.02,38.99c-0.03,10.69-3.26,19.05-9.56,24.85
				c-6.17,5.69-15.04,8.62-26.37,8.7C167.5,274.97,159.43,275,151.74,275z M115.91,35.44c-6.8,0-8.95,3.14-10.04,5.9
				c-0.61,1.53-1.9,4.72,3.63,8.11c10.07,6.16,9.22,15.04,7.69,21.19c-1.45,5.9-4.79,10.59-7.83,14.38
				c-7.74,9.62-11.38,20.2-11.14,32.32c0.27,13.88,0.23,27.95,0.16,41.57c-0.03,6.04-0.05,12.09-0.05,18.13l0,0
				c0,7.17,0,14.34,0,21.5c-0.02,14.01-0.02,28.5,0.03,42.74c0.05,15.52,8.22,22.85,25.69,23.08c15.63,0.19,32.59,0.23,51.87,0.06
				c17.15-0.15,25.51-7.72,25.56-23.16c0.05-12.97,0.02-26.16-0.02-38.92c-0.06-22.97-0.13-46.72,0.27-70.1
				c0.31-18.36-0.55-36.12-14.36-51.79c-5.88-6.67-6.59-12.81-6.14-16.79c0.6-5.38,3.71-10.36,8.74-14.01
				c5.25-3.8,4.96-6.37,4.21-8.66c-0.84-2.56-2.74-5.5-9.94-5.53c-12.96-0.05-26.14-0.03-38.89-0.03c-9.8,0-19.6,0-29.4-0.02
				C115.94,35.44,115.93,35.44,115.91,35.44z"/>
		</g>
		<g>
			<rect x="106.77" y="48.69" class="st1" width="86.26" height="10.44"/>
		</g>
	</g>
</g>
</svg>
