<?xml version="1.0" encoding="utf-8"?>
<!-- Generator: Adobe Illustrator 26.3.1, SVG Export Plug-In . SVG Version: 6.00 Build 0)  -->
<svg version="1.1" id="Capa_1" xmlns="http://www.w3.org/2000/svg" xmlns:xlink="http://www.w3.org/1999/xlink" x="0px" y="0px"
	 viewBox="0 0 300 300" width="300" heigh="300" style="enable-background:new 0 0 300 300;" xml:space="preserve">
<style type="text/css">
	.st0{fill:#BC742D;}
	.st1{fill:#925F22;}
</style>
<g>
	<g>
		<g>
			<path class="st0" d="M91.64,258.08c-5.81,0-11.63-0.68-17.35-2.05c-10.45-2.49-19.71-7.17-27.53-13.89
				c-8.97-7.69-15.32-17.37-18.87-28.76c-1.88-6.01-2.85-12.49-2.89-19.25v-0.02c-0.02-9.36,1.86-18.77,5.6-28.01
				c3.23-7.94,7.87-15.53,13.82-22.54c7.4-8.71,16.46-15.88,27.72-21.93c8.39-4.49,17.39-8.06,26.75-10.59
				c0.41-0.1,0.8-0.24,1.2-0.38c0.94-0.31,2-0.63,3.19-0.85c1.06-0.19,2.13-0.41,3.19-0.61c1.95-0.39,3.95-0.8,6.03-1.09
				c1.37-0.19,2.73-0.36,4.1-0.55c5.02-0.65,9.75-1.25,14.28-2.58c6.1-1.79,11.84-4.22,17.05-7.21c2.36-1.35,4.61-2.94,7-4.63
				c0.82-0.58,1.66-1.16,2.48-1.74c6.42-4.42,13.83-5.23,21.42-2.32c1.98,0.75,3.83,1.76,5.5,2.99c4.59-3.54,9.17-7.07,13.77-10.61
				l6.25-4.82c0.73-0.56,1.45-1.13,2.19-1.69c0.77-0.6,1.52-1.2,2.29-1.78c-0.97-5.65-0.15-11.14,2.44-16.31
				c3.14-6.27,8.1-10.69,14.74-13.15c8.11-3.01,16.34-2.2,23.79,2.29c5.81,3.5,9.82,8.74,11.68,15.25
				c9,5.11,14.24,14.88,13.46,25.26c-0.94,12.55-10.69,22.9-23.16,24.61c-5.18,0.7-10.09,0.03-14.69-2
				c-1.66,1.28-3.3,2.54-4.95,3.81c-1.61,1.23-3.21,2.46-4.8,3.69c-2.37,1.83-4.75,3.67-7.11,5.52c-2.17,1.69-4.34,3.36-6.51,5.06
				c-0.36,0.27-0.7,0.55-1.04,0.8c1.18,2.82,1.76,5.79,1.74,8.9c-0.03,7.26-2.95,13.37-8.44,17.68c-4.88,3.83-8.9,7.67-12.28,11.75
				c-5.31,6.42-9.51,13.89-12.81,22.84c-2.72,7.36-6.54,14.79-11.72,22.68c-4.85,7.41-10.37,14.19-16.41,20.15
				c-6.49,6.39-13.66,11.72-21.32,15.85c-5.94,3.21-12.28,5.7-18.86,7.45c-5.19,1.38-10.71,2.25-16.4,2.61
				C94.74,258.04,93.18,258.08,91.64,258.08z M36.85,194.08c0.03,5.57,0.82,10.88,2.34,15.76c2.94,9.38,7.92,16.99,15.29,23.3
				c6.39,5.48,13.99,9.31,22.58,11.36c6.1,1.45,12.31,2,18.48,1.61c4.9-0.31,9.65-1.06,14.09-2.24c5.67-1.5,11.14-3.67,16.26-6.42
				c6.68-3.6,12.95-8.27,18.63-13.87c5.45-5.36,10.44-11.48,14.82-18.19c4.66-7.14,8.11-13.78,10.52-20.31
				c3.77-10.23,8.63-18.84,14.81-26.3c3.93-4.73,8.52-9.14,14.07-13.51c2.65-2.07,3.88-4.75,3.89-8.4c0.02-2.27-0.67-4.44-1.98-6.4
				c-2.2-3.26-1.5-7.16,1.69-9.46c1.3-0.94,2.66-1.96,4.18-3.14c2.17-1.67,4.32-3.35,6.49-5.04c2.37-1.84,4.75-3.69,7.14-5.53
				c1.61-1.25,3.23-2.48,4.83-3.72c2.34-1.79,4.66-3.59,6.99-5.38c2.58-2.02,5.67-2.25,8.45-0.65c3.04,1.76,6.27,2.36,9.84,1.88
				c6.85-0.94,12.42-6.85,12.93-13.75c0.46-6.03-2.75-11.7-8.16-14.42c-2.48-1.25-4.05-3.23-4.68-5.93
				c-0.94-4.03-3.11-7.02-6.59-9.12c-4.39-2.65-8.81-3.07-13.56-1.32c-3.79,1.4-6.49,3.81-8.25,7.34c-1.71,3.4-2.02,6.9-0.97,10.73
				c0.87,3.18-0.17,6.15-2.84,8.15c-1.43,1.08-2.84,2.17-4.25,3.26c-0.73,0.58-1.49,1.16-2.22,1.73l-6.25,4.82
				c-5.67,4.37-11.34,8.73-16.99,13.1c-2.94,2.27-6.76,1.95-9.29-0.79c-1.26-1.37-2.72-2.36-4.46-3.02
				c-3.95-1.5-7.26-1.18-10.45,1.01c-0.8,0.55-1.59,1.11-2.39,1.67c-2.51,1.76-5.09,3.59-7.92,5.21c-6.03,3.47-12.62,6.25-19.62,8.3
				c-5.43,1.59-10.86,2.29-16.11,2.95c-1.33,0.17-2.65,0.34-3.98,0.53c-1.73,0.24-3.48,0.6-5.33,0.97
				c-1.14,0.24-2.29,0.46-3.43,0.67c-0.43,0.09-1.04,0.27-1.69,0.48c-0.56,0.19-1.14,0.36-1.71,0.51
				c-8.49,2.31-16.65,5.53-24.25,9.6c-9.92,5.31-17.87,11.58-24.29,19.15c-5.12,6.05-9.12,12.55-11.87,19.33
				C38.42,178.37,36.84,186.27,36.85,194.08z"/>
		</g>
		<g>
			<path class="st0" d="M187.03,135.19l-2.85-3.25c-2.8-3.28-0.79-6.83,0.07-8.35c0.55-0.97,1.3-2.22,2.17-3.67
				c0.03-0.05,0.05-0.09,0.09-0.14c-2.6,0.2-5.12-1.06-6.52-3.4c-1.52-2.56-1.26-5.72,0.58-7.98c1.28-1.95,2.56-4.05,3.43-5.67
				l2-9.21l5.89,1.28c2.05,0.44,3.74,1.88,4.53,3.83c0.46,1.16,1.01,2.49-0.09,5.6l0.97-0.32l1.67,0.43
				c1.95,0.5,3.52,1.84,4.29,3.71c0.63,1.52,0.68,3.02,0.17,4.9h0.55c2.05,0,4.05,0.84,5.48,2.31c1.43,1.47,2.22,3.48,2.17,5.53
				l-0.17,6.49l-9.56-0.24l-10.49,6.35L187.03,135.19z"/>
		</g>
	</g>
	<g>
		<path class="st1" d="M90.07,239.92c-0.1,0-0.22,0-0.32-0.02c-22.77-2.37-34.31-15.17-39.98-25.5c-6.1-11.08-6.83-21.52-6.85-21.96
			c-0.12-1.74,1.21-3.25,2.95-3.36c1.74-0.09,3.25,1.21,3.36,2.95c0.1,1.54,2.99,37.61,41.18,41.57c1.74,0.19,3.01,1.74,2.82,3.47
			C93.04,238.72,91.66,239.92,90.07,239.92z"/>
	</g>
	<g>
		<path class="st1" d="M100.59,239.92c-0.05,0-0.09,0-0.1,0c-1.74-0.02-3.14-1.45-3.13-3.19c0.02-1.74,1.43-3.13,3.16-3.13
			c0.02,0,0.02,0,0.03,0l0,0l0,0c0.39,0,12.35-0.07,22.34-6.8c1.45-0.97,3.42-0.6,4.39,0.85c0.97,1.45,0.6,3.42-0.85,4.39
			C115.04,239.71,101.98,239.92,100.59,239.92z"/>
	</g>
</g>
</svg>
