<?xml version="1.0" encoding="utf-8"?>
<!-- Generator: Adobe Illustrator 26.3.1, SVG Export Plug-In . SVG Version: 6.00 Build 0)  -->
<svg version="1.1" id="Capa_1" xmlns="http://www.w3.org/2000/svg" xmlns:xlink="http://www.w3.org/1999/xlink" x="0px" y="0px"
	 viewBox="0 0 300 300" style="enable-background:new 0 0 300 300;" xml:space="preserve">
<style type="text/css">
	.st0{fill:#FFFFFF;}
</style>
<g>
	<g>
		<g>
			<g>
				<path class="st0" d="M172.38,275h-40.9c-42.55,0-77.13-34.58-77.13-77.13v-8.76c0-6.27,5.1-11.37,11.37-11.37h172.37
					c6.27,0,11.37,5.1,11.37,11.37v8.76C249.46,240.42,214.88,275,172.38,275z M65.72,186.24c-1.59,0-2.87,1.27-2.87,2.87v8.76
					c0,37.82,30.76,68.63,68.63,68.63h40.9c37.82,0,68.63-30.81,68.63-68.63v-8.76c0-1.59-1.27-2.87-2.87-2.87H65.72z"/>
			</g>
		</g>
		<g>
			<g>
				<rect x="59.82" y="201.91" class="st0" width="183.42" height="5.31"/>
			</g>
		</g>
	</g>
	<g>
		<g>
			<g>
				<g>
					<path class="st0" d="M74.54,131.68c-2.87,1.49-6.11,2.02-9.4,1.65c-3.93-0.53-7.49-2.44-10.04-5.47
						c-2.82-3.35-4.14-7.6-3.72-11.95c0.48-4.36,2.6-8.23,6.11-10.94c1.12-0.85,2.28-1.54,3.51-2.07
						c-2.44-5.68-0.8-12.54,4.25-16.41c1.22-0.96,2.55-1.65,3.93-2.12c0.16-4.09,2.07-7.91,5.37-10.46
						c4.89-3.77,11.69-3.77,16.57-0.21c0.69-0.74,1.49-1.38,2.28-1.97c6.8-4.83,16.25-3.56,21.57,2.82
						c1.06,1.27,1.91,2.71,2.55,4.25c3.19,0.42,7.86,1.38,11.1,5.9c4.52,6.37,3.61,14.4-2.07,19.07c-3.4,2.82-7.38,4.04-11.47,3.61
						c-4.3-0.48-8.55-2.87-11.31-6.43c-1.22,3.19-3.29,6-6.06,8.13c-4.41,3.4-10.09,4.62-15.46,3.51
						c2.18,6.59-0.16,14.08-6.06,18.17C75.71,131.05,75.12,131.42,74.54,131.68z M61.68,106.72c-0.64,0.32-1.27,0.74-1.86,1.17
						c-2.66,2.07-4.36,5.05-4.67,8.39c-0.37,3.35,0.64,6.59,2.82,9.19c3.98,4.73,11.16,5.68,16.25,2.12
						c5.26-3.61,6.85-10.73,3.61-16.25c-0.48-0.85-0.42-1.91,0.21-2.66c0.64-0.74,1.7-1.01,2.55-0.64
						c4.99,2.02,10.68,1.22,14.93-2.07c2.55-1.97,4.36-4.62,5.26-7.65c0.16-0.53,0.32-1.06,0.37-1.65c0.16-0.96,0.96-1.7,1.91-1.81
						c0.96-0.16,1.91,0.37,2.34,1.22c0.48,1.01,1.12,2.07,1.27,2.28c2.18,2.76,5.58,4.73,8.87,5.15c3.08,0.37,6-0.58,8.71-2.76
						c4.25-3.51,4.83-9.3,1.43-14.08l0,0c-2.55-3.61-6.48-4.14-9.35-4.52l-1.43-0.21l-0.37-1.12c-0.48-1.49-1.27-2.87-2.28-4.14
						c-4.09-4.94-11.37-5.9-16.63-2.18c-1.06,0.74-1.97,1.65-2.76,2.66l-1.27,1.7L90.1,77.4c-3.61-3.51-9.3-3.82-13.23-0.74
						c-2.71,2.07-4.14,5.37-3.93,8.82l0.11,1.59l-1.54,0.37c-1.43,0.32-2.76,0.96-3.98,1.86c-4.14,3.19-5.15,9.14-2.28,13.55
						l1.38,2.12l-2.5,0.64C63.28,105.97,62.48,106.29,61.68,106.72z"/>
				</g>
				<g>
					<path class="st0" d="M67.26,134.29c-0.74,0-1.49-0.05-2.23-0.16c-4.14-0.53-7.86-2.6-10.52-5.74
						c-2.97-3.51-4.36-7.97-3.88-12.59c0.48-4.57,2.76-8.66,6.43-11.47c0.9-0.69,1.91-1.33,2.97-1.86
						c-2.23-5.95-0.32-12.7,4.78-16.63c1.12-0.85,2.34-1.54,3.67-2.07c0.32-4.14,2.34-7.97,5.63-10.52
						c4.94-3.82,11.79-4.04,16.95-0.64c0.58-0.58,1.27-1.12,1.91-1.59c7.12-5.05,17.1-3.77,22.68,2.97c1.01,1.22,1.86,2.6,2.5,4.04
						c3.67,0.53,8.07,1.81,11.16,6.16c4.73,6.69,3.82,15.19-2.23,20.13c-3.61,2.97-7.76,4.25-12.06,3.77
						c-4.09-0.48-8.13-2.55-11-5.74c-1.33,2.82-3.29,5.31-5.79,7.28c-4.2,3.24-9.56,4.62-14.82,3.88
						c1.65,6.69-1.01,13.86-6.75,17.79c-0.58,0.37-1.17,0.74-1.81,1.06C72.52,133.65,69.92,134.29,67.26,134.29z M83.04,71.82
						c-2.82,0-5.63,0.9-7.97,2.71c-3.08,2.39-4.94,6-5.05,9.88v0.53l-0.53,0.16c-1.33,0.48-2.6,1.12-3.72,2.02
						c-4.73,3.67-6.37,9.99-3.98,15.46l0.32,0.74l-0.74,0.32c-1.17,0.53-2.34,1.17-3.35,1.97c-3.29,2.55-5.37,6.21-5.79,10.36
						c-0.42,4.14,0.8,8.18,3.51,11.37c2.39,2.87,5.79,4.67,9.51,5.15c3.08,0.42,6.16-0.11,8.92-1.54l0,0
						c0.58-0.32,1.12-0.64,1.65-0.96c5.52-3.82,7.86-10.89,5.74-17.26l-0.42-1.33l1.38,0.27c5.21,1.12,10.62-0.11,14.82-3.35
						c2.6-2.02,4.62-4.73,5.79-7.81l0.48-1.33l0.85,1.12c2.66,3.4,6.69,5.68,10.78,6.16c3.88,0.42,7.6-0.74,10.84-3.4
						c5.37-4.41,6.16-12,1.91-18.01c-2.87-4.04-6.91-5.1-10.52-5.58l-0.48-0.05l-0.16-0.42c-0.58-1.43-1.38-2.82-2.39-4.04
						c-5.05-6.11-14.08-7.28-20.5-2.71c-0.8,0.53-1.54,1.17-2.18,1.86l-0.48,0.48l-0.58-0.42C88.45,72.67,85.75,71.82,83.04,71.82z
						 M67.31,130.52c-3.72,0-7.44-1.59-9.93-4.57c-2.34-2.76-3.4-6.21-3.03-9.77c0.37-3.56,2.12-6.75,4.99-8.92
						c0.64-0.48,1.33-0.9,2.02-1.27l0,0c0.85-0.42,1.75-0.8,2.66-1.01l1.38-0.37l-0.8-1.22c-3.08-4.73-1.97-11.16,2.5-14.61
						c1.27-1.01,2.71-1.65,4.3-2.02l0.9-0.21l-0.05-0.9c-0.27-3.72,1.33-7.22,4.25-9.51c4.3-3.29,10.41-2.97,14.29,0.8l0.85,0.85
						l0.69-0.96c0.8-1.06,1.81-2.02,2.92-2.82c5.58-3.93,13.33-2.92,17.69,2.34c1.12,1.33,1.91,2.82,2.44,4.41l0.21,0.64l0.96,0.11
						c2.87,0.37,7.17,0.96,9.93,4.83c3.67,5.15,3.03,11.42-1.54,15.14c-2.87,2.34-5.95,3.35-9.3,2.97c-3.51-0.42-7.12-2.5-9.46-5.42
						l-0.05-0.05c-0.16-0.27-0.8-1.38-1.33-2.39c-0.27-0.58-0.9-0.9-1.54-0.8c-0.64,0.11-1.12,0.58-1.22,1.17
						c-0.11,0.64-0.27,1.17-0.42,1.7c-0.96,3.19-2.87,6-5.52,8.02c-4.46,3.45-10.46,4.25-15.72,2.18c-0.58-0.21-1.27-0.05-1.65,0.42
						c-0.42,0.48-0.48,1.17-0.16,1.7c3.45,5.84,1.75,13.44-3.88,17.26C72.41,129.83,69.86,130.52,67.31,130.52z M62.05,107.41
						L62.05,107.41c-0.64,0.32-1.22,0.69-1.75,1.12c-2.5,1.91-4.04,4.73-4.36,7.86c-0.32,3.13,0.64,6.16,2.66,8.61
						c3.77,4.41,10.41,5.31,15.19,2.02c4.89-3.4,6.37-10.04,3.4-15.19c-0.69-1.12-0.53-2.55,0.32-3.56
						c0.85-1.01,2.28-1.33,3.45-0.85c4.73,1.91,10.15,1.17,14.13-1.97c2.39-1.86,4.09-4.36,4.99-7.22c0.16-0.48,0.27-1.01,0.37-1.54
						c0.21-1.33,1.27-2.28,2.6-2.5c1.33-0.16,2.6,0.48,3.19,1.7c0.48,0.96,1.06,1.97,1.22,2.18c2.02,2.6,5.21,4.46,8.34,4.78
						c2.87,0.32,5.63-0.53,8.13-2.6c3.88-3.19,4.41-8.55,1.27-13.01c-2.34-3.29-6.11-3.82-8.82-4.14l-1.97-0.27l-0.53-1.59
						c-0.42-1.38-1.17-2.71-2.12-3.88c-3.82-4.62-10.68-5.52-15.56-2.02c-1.01,0.69-1.86,1.54-2.55,2.5l-1.81,2.39l-2.12-2.07
						c-3.29-3.24-8.55-3.51-12.22-0.69c-2.5,1.91-3.82,4.94-3.61,8.13l0.16,2.28l-2.23,0.48c-1.33,0.32-2.55,0.9-3.67,1.7
						c-3.82,2.97-4.78,8.45-2.12,12.48l2.02,3.08l-3.56,0.9C63.54,106.72,62.8,107.04,62.05,107.41z"/>
				</g>
			</g>
		</g>
		<g>
			<g>
				<g>
					<path class="st0" d="M117.51,147.73l-7.28,3.72c-2.5,1.27-5.58,0.48-7.17-1.86L91.22,131.9c-0.48-0.69-1.12-1.22-1.86-1.54
						l-10.52-4.41l1.43-3.4l10.52,4.41c1.43,0.58,2.66,1.59,3.51,2.87l11.85,17.69c0.53,0.8,1.54,1.06,2.39,0.64l7.28-3.72
						c0.85-0.42,1.22-1.43,0.9-2.34l-6.48-17.1c-0.53-1.27-0.69-2.71-0.42-4.09s0.58-3.56,0.9-5.84c0.58-4.04,1.22-8.55,1.97-11.31
						l3.56,0.9c-0.69,2.6-1.33,7.01-1.91,10.94c-0.37,2.44-0.69,4.62-0.96,6.06c-0.11,0.64-0.05,1.33,0.21,1.97l0.05,0.05l6.48,17.1
						C121.18,143.48,120.01,146.45,117.51,147.73z"/>
				</g>
				<g>
					<path class="st0" d="M107.74,152.88c-2.07,0-4.09-1.01-5.26-2.82l-11.85-17.69c-0.37-0.58-0.9-1.01-1.54-1.22l-11.26-4.73
						l2.02-4.89l11.26,4.67c1.59,0.64,2.92,1.75,3.88,3.19l11.85,17.69c0.32,0.48,0.9,0.58,1.38,0.37l7.28-3.72
						c0.48-0.27,0.69-0.85,0.53-1.33l-6.48-17.05c-0.58-1.43-0.74-2.97-0.42-4.52c0.27-1.27,0.53-3.29,0.85-5.47l0.05-0.37
						c0.58-4.04,1.22-8.55,1.97-11.42l0.21-0.8l5.1,1.33l-0.21,0.8c-0.69,2.66-1.38,7.38-1.86,10.89c-0.37,2.34-0.69,4.57-0.96,6.06
						c-0.11,0.53-0.05,1.01,0.16,1.49l0.05,0.05l6.48,17.16c1.17,3.03-0.16,6.43-3.03,7.91l-7.28,3.72
						C109.7,152.67,108.69,152.88,107.74,152.88z M79.9,125.58l9.77,4.09c0.9,0.37,1.7,1.01,2.23,1.81l11.85,17.69
						c1.33,2.02,3.98,2.71,6.11,1.59l7.28-3.72c2.18-1.12,3.13-3.67,2.28-5.9l-6.48-17.16c-0.32-0.74-0.42-1.59-0.27-2.44
						c0.27-1.43,0.58-3.67,0.96-6c0.48-3.19,1.06-7.44,1.7-10.25l-2.02-0.53c-0.64,2.82-1.27,7.01-1.75,10.46l-0.05,0.37
						c-0.32,2.18-0.64,4.2-0.85,5.52c-0.27,1.22-0.11,2.44,0.37,3.61l6.48,17.1c0.48,1.27-0.05,2.71-1.27,3.29l-7.22,3.72
						c-1.22,0.64-2.71,0.27-3.45-0.9l-11.85-17.69c-0.8-1.17-1.86-2.07-3.19-2.6l-9.77-4.09L79.9,125.58z"/>
				</g>
			</g>
		</g>
		<g>
			<g>
				<g>
					<path class="st0" d="M95.47,122.12c-0.69,0.37-1.54,0.42-2.34,0.16l-12.59-4.67l1.27-3.45l10.89,4.04l-2.87-7.28l3.45-1.38
						l3.56,8.98c0.42,1.06,0.16,2.23-0.64,3.08C96,121.8,95.73,121.96,95.47,122.12z"/>
				</g>
				<g>
					<path class="st0" d="M94.14,122.65c-0.37,0-0.74-0.05-1.06-0.21l-12.8-4.73l1.43-3.82l10.68,3.98l-2.76-7.01l3.82-1.49
						l3.61,9.14c0.42,1.12,0.16,2.39-0.64,3.29c-0.21,0.21-0.48,0.42-0.8,0.58l0,0C95.15,122.55,94.67,122.65,94.14,122.65z
						 M80.81,117.45l12.43,4.62c0.69,0.27,1.49,0.21,2.18-0.11l0,0c0.27-0.16,0.48-0.32,0.69-0.48c0.74-0.74,0.96-1.86,0.58-2.87
						l-3.45-8.76l-3.08,1.22l2.97,7.49l-11.1-4.14L80.81,117.45z"/>
				</g>
			</g>
		</g>
		<g>
			<g>
				<g>
					<path class="st0" d="M103.97,117.93c-0.32,0.16-0.69,0.27-1.06,0.27c-1.12,0.05-2.07-0.53-2.55-1.54l-4.2-9.14l3.35-1.54
						l2.92,6.43l2.92-11.26l3.56,0.96l-3.72,14.29C105.03,117.08,104.55,117.66,103.97,117.93z"/>
				</g>
				<g>
					<path class="st0" d="M102.74,118.46c-1.12,0-2.07-0.64-2.55-1.65l-4.25-9.3l3.72-1.7l2.76,6.11l2.82-10.94l3.93,1.01
						l-3.77,14.5c-0.21,0.69-0.74,1.33-1.38,1.65c-0.37,0.16-0.74,0.27-1.12,0.32C102.85,118.46,102.8,118.46,102.74,118.46z
						 M96.42,107.67l4.09,8.92c0.42,0.9,1.33,1.49,2.34,1.43c0.32,0,0.69-0.11,0.96-0.27l0,0c0.58-0.27,1.01-0.8,1.17-1.43
						l3.67-14.13l-3.19-0.85l-3.03,11.63l-3.08-6.75L96.42,107.67z"/>
				</g>
			</g>
		</g>
	</g>
	<g>
		<g>
			<g>
				<g>
					<g>
						<path class="st0" d="M186.19,145.55c-1.81,0-3.61-0.21-5.42-0.64c-3.24-0.8-6.11-2.23-8.55-4.3c-2.76-2.39-4.78-5.42-5.9-8.92
							c-0.58-1.86-0.9-3.88-0.9-6l0,0c0-2.92,0.58-5.84,1.75-8.71c1.01-2.5,2.44-4.83,4.3-7.01c2.28-2.71,5.1-4.94,8.61-6.8
							c2.6-1.38,5.42-2.5,8.34-3.29c0.11-0.05,0.27-0.05,0.37-0.11c0.32-0.11,0.64-0.21,1.01-0.27c0.32-0.05,0.64-0.11,1.01-0.21
							c0.58-0.11,1.22-0.27,1.86-0.32c0.42-0.05,0.85-0.11,1.27-0.16c1.54-0.21,3.03-0.37,4.46-0.8c1.91-0.58,3.67-1.33,5.31-2.23
							c0.74-0.42,1.43-0.9,2.18-1.43c0.27-0.16,0.53-0.37,0.74-0.53c2.02-1.38,4.3-1.65,6.64-0.74c0.64,0.21,1.17,0.53,1.7,0.96
							c1.43-1.12,2.87-2.18,4.3-3.29l1.97-1.49c0.21-0.16,0.48-0.37,0.69-0.53c0.21-0.16,0.48-0.37,0.69-0.53
							c-0.32-1.75-0.05-3.45,0.74-5.1c0.96-1.97,2.5-3.35,4.57-4.09c2.55-0.96,5.1-0.69,7.38,0.69c1.81,1.12,3.08,2.71,3.61,4.73
							c2.82,1.59,4.41,4.62,4.2,7.86c-0.32,3.88-3.35,7.12-7.22,7.65c-1.59,0.21-3.13,0-4.57-0.64c-0.53,0.42-1.01,0.8-1.54,1.17
							c-0.48,0.37-1.01,0.74-1.49,1.17c-0.74,0.58-1.49,1.17-2.23,1.7c-0.69,0.53-1.33,1.06-2.02,1.59
							c-0.11,0.11-0.21,0.16-0.32,0.27c0.37,0.9,0.53,1.81,0.53,2.76c0,2.23-0.9,4.14-2.6,5.47c-1.54,1.17-2.76,2.39-3.82,3.67
							c-1.65,2.02-2.97,4.3-3.98,7.12c-0.85,2.28-2.02,4.62-3.67,7.06c-1.49,2.28-3.24,4.41-5.1,6.27
							c-2.02,1.97-4.25,3.67-6.64,4.94c-1.86,1.01-3.82,1.75-5.84,2.34c-1.59,0.42-3.35,0.69-5.1,0.8
							C187.15,145.55,186.67,145.55,186.19,145.55z M169.2,125.63c0,1.75,0.27,3.4,0.74,4.89c0.9,2.92,2.44,5.26,4.73,7.22
							c1.97,1.7,4.36,2.87,7.01,3.56c1.91,0.42,3.82,0.64,5.74,0.48c1.54-0.11,3.03-0.32,4.36-0.69c1.75-0.48,3.45-1.17,5.05-2.02
							c2.07-1.12,4.04-2.55,5.79-4.3c1.7-1.65,3.24-3.56,4.62-5.68c1.43-2.23,2.55-4.3,3.29-6.32c1.17-3.19,2.71-5.84,4.62-8.18
							c1.22-1.49,2.66-2.82,4.36-4.2c0.85-0.64,1.22-1.49,1.22-2.6c0-0.69-0.21-1.38-0.64-2.02c-0.69-1.01-0.48-2.23,0.53-2.92
							c0.42-0.32,0.85-0.64,1.27-0.96c0.69-0.53,1.33-1.06,2.02-1.54c0.74-0.58,1.49-1.17,2.23-1.7c0.48-0.37,1.01-0.74,1.49-1.17
							c0.74-0.58,1.43-1.12,2.18-1.7c0.8-0.64,1.75-0.69,2.6-0.21c0.96,0.53,1.97,0.74,3.08,0.58c2.12-0.32,3.88-2.12,4.04-4.3
							c0.16-1.86-0.85-3.61-2.55-4.46c-0.74-0.37-1.27-1.01-1.43-1.86c-0.32-1.27-0.96-2.18-2.07-2.82
							c-1.38-0.85-2.76-0.96-4.2-0.42c-1.17,0.42-2.02,1.17-2.55,2.28c-0.53,1.06-0.64,2.12-0.32,3.35c0.27,1.01-0.05,1.91-0.9,2.55
							c-0.42,0.32-0.9,0.69-1.33,1.01c-0.21,0.16-0.48,0.37-0.69,0.53l-1.97,1.49c-1.75,1.38-3.51,2.71-5.26,4.09
							c-0.9,0.69-2.12,0.58-2.87-0.27c-0.37-0.42-0.85-0.74-1.38-0.96c-1.22-0.48-2.23-0.37-3.24,0.32
							c-0.27,0.16-0.48,0.37-0.74,0.53c-0.8,0.53-1.59,1.12-2.44,1.65c-1.86,1.06-3.93,1.97-6.11,2.6c-1.7,0.48-3.4,0.69-4.99,0.9
							c-0.42,0.05-0.85,0.11-1.22,0.16c-0.53,0.05-1.06,0.16-1.65,0.32c-0.37,0.05-0.69,0.16-1.06,0.21
							c-0.11,0.05-0.32,0.11-0.53,0.16c-0.16,0.05-0.37,0.11-0.53,0.16c-2.66,0.69-5.21,1.7-7.54,2.97
							c-3.08,1.65-5.58,3.61-7.54,5.95c-1.59,1.86-2.82,3.88-3.67,6C169.67,120.74,169.14,123.24,169.2,125.63z"/>
					</g>
					<g>
						<path class="st0" d="M186.19,146.35c-1.86,0-3.77-0.21-5.58-0.64c-3.35-0.8-6.37-2.34-8.87-4.52c-2.92-2.5-4.94-5.63-6.11-9.3
							c-0.58-1.97-0.9-4.04-0.96-6.21c0-3.03,0.58-6.06,1.81-9.03c1.06-2.55,2.55-4.99,4.41-7.22c2.39-2.76,5.26-5.1,8.87-7.01
							c2.66-1.43,5.52-2.55,8.5-3.35c0.11-0.05,0.21-0.05,0.32-0.11c0.32-0.11,0.69-0.21,1.12-0.32c0.21-0.05,0.48-0.11,0.69-0.11
							l0.42-0.05c0.58-0.11,1.17-0.27,1.81-0.32l1.38-0.16c1.49-0.21,2.92-0.37,4.2-0.74c1.86-0.53,3.56-1.27,5.15-2.18
							c0.69-0.42,1.43-0.9,2.12-1.38l0.74-0.53c2.23-1.54,4.78-1.81,7.38-0.8c0.48,0.16,0.96,0.42,1.38,0.69l6.64-5.15
							c0.05-0.05,0.11-0.05,0.16-0.11c-0.21-1.75,0.11-3.45,0.9-5.1c1.06-2.12,2.76-3.67,4.99-4.46c2.76-1.01,5.58-0.74,8.07,0.8
							c1.86,1.12,3.24,2.82,3.88,4.89c2.92,1.81,4.57,4.99,4.3,8.45c-0.32,4.25-3.61,7.81-7.91,8.39c-1.59,0.21-3.13,0.05-4.57-0.48
							c-0.37,0.32-0.8,0.58-1.17,0.9c-0.48,0.37-1.01,0.74-1.49,1.17c-0.74,0.58-1.49,1.12-2.23,1.7l-1.91,1.49
							c0.27,0.8,0.37,1.65,0.37,2.5c0,2.5-1.01,4.62-2.92,6.11c-1.49,1.17-2.66,2.28-3.72,3.56c-1.59,1.91-2.87,4.2-3.82,6.85
							c-0.85,2.34-2.07,4.73-3.72,7.22c-1.54,2.34-3.29,4.52-5.21,6.37c-2.07,2.02-4.36,3.72-6.8,5.05
							c-1.91,1.01-3.93,1.81-6.06,2.39c-1.65,0.42-3.4,0.74-5.26,0.85C187.31,146.35,186.83,146.35,186.19,146.35z M210.58,93.28
							c-1.22,0-2.39,0.37-3.45,1.12l-0.74,0.53c-0.74,0.53-1.43,1.01-2.23,1.49c-1.65,0.96-3.51,1.75-5.47,2.34
							c-1.43,0.42-2.92,0.64-4.46,0.8l-1.38,0.16c-0.58,0.11-1.17,0.21-1.75,0.32l-0.42,0.11c-0.21,0.05-0.48,0.11-0.69,0.16
							c-0.32,0.05-0.64,0.16-0.9,0.21c-0.11,0.05-0.27,0.11-0.42,0.11c-2.82,0.74-5.58,1.86-8.13,3.24
							c-3.4,1.86-6.16,3.98-8.39,6.64c-1.81,2.12-3.19,4.41-4.14,6.8c-1.12,2.76-1.7,5.58-1.7,8.39c0,2.02,0.32,3.98,0.85,5.74
							c1.06,3.4,2.97,6.27,5.63,8.55c2.34,2.02,5.1,3.4,8.23,4.14c1.7,0.42,3.45,0.64,5.21,0.64c0.58,0,0.96,0,1.33-0.05
							c1.75-0.11,3.4-0.37,4.99-0.8c2.02-0.53,3.93-1.27,5.68-2.23c2.34-1.27,4.46-2.87,6.43-4.78c1.86-1.81,3.51-3.88,4.99-6.16
							c1.59-2.39,2.71-4.62,3.56-6.91c1.06-2.87,2.39-5.26,4.14-7.33c1.12-1.33,2.39-2.55,3.93-3.77c1.49-1.17,2.28-2.87,2.34-4.89
							c0-0.85-0.16-1.7-0.48-2.44l-0.27-0.58l2.82-2.18c0.74-0.58,1.49-1.17,2.23-1.7c0.48-0.37,1.01-0.74,1.49-1.17
							c0.53-0.37,1.01-0.8,1.54-1.17l0.37-0.27l0.42,0.21c1.27,0.58,2.66,0.74,4.14,0.58c3.51-0.48,6.27-3.4,6.53-6.91
							c0.21-2.92-1.22-5.63-3.77-7.12l-0.27-0.16l-0.11-0.32c-0.53-1.81-1.65-3.29-3.29-4.3c-2.12-1.27-4.41-1.49-6.69-0.64
							c-1.86,0.69-3.24,1.91-4.14,3.72c-0.74,1.43-0.96,2.97-0.69,4.57l0.11,0.48l-0.37,0.32c-0.16,0.11-0.32,0.27-0.48,0.37
							l-7.6,5.84l-0.48-0.37c-0.48-0.32-0.96-0.64-1.54-0.85C212.22,93.44,211.37,93.28,210.58,93.28z M186.19,142.68
							c-1.59,0-3.13-0.21-4.73-0.58c-2.82-0.69-5.26-1.91-7.38-3.72c-2.39-2.07-4.04-4.57-4.99-7.6c-0.48-1.59-0.74-3.35-0.74-5.15
							l0,0c0-2.55,0.53-5.1,1.54-7.6c0.9-2.18,2.18-4.3,3.82-6.21c2.07-2.44,4.62-4.46,7.81-6.16c2.39-1.27,4.99-2.34,7.7-3.03
							c0.16-0.05,0.32-0.11,0.48-0.16c0.27-0.05,0.48-0.16,0.64-0.16c0.37-0.05,0.69-0.16,1.06-0.21c0.58-0.11,1.17-0.21,1.7-0.32
							c0.42-0.05,0.85-0.11,1.22-0.16c1.59-0.21,3.24-0.42,4.89-0.9c2.12-0.64,4.09-1.49,5.95-2.5c0.8-0.48,1.54-1.01,2.28-1.49
							l0.37-0.27c0.16-0.11,0.32-0.27,0.53-0.37c1.22-0.85,2.5-0.96,3.98-0.42c0.64,0.27,1.22,0.64,1.7,1.17
							c0.48,0.53,1.22,0.58,1.81,0.16c1.06-0.85,2.18-1.7,3.29-2.5l3.98-3.03c0.21-0.16,0.48-0.37,0.69-0.53l0.32-0.27
							c0.32-0.27,0.64-0.53,1.01-0.74c0.58-0.42,0.8-1.01,0.58-1.7c-0.37-1.38-0.27-2.66,0.37-3.93c0.64-1.27,1.65-2.18,3.03-2.66
							c1.7-0.64,3.35-0.48,4.89,0.48c1.27,0.74,2.07,1.86,2.39,3.35c0.16,0.58,0.48,1.01,1.06,1.33c1.97,1.01,3.13,3.03,2.97,5.26
							c-0.21,2.5-2.23,4.67-4.73,4.99c-1.33,0.16-2.5-0.05-3.56-0.69c-0.58-0.32-1.22-0.27-1.75,0.16l-0.27,0.21
							c-0.64,0.48-1.27,0.96-1.91,1.43l-1.49,1.17c-0.74,0.58-1.49,1.17-2.23,1.7c-0.69,0.53-1.33,1.06-2.02,1.59
							c-0.48,0.37-0.9,0.69-1.33,1.01c-0.64,0.48-0.8,1.17-0.32,1.86c0.53,0.74,0.74,1.59,0.74,2.44c0,1.38-0.48,2.44-1.54,3.24
							c-1.7,1.33-3.08,2.66-4.25,4.09c-1.86,2.23-3.35,4.83-4.46,7.97c-0.74,2.07-1.86,4.2-3.35,6.48
							c-1.38,2.12-2.97,4.09-4.73,5.79c-1.81,1.81-3.82,3.29-5.95,4.46c-1.65,0.9-3.4,1.59-5.21,2.07
							c-1.43,0.37-2.97,0.64-4.52,0.74C187.04,142.63,186.62,142.68,186.19,142.68z M169.99,125.63c0,1.65,0.27,3.24,0.69,4.67
							c0.85,2.76,2.34,5.05,4.52,6.85c1.91,1.65,4.14,2.76,6.69,3.35c1.81,0.42,3.67,0.58,5.52,0.48c1.49-0.11,2.92-0.32,4.25-0.69
							c1.7-0.42,3.35-1.12,4.89-1.91c2.02-1.06,3.88-2.5,5.63-4.2c1.65-1.65,3.19-3.51,4.52-5.52c1.43-2.18,2.44-4.2,3.19-6.16
							c1.22-3.24,2.76-6,4.73-8.39c1.27-1.49,2.71-2.92,4.52-4.3c0.64-0.48,0.9-1.06,0.9-1.97c0-0.53-0.16-1.06-0.48-1.54
							c-0.9-1.38-0.64-3.08,0.74-4.04c0.37-0.27,0.8-0.58,1.27-0.96c0.69-0.53,1.33-1.06,2.02-1.54c0.74-0.58,1.49-1.17,2.23-1.7
							l1.49-1.17c0.64-0.48,1.27-0.96,1.91-1.43l0.27-0.21c1.06-0.8,2.39-0.9,3.51-0.27c0.8,0.48,1.59,0.58,2.55,0.48
							c1.75-0.27,3.19-1.75,3.35-3.56c0.11-1.54-0.69-3.03-2.12-3.72c-0.96-0.48-1.65-1.33-1.86-2.39c-0.27-1.06-0.8-1.81-1.7-2.34
							c-1.17-0.69-2.28-0.8-3.51-0.32c-1.01,0.37-1.65,0.96-2.12,1.91c-0.42,0.9-0.53,1.75-0.27,2.76c0.37,1.27-0.11,2.55-1.17,3.4
							c-0.32,0.27-0.64,0.48-0.96,0.74l-0.32,0.27c-0.21,0.16-0.48,0.37-0.69,0.53l-3.98,3.03c-1.12,0.85-2.18,1.7-3.24,2.5
							c-1.22,0.96-2.92,0.8-3.98-0.32c-0.32-0.32-0.64-0.58-1.06-0.74c-1.01-0.37-1.75-0.32-2.5,0.21
							c-0.16,0.11-0.32,0.21-0.48,0.37l-0.37,0.27c-0.74,0.53-1.54,1.06-2.39,1.59c-1.91,1.12-4.04,2.02-6.27,2.66
							c-1.75,0.53-3.56,0.74-5.15,0.96c-0.42,0.05-0.8,0.11-1.22,0.16c-0.53,0.05-1.06,0.16-1.59,0.27
							c-0.37,0.05-0.74,0.16-1.12,0.21c-0.11,0-0.27,0.05-0.42,0.11c-0.16,0.05-0.37,0.11-0.58,0.16c-2.6,0.69-5.05,1.7-7.38,2.92
							c-2.97,1.59-5.37,3.51-7.33,5.79c-1.54,1.81-2.76,3.77-3.56,5.79C170.47,120.95,169.99,123.29,169.99,125.63z"/>
					</g>
				</g>
			</g>
			<g>
				<g>
					<g>
						<path class="st0" d="M215.89,107.36l-0.9-1.01c-0.85-1.01-0.27-2.12,0-2.6c0.16-0.32,0.42-0.69,0.69-1.17
							c0,0,0-0.05,0.05-0.05c-0.8,0.05-1.59-0.32-2.02-1.06c-0.48-0.8-0.37-1.75,0.16-2.5c0.42-0.58,0.8-1.27,1.06-1.75l0.64-2.87
							l1.81,0.42c0.64,0.16,1.17,0.58,1.38,1.17c0.16,0.37,0.32,0.8-0.05,1.75l0.32-0.11l0.53,0.11c0.58,0.16,1.12,0.58,1.33,1.17
							c0.21,0.48,0.21,0.96,0.05,1.54h0.16c0.64,0,1.27,0.27,1.7,0.69c0.42,0.42,0.69,1.06,0.69,1.7l-0.05,2.02l-2.97-0.05
							l-3.24,1.97L215.89,107.36z"/>
					</g>
				</g>
			</g>
		</g>
		<g>
			<g>
				<g>
					<path class="st0" d="M186.25,138.32c-0.05,0-0.05,0-0.11,0c-7.06-0.74-10.68-4.73-12.43-7.91c-1.91-3.45-2.12-6.69-2.12-6.85
						c-0.05-0.53,0.37-1.01,0.9-1.06s1.01,0.37,1.06,0.9c0.05,0.48,0.96,11.69,12.8,12.91c0.53,0.05,0.96,0.53,0.9,1.06
						C187.2,137.95,186.78,138.32,186.25,138.32z"/>
				</g>
			</g>
		</g>
		<g>
			<g>
				<g>
					<path class="st0" d="M189.54,138.32C189.49,138.32,189.49,138.32,189.54,138.32c-0.58,0-1.01-0.42-1.01-1.01
						c0-0.58,0.42-0.96,0.96-0.96l0,0l0,0l0,0c0.11,0,3.82,0,6.96-2.12c0.48-0.32,1.06-0.16,1.38,0.27s0.21,1.06-0.27,1.38
						C194,138.27,189.97,138.32,189.54,138.32z"/>
				</g>
			</g>
		</g>
	</g>
	<g>
		<g>
			<g>
				<g>
					<path class="st0" d="M145.13,57.64c-4.3,0-8.13-2.18-9.77-5.74c-2.12-4.46-0.48-9.61,4.09-12.8c1.86-1.27,2.76-2.44,3.29-4.04
						c2.87-8.5,8.29-8.82,11.31-8.29c5.42,1.01,8.66,5.47,8.66,11.95l0,0c0,8.66-6.75,17.05-15.09,18.7
						C146.83,57.53,145.98,57.64,145.13,57.64z M152.14,30.23c-1.65,0-4.2,0.8-5.9,5.95c-1.01,3.03-2.92,4.67-4.67,5.9
						c-3.08,2.18-4.2,5.37-2.87,8.18c1.27,2.71,4.73,4.14,8.23,3.45c6.53-1.27,12.11-8.18,12.11-15.09c0-3.29-0.96-7.44-5.68-8.29
						C153.1,30.28,152.68,30.23,152.14,30.23z"/>
				</g>
				<g>
					<path class="st0" d="M145.13,58.43c-4.67,0-8.71-2.39-10.52-6.21c-2.28-4.83-0.53-10.36,4.36-13.81
						c1.7-1.22,2.55-2.18,3.03-3.67c3.03-9.08,8.98-9.4,12.22-8.82c5.84,1.06,9.35,5.84,9.35,12.7c0,9.03-7.06,17.79-15.72,19.49
						C146.94,58.33,146.04,58.43,145.13,58.43z M152.25,27.36c-2.82,0-6.59,1.38-8.76,7.91c-0.58,1.81-1.65,3.08-3.61,4.46
						c-4.2,2.97-5.74,7.7-3.82,11.79c1.54,3.24,4.99,5.26,9.08,5.26c0.8,0,1.59-0.05,2.34-0.21c7.97-1.54,14.45-9.61,14.45-17.9
						c0-6.06-3.03-10.2-8.02-11.16C153.42,27.41,152.89,27.36,152.25,27.36z M145.19,54.71c-3.19,0-6.06-1.54-7.22-4.09
						c-1.49-3.19-0.27-6.8,3.13-9.19c1.65-1.17,3.45-2.71,4.41-5.52c1.81-5.37,4.62-6.48,6.69-6.48c0.58,0,1.12,0.11,1.38,0.16
						c4.09,0.74,6.32,3.98,6.32,9.08c0,7.22-5.84,14.5-12.75,15.88C146.46,54.66,145.82,54.71,145.19,54.71z M152.2,31.02
						c-2.23,0-3.93,1.81-5.15,5.42c-1.06,3.24-3.13,4.99-4.99,6.32c-2.76,1.91-3.77,4.73-2.6,7.22c1.12,2.34,4.2,3.61,7.38,3.03
						c6.21-1.22,11.47-7.76,11.47-14.29c0-4.36-1.7-6.91-4.99-7.54C152.94,31.08,152.57,31.02,152.2,31.02z"/>
				</g>
			</g>
		</g>
		<g>
			<g>
				<g>
					<path class="st0" d="M138.97,40c-1.12,0.85-0.64,2.6,0.74,2.71c1.27,0.11,3.08-0.37,5.58-2.34c0,0,4.83-3.88,0.42-7.49
						c-0.8-0.64-2.02-0.27-2.34,0.74C143.01,35.33,141.84,37.82,138.97,40z"/>
				</g>
				<g>
					<path class="st0" d="M140.03,43.51c-0.11,0-0.27,0-0.37,0c-0.96-0.05-1.75-0.69-2.02-1.59c-0.27-0.96,0.05-1.91,0.8-2.5l0,0
						c2.66-2.07,3.77-4.36,4.2-5.95c0.21-0.74,0.74-1.33,1.49-1.54s1.54-0.05,2.12,0.42c1.43,1.17,2.12,2.55,2.12,3.98
						c0,2.66-2.5,4.62-2.6,4.73C143.65,42.66,141.73,43.51,140.03,43.51z M139.45,40.64L139.45,40.64c-0.32,0.21-0.32,0.58-0.27,0.8
						c0.05,0.16,0.16,0.42,0.58,0.48c1.33,0.11,3.08-0.64,5.05-2.18c0,0,1.97-1.59,1.97-3.51c0-0.96-0.53-1.91-1.54-2.76
						c-0.21-0.21-0.48-0.16-0.58-0.11c-0.11,0.05-0.37,0.16-0.42,0.42C143.7,35.64,142.48,38.3,139.45,40.64z"/>
				</g>
			</g>
		</g>
	</g>
	<g>
		<g>
			<g>
				<g>
					<path class="st0" d="M182.32,57.95c-4.09,1.22-8.39,0.27-11.05-2.66c-3.29-3.67-3.24-9.08,0.21-13.44
						c1.38-1.75,1.97-3.13,2.02-4.83c0.27-8.98,5.42-10.84,8.45-11.21c5.47-0.58,9.88,2.71,11.74,8.92l0,0
						c2.5,8.29-1.54,18.27-9.03,22.26C183.91,57.37,183.11,57.69,182.32,57.95z M181.09,29.7c-1.59,0.48-3.77,2.02-3.93,7.44
						c-0.11,3.19-1.49,5.31-2.76,7.01c-2.34,2.97-2.44,6.37-0.37,8.66c2.02,2.23,5.74,2.6,8.92,0.9c5.9-3.13,9.19-11.31,7.22-17.95
						c-0.96-3.19-3.08-6.85-7.81-6.32C182.05,29.54,181.63,29.54,181.09,29.7z"/>
				</g>
				<g>
					<path class="st0" d="M178.76,59.28c-3.13,0-6.06-1.22-8.07-3.45c-3.56-3.98-3.51-9.77,0.16-14.45
						c1.27-1.65,1.81-2.82,1.81-4.36c0.32-9.56,5.84-11.58,9.14-11.95c5.9-0.64,10.62,2.87,12.59,9.46
						c2.6,8.66-1.59,19.07-9.4,23.21c-0.8,0.42-1.65,0.74-2.5,1.01l0,0C181.31,59.07,180.03,59.28,178.76,59.28z M183.17,26.56
						c-0.37,0-0.74,0-1.17,0.05c-3.4,0.37-7.49,2.5-7.7,10.41c-0.05,1.86-0.69,3.4-2.18,5.31c-3.19,4.04-3.29,9.03-0.27,12.38
						c2.39,2.66,6.32,3.61,10.2,2.44c0.74-0.21,1.49-0.53,2.18-0.9c7.17-3.77,11.05-13.39,8.61-21.3
						C191.29,29.64,187.68,26.56,183.17,26.56z M178.86,55.56c-2.12,0-4.09-0.74-5.42-2.23c-2.39-2.6-2.23-6.43,0.32-9.72
						c1.22-1.59,2.55-3.61,2.6-6.53c0.16-5.68,2.55-7.54,4.52-8.18l0,0c0.58-0.16,1.06-0.21,1.33-0.27
						c4.09-0.48,7.22,1.97,8.66,6.85c2.07,6.96-1.38,15.56-7.6,18.86C181.84,55.19,180.3,55.56,178.86,55.56z M181.36,30.44
						c-2.12,0.64-3.24,2.87-3.35,6.69c-0.11,3.4-1.54,5.68-2.97,7.49c-2.07,2.6-2.23,5.63-0.42,7.65c1.75,1.91,5.1,2.23,7.91,0.74
						c5.58-2.97,8.71-10.73,6.85-17c-1.27-4.2-3.61-6.11-6.96-5.74C182.16,30.28,181.79,30.33,181.36,30.44z"/>
				</g>
			</g>
		</g>
		<g>
			<g>
				<g>
					<path class="st0" d="M171.32,42.87c-0.8,1.12,0.16,2.66,1.49,2.39c1.22-0.27,2.82-1.27,4.67-3.82c0,0,3.51-5.1-1.75-7.28
						c-0.96-0.42-2.02,0.32-2.02,1.38C173.82,37.24,173.39,39.95,171.32,42.87z"/>
				</g>
				<g>
					<path class="st0" d="M172.49,46.06c-0.74,0-1.49-0.37-1.91-1.01c-0.53-0.8-0.53-1.86,0.05-2.66c1.97-2.71,2.34-5.26,2.28-6.91
						c0-0.74,0.37-1.49,1.01-1.91c0.64-0.42,1.43-0.53,2.12-0.21c1.7,0.74,2.76,1.81,3.19,3.24c0.74,2.55-1.01,5.15-1.12,5.26
						c-1.7,2.39-3.45,3.77-5.15,4.2C172.81,46.06,172.65,46.06,172.49,46.06z M175.2,34.79c-0.16,0-0.32,0.05-0.37,0.11
						c-0.11,0.05-0.32,0.21-0.27,0.53c0.05,1.91-0.37,4.78-2.6,7.86l0,0c-0.27,0.37-0.11,0.74,0,0.85c0.05,0.11,0.32,0.37,0.69,0.27
						c1.27-0.27,2.76-1.49,4.2-3.51c0,0,1.43-2.07,0.9-3.93c-0.27-0.9-1.06-1.65-2.28-2.18C175.36,34.79,175.3,34.79,175.2,34.79z"
						/>
				</g>
			</g>
		</g>
	</g>
	<g>
		<g>
			<g>
				<g>
					<path class="st0" d="M161.71,79.95c-2.97,0.9-6.06,0.21-7.91-1.91c-2.39-2.66-2.34-6.53,0.16-9.67
						c1.01-1.27,1.38-2.23,1.43-3.51c0.21-6.48,3.88-7.81,6.06-8.07c3.93-0.42,7.12,1.97,8.45,6.43l0,0
						c1.81,6-1.12,13.17-6.48,16.04C162.87,79.52,162.29,79.73,161.71,79.95z M160.86,59.6c-1.12,0.32-2.71,1.43-2.82,5.37
						c-0.05,2.28-1.06,3.82-2.02,5.05c-1.65,2.12-1.75,4.57-0.27,6.27c1.43,1.59,4.14,1.86,6.43,0.64
						c4.25-2.23,6.64-8.18,5.21-12.91c-0.69-2.28-2.23-4.94-5.63-4.57C161.55,59.44,161.23,59.5,160.86,59.6z"/>
				</g>
				<g>
					<path class="st0" d="M159.16,81.11c-2.34,0-4.46-0.9-6-2.55c-2.66-2.92-2.6-7.22,0.11-10.68c0.9-1.12,1.22-1.97,1.27-3.03
						c0.21-7.33,4.83-8.61,6.8-8.82c4.36-0.48,7.86,2.12,9.3,6.96c1.91,6.32-1.17,13.92-6.91,16.95c-0.58,0.32-1.17,0.58-1.81,0.74
						C161.02,80.96,160.11,81.11,159.16,81.11z M162.34,57.53c-0.27,0-0.53,0-0.8,0.05c-2.34,0.27-5.21,1.75-5.37,7.28
						c-0.05,1.43-0.53,2.55-1.59,3.98c-2.23,2.82-2.28,6.32-0.16,8.66c1.7,1.86,4.41,2.5,7.12,1.7l0,0
						c0.53-0.16,1.06-0.37,1.54-0.64c5.1-2.71,7.81-9.46,6.11-15.09C168.03,59.65,165.48,57.53,162.34,57.53z M159.21,78.41
						c-1.59,0-3.08-0.58-4.04-1.65c-1.81-1.97-1.7-4.83,0.21-7.28c0.9-1.17,1.75-2.55,1.86-4.57c0.11-4.2,1.91-5.63,3.4-6.06
						c0.37-0.11,0.74-0.16,0.96-0.16h0.05c3.08-0.32,5.37,1.49,6.48,5.1c1.54,5.1-1.01,11.42-5.58,13.86
						C161.49,78.14,160.32,78.41,159.21,78.41z M162.34,60.19c-0.16,0-0.37,0-0.53,0.05c-0.21,0.05-0.48,0.05-0.74,0.16l0,0
						c-1.43,0.42-2.18,1.97-2.28,4.62c-0.05,2.5-1.17,4.2-2.18,5.52c-1.43,1.81-1.54,3.88-0.32,5.21s3.51,1.54,5.42,0.48
						c3.93-2.07,6.16-7.6,4.83-12C165.8,61.51,164.36,60.19,162.34,60.19z"/>
				</g>
			</g>
		</g>
		<g>
			<g>
				<g>
					<path class="st0" d="M153.79,69.06c-0.58,0.8,0.11,1.91,1.06,1.7c0.9-0.21,2.02-0.9,3.35-2.76c0,0,2.55-3.67-1.27-5.26
						c-0.69-0.32-1.49,0.21-1.43,1.01C155.6,65.02,155.33,66.99,153.79,69.06z"/>
				</g>
				<g>
					<path class="st0" d="M154.64,71.61c-0.64,0-1.17-0.32-1.54-0.85c-0.42-0.64-0.42-1.49,0.05-2.18l0,0
						c1.38-1.91,1.65-3.67,1.59-4.83c0-0.64,0.27-1.22,0.8-1.59c0.53-0.37,1.17-0.42,1.75-0.16c1.27,0.53,2.12,1.38,2.44,2.44
						c0.58,1.91-0.74,3.88-0.85,3.98c-1.27,1.81-2.55,2.82-3.88,3.08C154.91,71.61,154.8,71.61,154.64,71.61z M154.43,69.53
						c-0.11,0.16-0.05,0.32,0,0.37c0.05,0.11,0.16,0.16,0.27,0.11c0.64-0.11,1.59-0.64,2.87-2.44c0,0,0.96-1.43,0.58-2.6
						c-0.16-0.58-0.69-1.06-1.54-1.43c-0.11-0.05-0.16,0-0.21,0.05c-0.05,0.05-0.11,0.11-0.11,0.21
						C156.39,65.13,156.08,67.25,154.43,69.53z"/>
				</g>
			</g>
		</g>
	</g>
</g>
</svg>
