<?xml version="1.0" encoding="utf-8"?>
<!-- Generator: Adobe Illustrator 26.3.1, SVG Export Plug-In . SVG Version: 6.00 Build 0)  -->
<svg version="1.1" id="Capa_1" xmlns="http://www.w3.org/2000/svg" xmlns:xlink="http://www.w3.org/1999/xlink" x="0px" y="0px"
	 viewBox="0 0 300 300" width="300" heigh="300" style="enable-background:new 0 0 300 300;" xml:space="preserve">
<style type="text/css">
	.st0{fill:#FFFFFF;}
</style>
<g>
	<g>
		<g>
			<path class="st0" d="M238.8,252.4H61.2c-9.39,0-18.32-2.91-25.06-8.09C28.95,238.74,25,231.23,25,223.14V102.83
				c0-16.12,16.25-29.27,36.2-29.27H238.8c19.94,0,36.2,13.14,36.2,29.27v120.31C275,239.26,258.75,252.4,238.8,252.4z M61.26,84.57
				c-13.86,0-25.19,8.22-25.19,18.26v120.31c0,4.6,2.46,9.07,6.86,12.43c4.86,3.76,11.33,5.83,18.32,5.83h177.61
				c13.86,0,25.19-8.22,25.19-18.26V102.83c0-10.1-11.27-18.26-25.19-18.26H61.26z"/>
		</g>
	</g>
	<g>
		<g>
			<g>
				<path class="st0" d="M52.97,72.92c0-14.31,8.22-25.32,19.55-25.32c11.01,0,19.55,11.91,19.55,27.13
					c0,10.75-4.27,19.88-10.68,24.28c-3.82,2.65-8.87-0.26-8.87-5.12l0,0c0-2.07,0.97-3.95,2.59-5.05c2.98-2.01,5.5-7.25,5.5-14.12
					c0-8.87-4.27-15.02-8.09-15.02c-4.86,0-8.09,5.63-8.09,13.14L52.97,72.92L52.97,72.92L52.97,72.92z"/>
			</g>
		</g>
	</g>
	<g>
		<g>
			<g>
				<path class="st0" d="M122.51,72.92c0-14.31,8.22-25.32,19.55-25.32c11.01,0,19.55,11.91,19.55,27.13
					c0,10.75-4.27,19.88-10.68,24.28c-3.82,2.65-8.87-0.26-8.87-5.12l0,0c0-2.07,0.97-3.95,2.59-5.05c2.98-2.01,5.5-7.25,5.5-14.12
					c0-8.87-4.27-15.02-8.09-15.02c-4.86,0-8.09,5.63-8.09,13.14L122.51,72.92L122.51,72.92L122.51,72.92z"/>
			</g>
		</g>
	</g>
	<g>
		<g>
			<g>
				<path class="st0" d="M194.39,72.92c0-14.31,8.22-25.32,19.55-25.32c11.01,0,19.55,11.91,19.55,27.13
					c0,10.75-4.27,19.88-10.68,24.28c-3.82,2.65-8.87-0.26-8.87-5.12l0,0c0-2.07,0.97-3.95,2.59-5.05c2.98-2.01,5.5-7.25,5.5-14.12
					c0-8.87-4.27-15.02-8.09-15.02c-4.86,0-8.09,5.63-8.09,13.14L194.39,72.92L194.39,72.92L194.39,72.92z"/>
			</g>
		</g>
	</g>
	<g>
		<g>
			<g>
				<path class="st0" d="M236.8,152.56h-33.61c-3.37,0-6.15-2.78-6.15-6.15c0-3.37,2.78-6.15,6.15-6.15h33.61
					c3.37,0,6.15,2.78,6.15,6.15C242.95,149.77,240.16,152.56,236.8,152.56z"/>
			</g>
		</g>
		<g>
			<g>
				<path class="st0" d="M166.41,152.56h-33.61c-3.37,0-6.15-2.78-6.15-6.15c0-3.37,2.78-6.15,6.15-6.15h33.54
					c3.37,0,6.15,2.78,6.15,6.15C172.5,149.77,169.78,152.56,166.41,152.56z"/>
			</g>
		</g>
		<g>
			<g>
				<path class="st0" d="M96.87,152.56H63.33c-3.37,0-6.15-2.78-6.15-6.15c0-3.37,2.78-6.15,6.15-6.15h33.54
					c3.37,0,6.15,2.78,6.15,6.15C103.02,149.77,100.24,152.56,96.87,152.56z"/>
			</g>
		</g>
		<g>
			<g>
				<path class="st0" d="M236.8,186.49h-33.61c-3.37,0-6.15-2.78-6.15-6.15s2.78-6.15,6.15-6.15h33.61c3.37,0,6.15,2.78,6.15,6.15
					S240.16,186.49,236.8,186.49z"/>
			</g>
		</g>
		<g>
			<g>
				<path class="st0" d="M168.1,186.49h-33.61c-3.37,0-6.15-2.78-6.15-6.15s2.78-6.15,6.15-6.15h33.61c3.37,0,6.15,2.78,6.15,6.15
					S171.46,186.49,168.1,186.49z"/>
			</g>
		</g>
		<g>
			<g>
				<path class="st0" d="M96.87,186.49H63.33c-3.37,0-6.15-2.78-6.15-6.15s2.78-6.15,6.15-6.15h33.54c3.37,0,6.15,2.78,6.15,6.15
					S100.24,186.49,96.87,186.49z"/>
			</g>
		</g>
		<g>
			<g>
				<path class="st0" d="M236.8,220.42h-33.61c-3.37,0-6.15-2.78-6.15-6.15c0-3.37,2.78-6.15,6.15-6.15h33.61
					c3.37,0,6.15,2.78,6.15,6.15C242.95,217.63,240.16,220.42,236.8,220.42z"/>
			</g>
		</g>
		<g>
			<g>
				<path class="st0" d="M168.1,220.42h-33.61c-3.37,0-6.15-2.78-6.15-6.15c0-3.37,2.78-6.15,6.15-6.15h33.61
					c3.37,0,6.15,2.78,6.15,6.15C174.25,217.63,171.46,220.42,168.1,220.42z"/>
			</g>
		</g>
		<g>
			<g>
				<path class="st0" d="M96.87,220.42H63.33c-3.37,0-6.15-2.78-6.15-6.15c0-3.37,2.78-6.15,6.15-6.15h33.54
					c3.37,0,6.15,2.78,6.15,6.15C103.02,217.63,100.24,220.42,96.87,220.42z"/>
			</g>
		</g>
	</g>
	<g>
		<g>
			<path class="st0" d="M269.5,121.8H30.57c-2.33,0-4.21-1.88-4.21-4.21s1.88-4.21,4.21-4.21H269.5c2.33,0,4.21,1.88,4.21,4.21
				S271.83,121.8,269.5,121.8z"/>
		</g>
	</g>
</g>
</svg>
