<?xml version="1.0" encoding="utf-8"?>
<!-- Generator: Adobe Illustrator 26.3.1, SVG Export Plug-In . SVG Version: 6.00 Build 0)  -->
<svg version="1.1" id="Capa_1" xmlns="http://www.w3.org/2000/svg" xmlns:xlink="http://www.w3.org/1999/xlink" x="0px" y="0px"
	 viewBox="0 0 300 300" width="300" heigh="300" style="enable-background:new 0 0 300 300;" xml:space="preserve">
<style type="text/css">
	.st0{fill:#FFFFFF;stroke:#FFFFFF;stroke-width:3;stroke-miterlimit:10;}
	.st1{fill:none;stroke:#FFFFFF;stroke-width:17;stroke-linecap:round;stroke-linejoin:round;stroke-miterlimit:10;}
	.st2{fill:#FFFFFF;stroke:#FFFFFF;stroke-width:6;stroke-miterlimit:10;}
	.st3{fill:#FFFFFF;}
</style>
<g>
	<g>
		<g>
			<path class="st0" d="M184.44,275h-82.06c-6.63,0-12.05-5.42-12.05-12.05v-25.1c0-29.25,23.83-53.08,53.08-53.08
				s53.08,23.83,53.08,53.08v25.1C196.49,269.58,191.06,275,184.44,275z M143.41,194.48c-23.9,0-43.37,19.48-43.37,43.37v25.1
				c0,1.27,1,2.28,2.28,2.28h82.06c1.27,0,2.28-1,2.28-2.28v-25.1C186.71,213.96,167.3,194.48,143.41,194.48z"/>
		</g>
		<g>
			<path class="st0" d="M143.41,180.15c-18.61,0-33.73-16.73-33.73-37.35s15.13-37.35,33.73-37.35c18.61,0,33.73,16.73,33.73,37.35
				S162.01,180.15,143.41,180.15z M143.41,115.23c-13.25,0-23.96,12.38-23.96,27.58s10.78,27.58,23.96,27.58
				c13.19,0,23.96-12.38,23.96-27.58S156.66,115.23,143.41,115.23z"/>
		</g>
	</g>
	<path class="st1" d="M93.61,135.24H75.67c-18.94,0-34.34,15.39-34.34,34.34v66.13c0,18.94,15.39,34.34,34.34,34.34h134.81
		c18.94,0,34.34-15.39,34.34-34.34v-66.13c0-18.94-15.39-34.34-34.34-34.34h-17.8"/>
	<g>
		<path class="st2" d="M189.06,102.71c-0.4,0-0.8-0.07-1.14-0.2c-0.87-0.33-1.54-1.07-1.81-2.01l-2.48-8.63
			c-0.33-1.27-1.47-2.14-2.81-2.14h-8.43c-4.28,0-7.76-3.48-7.76-7.76v-49.2c0-4.28,3.48-7.76,7.76-7.76h78.51
			c4.28,0,7.76,3.48,7.76,7.76v49.2c0,4.28-3.48,7.76-7.76,7.76h-37.88c-0.54,0-1,0.13-1.47,0.4l-20.88,12.18
			C190.13,102.58,189.59,102.71,189.06,102.71z M172.39,29.82c-1.61,0-2.88,1.34-2.88,2.88v49.2c0,1.61,1.34,2.88,2.88,2.88h8.43
			c3.48,0,6.56,2.34,7.5,5.62l1.87,6.49l18.94-11.04c1.2-0.67,2.54-1.07,3.88-1.07h37.88c1.61,0,2.88-1.34,2.88-2.88V32.7
			c0-1.61-1.34-2.88-2.88-2.88H172.39L172.39,29.82z"/>
	</g>
	<g>
		<circle class="st3" cx="190.6" cy="56.19" r="6.16"/>
		<circle class="st3" cx="211.61" cy="56.19" r="6.16"/>
		<circle class="st3" cx="232.7" cy="56.19" r="6.16"/>
	</g>
</g>
</svg>
