<?xml version="1.0" encoding="utf-8"?>
<!-- Generator: Adobe Illustrator 26.3.1, SVG Export Plug-In . SVG Version: 6.00 Build 0)  -->
<svg version="1.1" id="Capa_1" xmlns="http://www.w3.org/2000/svg" xmlns:xlink="http://www.w3.org/1999/xlink" x="0px" y="0px"
	 viewBox="0 0 300 300" width="300" heigh="300" style="enable-background:new 0 0 300 300;" xml:space="preserve">
<style type="text/css">
	.st0{fill:#FFFFFF;}
</style>
<g>
	<g>
		<path class="st0" d="M237.12,146.67c0,31.05,0.06,59.44,0,87.9c-0.06,20.89-8.33,29.34-28.96,29.53
			c-8.01,0.06-16.09-0.32-24.1,0.06c-8.52,0.44-11.74-3.03-11.55-11.55c0.38-18.99,0.19-37.92,0.06-56.92
			c-0.06-12.68-1.96-14.45-14.77-14.58c-33.57-0.19-30.6-1.7-30.67,29.72c0,13.88-0.25,27.7,0.06,41.58
			c0.19,8.2-2.59,12.24-11.36,11.74c-8.33-0.5-16.78,0.06-25.18-0.13c-17.61-0.44-27.01-9.59-27.2-27.32
			c-0.32-27.01-0.13-54.01-0.13-80.96c0-2.15-0.32-4.29-0.44-6.5c-5.24-1.26-7.45,2.97-10.35,5.11c-10.54,7.76-17.98,8.2-24.04,1.01
			c-5.93-7.07-4.48-14.7,5.43-23.47c18.8-16.66,37.99-33,56.98-49.47c15.14-13.12,30.35-26.25,45.31-39.63
			c9.53-8.52,16.97-8.77,26.88-0.13c8.83,7.64,17.54,15.4,26.38,23.03c1.58,1.33,3.34,3.41,5.74,2.27c2.4-1.14,1.7-3.79,1.77-5.87
			c0.19-3.66,0.06-7.32,0.25-10.92c0.69-15.14,1.2-15.52,16.72-15.4c13.06,0.13,15.4,2.21,15.78,15.08
			c0.32,12.37,0.57,24.8-0.06,37.23c-0.44,8.96,2.84,15.14,9.65,20.63c9.91,8.01,19.31,16.66,28.96,25.05
			c7.07,6.18,9.21,13.5,3.22,21.2c-6.06,7.7-13.69,7.26-21.26,1.7C246.52,153.8,242.8,150.96,237.12,146.67z"/>
	</g>
</g>
</svg>
