<?xml version="1.0" encoding="utf-8"?>
<!-- Generator: Adobe Illustrator 26.3.1, SVG Export Plug-In . SVG Version: 6.00 Build 0)  -->
<svg version="1.1" id="Capa_1" xmlns="http://www.w3.org/2000/svg" xmlns:xlink="http://www.w3.org/1999/xlink" x="0px" y="0px"
	 viewBox="0 0 300 300" width="300" heigh="300" style="enable-background:new 0 0 300 300;" xml:space="preserve">
<style type="text/css">
	.st0{fill:#FFFFFF;}
</style>
<path class="st0" d="M273.47,74.13c-1.62-1.35-3.11-2.84-4.6-4.4c-0.54-0.61-1.15-1.15-1.69-1.69c-1.29-1.29-2.5-2.57-3.79-3.79
	c-1.96-1.96-3.92-3.99-5.95-5.95c-2.5-2.44-5.01-4.94-7.44-7.37c-2.16-2.16-4.4-4.4-6.56-6.56c-2.03-1.96-3.99-1.69-5.34-1.15
	c-1.15,0.47-2.57,1.15-3.86,2.1c-1.69,1.35-3.59,2.64-5.41,3.86c-1.76,1.15-3.59,2.37-5.28,3.72l-2.1,1.62
	c-3.65,2.84-7.44,5.75-11.03,8.93c-2.23,1.96-4.4,4.13-6.43,6.16c-1.42,1.42-2.98,2.98-4.46,4.4c-1.29,1.22-2.5,2.57-3.65,3.79
	c-0.88,0.95-1.76,1.89-2.64,2.84c-0.95,0.88-1.69,1.96-2.44,3.04c-0.47,0.68-0.95,1.29-1.42,1.89c-4.19,5.07-8.32,10.69-12.99,17.66
	c-2.44,3.59-4.67,7.37-6.83,11.03c-1.22,1.96-2.44,4.06-3.65,6.02c-1.49,2.44-2.98,5.01-4.33,7.44c-1.08,1.89-2.16,3.86-3.31,5.75
	c-1.22,2.03-2.3,4.13-3.38,6.22l-0.54,1.01c-1.96,3.86-4.13,7.64-6.29,11.36c-0.74,1.35-1.49,2.64-2.23,3.92
	c0,0.07-0.07,0.14-0.07,0.2c-0.07-0.07-0.07-0.14-0.14-0.14c-2.77-2.77-5.48-5.48-8.25-8.25c-1.83-1.83-3.59-3.59-5.41-5.41
	c-1.49-1.49-2.98-2.98-4.46-4.46c-4.33-4.26-8.73-8.73-13.06-13.12c-3.31-3.38-6.97-5.89-10.82-7.51
	c-7.04-2.91-14.54-3.79-22.26-2.57c-6.56,1.01-12.72,2.98-18.2,5.89c-2.77,1.49-6.02,3.18-8.73,5.41
	c-3.38,2.77-7.58,6.22-10.89,10.28c-0.68,0.81-1.42,1.69-2.1,2.5c-1.62,1.89-3.25,3.79-4.53,5.95c-1.96,3.25-3.59,5.95-5.01,8.93
	c-4.74,9.94-6.97,19.35-6.9,29.76c-0.14,9.27,2.77,18.26,8.32,25.98c2.16,2.98,4.74,5.55,7.24,7.98c0.74,0.68,1.42,1.42,2.16,2.1
	c3.65,3.65,7.31,7.31,10.96,10.96c4.6,4.6,9.34,9.34,14,14.07c4.33,4.33,9.27,7.58,14.68,9.61s11.09,3.04,17.11,3.04
	c2.64,0,5.41-0.2,8.25-0.61c8.39-1.15,16.51-3.86,24.96-8.25c5.07-2.64,10.08-5.95,14.95-9.81c4.87-3.86,9.47-8.25,13.73-13.06
	c3.45-3.92,7.1-8.19,10.21-12.92c4.26-6.43,7.51-11.84,10.35-16.84c1.01-1.83,2.03-3.59,3.04-5.41c2.16-3.79,4.4-7.71,6.49-11.64
	c1.69-3.11,3.45-6.29,5.21-9.34c1.29-2.3,2.57-4.6,3.86-6.9c3.86-6.97,7.64-13.33,11.5-19.41c3.92-6.09,7.98-11.91,12.18-17.39
	c3.45-4.4,7.17-8.86,11.16-13.12c4.46-4.87,9.4-9.27,13.53-12.92c4.19-3.72,8.93-7.31,15.22-11.84c1.89-1.35,3.92-2.64,5.82-3.92
	c0.81-0.54,1.69-1.08,2.57-1.69c1.42-0.95,2.3-2.5,2.44-4.19C275.16,76.29,274.56,75.01,273.47,74.13z M230.31,78.66
	c-0.54-0.54-1.01-1.08-1.56-1.62c-1.89-1.83-4.74-1.89-6.56-0.14c-0.88,0.81-1.35,1.89-1.35,3.04c0,1.22,0.47,2.5,1.42,3.45
	c2.44,2.44,4.87,4.94,7.31,7.37c1.62,1.62,3.18,3.18,4.8,4.8c0.41,0.41,0.81,0.88,1.22,1.29c0.34,0.41,0.74,0.81,1.15,1.22
	c-1.96,1.76-3.72,3.65-5.48,5.48c-0.81,0.81-1.56,1.69-2.37,2.5c-1.42,1.49-2.77,3.04-4.13,4.6c-2.37-2.44-4.33-4.4-6.16-6.16
	c-0.2-0.2-0.41-0.41-0.61-0.61c-0.95-0.88-2.03-1.89-3.18-3.25c-0.47-0.54-2.57-3.04-3.65-3.72l0,0c-0.41-0.27-0.81-0.54-1.22-0.88
	c-1.42-1.08-3.38-2.57-6.16-0.88c-0.88,0.54-1.49,1.49-1.62,2.77c-0.2,1.56,0.27,3.11,1.22,4.13c1.22,1.29,2.5,2.57,3.86,3.92
	c0.61,0.54,1.15,1.15,1.76,1.76c0.54,0.54,1.08,1.15,1.76,1.83c1.42,1.35,2.77,2.77,4.13,4.19c1.29,1.35,2.64,2.64,3.92,3.92
	c-1.62,1.83-3.04,3.79-4.33,5.68c-1.08,1.56-2.1,3.04-3.31,4.4c-0.68,0.81-1.15,1.62-1.62,2.44c-0.34,0.61-0.74,1.22-1.08,1.69l0,0
	c-1.56-1.76-3.18-3.31-4.8-4.87c-1.29-1.22-2.64-2.57-3.92-3.92c-0.41-0.47-0.88-0.88-1.29-1.29c-0.81-0.81-1.56-1.49-2.16-2.37
	c-0.68-1.08-1.83-1.83-3.45-2.44c-1.89-0.61-3.79-0.07-5.01,1.42c-1.42,1.76-1.08,4.46,0.68,6.29c0.81,0.81,1.62,1.62,2.44,2.44
	c0.88,0.88,1.83,1.76,2.71,2.71c1.15,1.15,2.3,2.37,3.45,3.52c2.03,2.03,4.13,4.19,6.16,6.22l0.07,0.07c0,0.07-0.07,0.14-0.07,0.2
	c-3.11,4.87-6.16,10.01-9.06,15.22c-2.98-3.04-6.02-6.09-9-9.06c-1.42-1.42-2.77-2.77-4.19-4.19c-1.35-1.35-2.84-1.96-4.33-1.83
	c-1.29,0.14-2.44,0.88-3.25,2.1c-0.88,1.42-1.49,3.59,0.88,5.95c1.83,1.83,3.65,3.65,5.48,5.48c1.29,1.29,2.5,2.5,3.79,3.79
	c0.68,0.68,1.42,1.42,2.1,2.16c1.29,1.29,2.57,2.57,3.86,3.86c-1.15,1.83-2.16,3.72-3.11,5.55c-1.01,1.96-2.1,3.99-3.38,5.89
	c-0.81,1.22-1.42,2.57-2.1,3.86c-0.07,0.14-0.14,0.34-0.2,0.47c-1.83-2.03-3.59-3.92-5.41-5.55c-1.29-1.22-2.57-2.5-3.86-3.72
	c-1.49-1.49-3.04-3.04-4.67-4.46c-1.83-1.62-4.67-1.69-6.22-0.14c-1.76,1.76-1.89,4.26-0.34,6.22l0.2,0.27
	c0.95,1.22,2.1,2.64,3.65,3.65c0.07,0.07,0.27,0.41,0.41,0.61c0.27,0.47,0.54,1.08,1.15,1.56c2.71,2.5,5.48,5.07,8.05,7.44
	c0.74,0.68,1.42,1.42,2.16,2.1l0.14,0.2c-1.15,1.96-2.3,3.92-3.38,5.82c-1.83,3.18-3.72,6.43-5.75,9.61
	c-0.68-0.68-1.35-1.35-2.03-2.03c-2.64-2.64-5.34-5.28-7.85-8.12c-1.29-1.35-2.71-2.57-4.06-3.72l-0.54-0.47
	c-0.95-0.81-2.1-1.15-3.31-1.01c-1.22,0.14-2.3,0.68-3.04,1.62c-1.56,1.89-1.35,4.87,0.47,6.49c2.91,2.64,5.75,5.48,8.52,8.25
	c2.1,2.1,4.26,4.26,6.43,6.36c0.07,0.07,0.14,0.14,0.2,0.2c0,0.07-0.07,0.14-0.14,0.2l-0.95,1.22c-1.96,2.5-3.92,5.07-6.09,7.44
	c-0.95,1.08-2.03,2.1-3.04,3.11c-0.41,0.41-0.81,0.81-1.22,1.22c-1.76-1.89-3.52-3.72-5.34-5.55c-1.08-1.15-2.23-2.23-3.31-3.38
	c-2.16-2.3-4.53-4.4-6.63-6.22c-1.69-1.49-4.06-1.42-5.75,0.14c-1.83,1.69-2.1,3.72-0.81,5.75c0.95,1.49,2.1,2.57,3.31,3.65
	c0.47,0.47,0.95,0.88,1.35,1.29c3.65,3.72,7.31,7.37,10.49,10.49c-4.06,3.18-8.86,6.7-14.07,9.67c-0.41,0.2-0.61,0.27-0.61,0.27
	s-0.14-0.07-0.47-0.41c-4.26-4.4-8.66-8.79-12.85-12.99l-1.69-1.69c-0.81-0.81-2.3-2.23-4.53-1.83c-1.69,0.34-2.98,1.42-3.59,3.04
	c-0.34,0.95-0.68,2.91,1.22,4.8l0.95,0.95c2.23,2.3,4.6,4.6,6.9,6.9c1.62,1.62,3.31,3.18,5.01,4.8c0.14,0.14,0.27,0.27,0.47,0.47
	c-4.67,1.83-9.13,3.04-13.66,3.59c-1.35,0.14-2.71,0.27-4.06,0.41c-0.81,0.07-1.62,0.14-2.5,0.2c-0.27,0-0.47,0-1.01-0.47
	c-4.8-4.87-9.81-9.88-14.95-14.95c-0.14-0.14-0.27-0.27-0.41-0.47c-0.41-0.54-0.95-1.22-1.89-1.69c-0.68-0.27-1.29-0.41-1.96-0.41
	c-1.49,0-2.84,0.68-3.72,1.89c-1.29,1.83-1.01,4.46,0.54,6.09c1.56,1.56,3.11,3.11,4.74,4.67c0.68,0.68,1.35,1.29,1.96,1.96
	c-1.96-0.88-3.59-1.83-5.01-2.91c-3.72-2.84-7.1-6.36-10.35-9.67c-1.49-1.56-3.04-3.18-4.6-4.74c-0.47-0.47-0.88-0.88-1.35-1.29
	c-0.07-0.07-0.07-0.07-0.14-0.14c6.02,0.81,12.45,0.54,19.62-0.88c3.52-0.68,6.9-1.83,10.01-2.91c1.49-0.54,2.71-1.08,3.86-1.62
	c0.61-0.27,1.22-0.54,1.83-0.81c2.57-1.08,5.21-2.44,8.46-4.4c2.16-1.15,3.45-2.03,5.28-3.31c0.54-0.41,1.15-0.81,1.89-1.35
	c2.37-1.69,4.67-3.52,6.83-5.34l1.22-1.01c0.95-0.81,1.83-1.69,2.71-2.5c1.01-1.01,1.96-1.96,3.04-2.71
	c1.15-0.88,2.16-2.1,3.18-3.31c0.27-0.34,0.61-0.68,0.88-1.01c5.68-6.63,10.96-13.87,16.1-22.19c1.22-1.96,2.37-3.99,3.45-5.95
	c1.22-2.16,2.5-4.4,3.79-6.56c1.56-2.5,2.98-5.07,4.33-7.58c1.08-2.03,2.23-4.19,3.45-6.22c1.42-2.37,2.77-4.87,4.06-7.24
	c0.68-1.29,1.35-2.57,2.03-3.79c3.11-5.68,6.83-12.31,10.89-18.67l1.35-2.1c2.1-3.31,4.26-6.76,6.49-10.01
	c3.11-4.46,5.95-8.32,8.79-11.7c0.68-0.88,1.42-1.76,2.1-2.64c1.22-1.56,2.5-3.18,3.86-4.6c0.81-0.88,1.69-1.76,2.57-2.64
	c1.22-1.22,2.5-2.5,3.72-3.86c3.72-4.26,8.12-7.98,12.31-11.64l1.29-1.08c1.76-1.49,3.65-2.91,5.55-4.33
	c0.68-0.54,1.35-1.01,2.03-1.56c1.08,1.15,2.23,2.23,3.38,3.38l4.46,4.46c2.44,2.44,4.8,4.8,7.24,7.24c1.08,1.08,2.1,2.16,3.18,3.25
	c1.96,1.96,3.92,3.99,5.95,5.95l-0.61,0.47c-1.69,1.35-3.45,2.64-5.14,3.99c-0.27,0.2-0.47,0.41-0.74,0.54
	c-1.01,0.74-2.03,1.56-2.91,2.5c0,0-0.07,0-0.07,0.07l-0.07-0.07c-0.68-0.61-1.29-1.22-1.96-1.89L241,89.55
	c-3.25-3.25-6.49-6.56-9.74-9.88C230.92,79.34,230.58,79,230.31,78.66z M66.13,165.86c0.61-3.31,1.89-6.49,3.99-9.34
	c0.88,0.95,1.76,1.89,2.64,2.77c0.68,0.68,1.35,1.35,2.03,2.1c1.15,1.22,2.44,2.57,3.92,3.92c2.91,2.71,5.89,5.61,9.4,9.34
	c0.88,0.88,1.76,1.76,2.64,2.57c0.54,0.54,1.08,1.08,1.69,1.62c-3.59,1.69-7.51,3.11-11.64,3.04l0,0c-4.4-0.07-7.85-1.15-10.55-3.38
	C66.54,175.53,65.19,171.4,66.13,165.86z M80.41,214.97c0.41-1.49,0.81-3.04,0.88-4.06c0.07-0.34,0.41-1.22,0.68-1.96
	c0.47-1.29,1.01-2.77,1.29-3.86l0.07-0.07c0.07-0.07,0.14-0.2,0.2-0.34c1.62,1.69,3.31,3.31,4.94,4.94
	c0.88,0.88,1.83,1.83,2.71,2.71c-3.38,1.29-6.83,2.5-10.35,3.31c-0.14,0-0.34,0.07-0.61,0.07l0,0
	C80.2,215.44,80.34,215.17,80.41,214.97z M140.95,164.3c-1.62,2.44-3.11,4.87-4.74,7.58c-1.42-1.49-2.91-2.91-4.33-4.33l-1.49-1.49
	c-0.34-0.34-0.81-0.81-1.29-1.15c-1.96-1.35-4.6-1.08-6.09,0.68c-1.49,1.76-1.35,4.6,0.27,6.22l1.49,1.49
	c1.96,1.96,3.99,4.06,6.09,6.02c0.14,0.14,0.2,0.2,0.27,0.27c-0.07,0.07-0.14,0.2-0.27,0.34c-2.98,3.86-6.16,7.64-9.61,11.23
	l-0.27,0.27c-2.3,2.44-4.67,4.87-7.37,6.83c-1.83-1.89-3.72-3.72-5.55-5.55l-1.22-1.22c-0.41-0.41-0.95-0.95-1.62-1.42
	c-1.08-0.81-2.3-1.08-3.52-0.88c-1.22,0.2-2.3,1.01-2.98,2.16c-0.61,1.01-1.96,3.11,0.41,5.28s4.26,4.67,6.22,7.37l0.27,0.41
	c-1.96,1.22-3.99,2.44-5.95,3.65c-0.88-0.88-1.76-1.76-2.64-2.57c-1.29-1.22-2.5-2.3-3.59-3.59c0,0-0.2-0.2-0.47-0.47
	c-0.74-0.68-2.44-2.37-3.72-3.72c-2.1-2.16-4.19-4.33-6.43-6.56c-0.07-0.07-0.2-0.2-0.27-0.27c11.03-0.88,20.36-6.09,28.41-15.69
	c7.51-8.93,11.3-18.94,11.36-29.83c2.37,2.37,4.67,4.74,7.04,7.04l2.5,2.5c2.91,2.91,5.89,5.95,8.86,8.86
	c0.14,0.14,0.2,0.27,0.27,0.34C141.09,164.17,141.02,164.23,140.95,164.3z M113.15,148.81c-1.01,8.66-4.87,16.44-11.43,22.93
	c-0.34,0.34-0.61,0.61-0.81,0.95c-0.27,0.34-0.54,0.61-0.81,0.88l-0.07,0.07l-0.07-0.07c-1.08-1.22-2.16-2.37-3.25-3.45
	c-0.61-0.61-1.22-1.22-1.83-1.83c-0.88-0.95-1.89-1.89-2.77-2.77c-0.74-0.68-1.42-1.42-2.16-2.1c-1.49-1.49-3.04-3.04-4.53-4.53
	c-1.89-1.89-3.92-3.86-5.82-5.82c-0.74-0.81-1.56-1.56-2.3-2.3c-1.29-1.22-2.44-2.37-3.59-3.65c-1.35-1.56-2.84-1.89-3.79-1.89l0,0
	c-1.49,0-2.84,0.68-4.06,2.03c-5.07,5.75-7.98,11.77-8.93,18.47c-0.81,6.16,0.47,11.7,3.99,16.3c1.29,1.76,2.91,3.25,4.4,4.74
	c0.95,0.88,1.83,1.76,2.71,2.64c1.56,1.69,3.25,3.25,4.8,4.8c1.15,1.15,2.37,2.3,3.52,3.45c-2.37,4.53-3.65,9.34-4.87,14.07
	l-0.34,1.35c-0.34,1.15-0.41,2.37-0.54,3.45l-0.07,0.41c-0.34,0-0.68,0-1.08,0c-0.34,0-0.61,0-0.95,0h-0.95
	c-6.02,0-11.5-1.35-16.3-3.92c-7.44-3.99-12.58-10.08-15.29-18.06c-2.64-7.78-2.77-16.17-0.41-25.57c1.76-6.83,4.6-13.33,8.46-19.14
	c6.63-10.01,14.21-17.11,23.14-21.71c7.78-4.06,15.29-5.82,22.93-5.34c5.41,0.34,10.15,1.96,14.14,4.8
	C111.25,132.91,114.23,139.95,113.15,148.81z M247.9,66.21c-2.71-2.84-5.48-5.55-8.19-8.25c-1.08-1.08-2.16-2.16-3.25-3.18
	c0.68-0.41,1.35-0.88,1.89-1.22l0.07-0.07c0.27-0.2,0.54-0.34,0.74-0.47c0.2,0.2,0.47,0.47,0.61,0.61c1.01,1.08,2.03,2.1,3.04,3.11
	c1.42,1.42,2.84,2.84,4.19,4.26c1.42,1.56,2.98,2.98,4.46,4.4c0.88,0.81,1.76,1.62,2.57,2.5c2.1,2.1,4.26,4.26,6.36,6.36
	c0.95,0.95,1.96,1.96,2.91,2.91c-0.34,0.2-0.68,0.41-1.01,0.68c-0.81,0.54-1.62,1.01-1.96,1.15c-0.34-0.2-1.08-1.01-1.49-1.56
	c-2.1-2.37-4.4-4.6-6.63-6.76C250.88,69.19,249.32,67.7,247.9,66.21z"/>
</svg>
