<?xml version="1.0" encoding="utf-8"?>
<!-- Generator: Adobe Illustrator 26.3.1, SVG Export Plug-In . SVG Version: 6.00 Build 0)  -->
<svg version="1.1" id="Capa_1" xmlns="http://www.w3.org/2000/svg" xmlns:xlink="http://www.w3.org/1999/xlink" x="0px" y="0px"
	 viewBox="0 0 800 800" style="enable-background:new 0 0 800 800;" xml:space="preserve">
<style type="text/css">
	.st0{fill:#FFFFFF;}
</style>
<path class="st0" d="M663.1,88h48c4.4,0,8,3.6,8,8v48c0,53-43,96-96,96h-88c-53,0-96-43-96-96V96c0-4.4,3.6-8,8-8h48
	c8.8,0,16-7.2,16-16s-7.2-16-16-16h-48c-22.1,0-40,17.9-40,40v48c0,70.7,57.3,128,128,128h88c70.7,0,128-57.3,128-128V96
	c0-22.1-17.9-40-40-40h-48c-8.8,0-16,7.2-16,16S654.2,88,663.1,88L663.1,88z"/>
<path class="st0" d="M567.1,268v331.2c0,22-18,40-40,40h-64c-8.8,0-16,7.2-16,16c0,8.8,7.2,16,16,16h64c39.6,0,72-32.4,72-72V268
	c0-8.8-7.2-16-16-16C574.2,252,567.1,259.2,567.1,268z"/>
<path class="st0" d="M447.1,652c0-33.1-26.9-60-60-60s-60,26.9-60,60s26.9,60,60,60S447.1,685.1,447.1,652z M479.1,652
	c0,50.8-41.2,92-92,92s-92-41.2-92-92s41.2-92,92-92C437.9,560,479.1,601.2,479.1,652z M383,272.8c43.7,43.7,43.7,114.6,0,158.4
	L264.2,550c-15.6,15.6-40.9,15.6-56.6,0L88.8,431.2c-43.7-43.7-43.7-114.7,0-158.4c40.1-40.1,103.2-43.4,147.1-9.9
	C279.8,229.4,342.8,232.7,383,272.8L383,272.8z M224.6,295.4c-31.2-31.2-81.9-31.2-113.1,0c-31.2,31.2-31.2,81.9,0,113.1
	l118.8,118.8c3.1,3.1,8.2,3.1,11.3,0l118.8-118.8c31.2-31.2,31.2-81.9,0-113.1c-31.2-31.2-81.9-31.2-113.1,0
	C240.9,301.7,230.8,301.7,224.6,295.4L224.6,295.4z"/>
</svg>
