<?xml version="1.0" encoding="utf-8"?>
<!-- Generator: Adobe Illustrator 26.3.1, SVG Export Plug-In . SVG Version: 6.00 Build 0)  -->
<svg version="1.1" id="Capa_1" xmlns="http://www.w3.org/2000/svg" xmlns:xlink="http://www.w3.org/1999/xlink" x="0px" y="0px"
	 viewBox="0 0 300 300" width="300" heigh="300" style="enable-background:new 0 0 300 300;" xml:space="preserve">
<style type="text/css">
	.st0{fill:none;stroke:#FFFFFF;stroke-width:17;stroke-miterlimit:10;}
	.st1{fill:#FFFFFF;}
	.st2{fill:none;stroke:#FFFFFF;stroke-width:15;stroke-linecap:round;stroke-linejoin:round;stroke-miterlimit:10;}
</style>
<g>
	<path class="st0" d="M194.63,275h-89.26c-27.1,0-49.05-21.95-49.05-49.05V74.15c0-27.1,21.95-49.15,49.05-49.15h89.26
		c27.1,0,49.05,21.95,49.05,49.15v151.81C243.68,253.05,221.73,275,194.63,275z"/>
	<g>
		<path class="st1" d="M99.16,105.81c-0.49,0-0.97,0-1.46-0.19c-2.23-0.49-4.18-2.04-5.15-4.08L87.4,90.27
			c-1.65-3.69-0.1-7.96,3.59-9.62s7.96-0.1,9.62,3.59l0.97,2.23l26.52-23.7c3.01-2.72,7.58-2.43,10.3,0.58
			c2.72,3.01,2.43,7.58-0.58,10.3l-33.9,30.21C102.65,105.13,100.9,105.81,99.16,105.81z"/>
	</g>
	<line class="st2" x1="99.35" y1="122.51" x2="99.35" y2="217.21"/>
	<line class="st2" x1="169.76" y1="98.62" x2="192.59" y2="98.62"/>
	<line class="st2" x1="134.61" y1="133.88" x2="207.94" y2="133.88"/>
	<line class="st2" x1="136.55" y1="171.66" x2="207.94" y2="171.66"/>
	<line class="st2" x1="136.55" y1="206.72" x2="207.94" y2="206.72"/>
</g>
</svg>
