<?xml version="1.0" encoding="utf-8"?>
<!-- Generator: Adobe Illustrator 26.3.1, SVG Export Plug-In . SVG Version: 6.00 Build 0)  -->
<svg version="1.1" id="Capa_1" xmlns="http://www.w3.org/2000/svg" xmlns:xlink="http://www.w3.org/1999/xlink" x="0px" y="0px"
	 viewBox="0 0 300 300" width="300" heigh="300" style="enable-background:new 0 0 300 300;" xml:space="preserve">
<style type="text/css">
	.st0{fill:none;stroke:#75160D;stroke-width:17;stroke-miterlimit:10;}
	.st1{fill:#75160D;}
</style>
<g>
	<path class="st0" d="M25,84.96v93.55c0,20.55,16.64,37.18,37.18,37.18h1.45c6.73,0,12.55,4.45,14.36,10.82l6.91,24.27
		c0.36,1.18,1.64,1.73,2.73,1.09l58.64-34.18c2.27-1.36,4.91-2,7.55-2h84c20.55,0,37.18-16.64,37.18-37.18V85.05
		c0-20.55-16.64-37.18-37.18-37.18H62.09C41.64,47.77,25,64.5,25,84.96z"/>
	<g>
		<path class="st1" d="M91.82,111.96l4.09,12.73c0.18,0.73,0.82,1.09,1.55,1.09h13.36c1.64,0,2.27,2,1,3L101,136.59
			c-0.55,0.45-0.82,1.18-0.64,1.82l4.09,12.73c0.45,1.55-1.27,2.82-2.55,1.82l-10.82-7.82c-0.55-0.45-1.36-0.45-1.91,0l-10.82,7.82
			c-1.27,0.91-3-0.36-2.55-1.82l4.09-12.73c0.18-0.73,0-1.45-0.64-1.82l-10.82-7.82c-1.27-0.91-0.64-3,1-3h13.36
			c0.73,0,1.36-0.45,1.55-1.09l4.09-12.73C89.18,110.41,91.36,110.41,91.82,111.96z"/>
		<path class="st1" d="M151.55,111.96l4.09,12.73c0.18,0.73,0.82,1.09,1.55,1.09h13.45c1.64,0,2.27,2,1,3l-10.82,7.82
			c-0.55,0.45-0.82,1.18-0.64,1.82l4.09,12.73c0.45,1.55-1.27,2.82-2.55,1.82l-10.82-7.82c-0.55-0.45-1.36-0.45-1.91,0l-10.82,7.82
			c-1.27,0.91-3-0.36-2.55-1.82l4.09-12.73c0.18-0.73,0-1.45-0.64-1.82l-10.82-7.82c-1.27-0.91-0.64-3,1-3h13.36
			c0.73,0,1.36-0.45,1.55-1.09l4.09-12.73C148.91,110.41,151,110.41,151.55,111.96z"/>
		<path class="st1" d="M211.18,111.96l4.09,12.73c0.18,0.73,0.82,1.09,1.55,1.09h13.36c1.64,0,2.27,2,1,3l-10.82,7.82
			c-0.55,0.45-0.82,1.18-0.64,1.82l4.09,12.73c0.45,1.55-1.27,2.82-2.55,1.82l-10.82-7.82c-0.55-0.45-1.36-0.45-1.91,0l-10.82,7.82
			c-1.27,0.91-3-0.36-2.55-1.82l4.09-12.73c0.18-0.73,0-1.45-0.64-1.82l-10.82-7.82c-1.27-0.91-0.64-3,1-3h13.36
			c0.73,0,1.36-0.45,1.55-1.09l4.09-12.73C208.55,110.41,210.73,110.41,211.18,111.96z"/>
	</g>
</g>
</svg>
