<?xml version="1.0" encoding="utf-8"?>
<!-- Generator: Adobe Illustrator 26.3.1, SVG Export Plug-In . SVG Version: 6.00 Build 0)  -->
<svg version="1.1" id="Capa_1" xmlns="http://www.w3.org/2000/svg" xmlns:xlink="http://www.w3.org/1999/xlink" x="0px" y="0px"
	 viewBox="0 0 300 300" width="300" heigh="300" style="enable-background:new 0 0 300 300;" xml:space="preserve">
<style type="text/css">
	.st0{fill:#75160D;}
</style>
<g>
	<g>
		<g>
			<g>
				<path class="st0" d="M213.26,275H86.74c-15.6,0-28.24-12.7-28.24-28.24V53.24C58.5,37.64,71.2,25,86.74,25h114.72
					c9.31,0,18.02,3.63,24.55,10.16l8.04,8.04c4.78,4.78,7.44,11.19,7.44,17.96v185.66C241.5,262.36,228.86,275,213.26,275z
					 M86.74,37.64c-8.59,0-15.54,6.95-15.54,15.54V246.7c0,8.59,6.95,15.54,15.54,15.54h126.51c8.59,0,15.54-6.95,15.54-15.54V61.04
					c0-3.39-1.33-6.59-3.75-8.95l-8.04-8.04c-4.17-4.17-9.74-6.47-15.6-6.47H86.74V37.64z"/>
			</g>
		</g>
		<g>
			<g>
				<path class="st0" d="M233.94,68.3h-19.05c-7.56,0-13.73-6.17-13.73-13.73V35.52h12.7v19.05c0,0.6,0.48,1.03,1.03,1.03h19.05
					V68.3z"/>
			</g>
		</g>
	</g>
	<g>
		<g>
			<g>
				<path class="st0" d="M207.69,109.66H92.25c-2.84,0-5.14-2.3-5.14-5.14c0-2.84,2.3-5.14,5.14-5.14h115.45
					c2.84,0,5.14,2.3,5.14,5.14C212.83,107.37,210.53,109.66,207.69,109.66z"/>
			</g>
		</g>
		<g>
			<g>
				<path class="st0" d="M207.69,147.28H92.25c-2.84,0-5.14-2.3-5.14-5.14c0-2.84,2.3-5.14,5.14-5.14h115.45
					c2.84,0,5.14,2.3,5.14,5.14C212.83,144.98,210.53,147.28,207.69,147.28z"/>
			</g>
		</g>
		<g>
			<g>
				<path class="st0" d="M207.69,184.89H92.25c-2.84,0-5.14-2.3-5.14-5.14c0-2.84,2.3-5.14,5.14-5.14h115.45
					c2.84,0,5.14,2.3,5.14,5.14C212.83,182.6,210.53,184.89,207.69,184.89z"/>
			</g>
		</g>
		<g>
			<g>
				<path class="st0" d="M207.69,222.51H92.25c-2.84,0-5.14-2.3-5.14-5.14c0-2.84,2.3-5.14,5.14-5.14h115.45
					c2.84,0,5.14,2.3,5.14,5.14C212.83,220.21,210.53,222.51,207.69,222.51z"/>
			</g>
		</g>
	</g>
</g>
</svg>
