<?xml version="1.0" encoding="utf-8"?>
<!-- Generator: Adobe Illustrator 26.3.1, SVG Export Plug-In . SVG Version: 6.00 Build 0)  -->
<svg version="1.1" id="Capa_1" xmlns="http://www.w3.org/2000/svg" xmlns:xlink="http://www.w3.org/1999/xlink" x="0px" y="0px"
	 viewBox="0 0 300 300" width="300" heigh="300" style="enable-background:new 0 0 300 300;" xml:space="preserve">
<style type="text/css">
	.st0{fill:#75160D;}
	.st1{fill:#FFFFFF;}
</style>
<g>
	<g>
		<g>
			<g>
				<g>
					<path class="st0" d="M64.37,142.84c-0.89,0-1.73-0.37-2.38-0.98l-5.92-5.92H40.72c-7.88,0-14.32-6.44-14.32-14.32v-13.53
						c0-7.88,6.44-14.32,14.32-14.32h32.84c7.88,0,14.32,6.44,14.32,14.32v13.53c0,7.88-6.44,14.32-14.32,14.32h-0.93l-5.92,5.92
						C66.1,142.51,65.26,142.84,64.37,142.84z M40.72,97.26c-5.97,0-10.82,4.85-10.82,10.82v13.53c0,5.97,4.85,10.82,10.82,10.82
						h16.79l6.86,6.86l6.86-6.86h2.38c5.97,0,10.82-4.85,10.82-10.82v-13.53c0-5.97-4.85-10.82-10.82-10.82H40.72z"/>
				</g>
				<g>
					<path class="st0" d="M64.37,144.24c-1.26,0-2.47-0.51-3.36-1.4l-5.5-5.5H40.72c-8.68,0-15.72-7.04-15.72-15.72v-13.53
						c0-8.68,7.04-15.72,15.72-15.72h32.89c8.68,0,15.72,7.04,15.72,15.72v13.53c0,8.68-7.04,15.72-15.72,15.72h-0.33l-5.5,5.5
						C66.85,143.77,65.63,144.24,64.37,144.24z M40.72,95.16c-7.14,0-12.92,5.78-12.92,12.92v13.53c0,7.14,5.78,12.92,12.92,12.92
						h15.95l6.34,6.34c0.37,0.37,0.84,0.56,1.4,0.56s1.03-0.19,1.4-0.56l6.34-6.34h1.49c7.14,0,12.92-5.78,12.92-12.92v-13.53
						c0-7.14-5.78-12.92-12.92-12.92L40.72,95.16L40.72,95.16z M64.37,141.25l-7.42-7.42H40.72c-6.72,0-12.22-5.46-12.22-12.22
						v-13.53c0-6.72,5.46-12.22,12.22-12.22h32.84c6.72,0,12.22,5.46,12.22,12.22v13.53c0,6.72-5.46,12.22-12.22,12.22h-1.77
						L64.37,141.25z M40.72,98.66c-5.18,0-9.42,4.25-9.42,9.42v13.53c0,5.18,4.25,9.42,9.42,9.42h17.4l6.25,6.25l6.25-6.25h2.94
						c5.18,0,9.42-4.25,9.42-9.42v-13.53c0-5.18-4.25-9.42-9.42-9.42L40.72,98.66L40.72,98.66z"/>
				</g>
			</g>
		</g>
		<g>
			<g>
				<g>
					<circle class="st0" cx="44.55" cy="115.69" r="3.22"/>
				</g>
				<g>
					<path class="st0" d="M44.55,120.31c-2.57,0-4.62-2.05-4.62-4.62s2.05-4.62,4.62-4.62s4.62,2.05,4.62,4.62
						S47.11,120.31,44.55,120.31z M44.55,113.87c-1.03,0-1.82,0.79-1.82,1.82c0,1.03,0.79,1.82,1.82,1.82s1.82-0.79,1.82-1.82
						C46.37,114.66,45.57,113.87,44.55,113.87z"/>
				</g>
			</g>
		</g>
		<g>
			<g>
				<g>
					<circle class="st0" cx="57.66" cy="115.69" r="3.22"/>
				</g>
				<g>
					<path class="st0" d="M57.66,120.31c-2.57,0-4.62-2.05-4.62-4.62s2.05-4.62,4.62-4.62c2.57,0,4.62,2.05,4.62,4.62
						S60.17,120.31,57.66,120.31z M57.66,113.87c-1.03,0-1.82,0.79-1.82,1.82c0,1.03,0.79,1.82,1.82,1.82
						c1.03,0,1.82-0.79,1.82-1.82C59.47,114.66,58.63,113.87,57.66,113.87z"/>
				</g>
			</g>
		</g>
		<g>
			<g>
				<g>
					<circle class="st0" cx="70.72" cy="115.69" r="3.22"/>
				</g>
				<g>
					<path class="st0" d="M70.72,120.31c-2.57,0-4.62-2.05-4.62-4.62s2.05-4.62,4.62-4.62s4.62,2.05,4.62,4.62
						S73.28,120.31,70.72,120.31z M70.72,113.87c-1.03,0-1.82,0.79-1.82,1.82c0,1.03,0.79,1.82,1.82,1.82
						c0.98,0,1.82-0.79,1.82-1.82C72.54,114.66,71.74,113.87,70.72,113.87z"/>
				</g>
			</g>
		</g>
	</g>
	<g>
		<g>
			<g>
				<g>
					<path class="st0" d="M233.25,141.86l-5.92-5.92h-0.93c-7.88,0-14.32-6.44-14.32-14.32v-13.53c0-7.88,6.44-14.32,14.32-14.32
						h32.84c7.88,0,14.32,6.44,14.32,14.32v13.53c0,7.88-6.44,14.32-14.32,14.32h-15.35l-5.92,5.92c-0.65,0.65-1.49,0.98-2.38,0.98
						C234.69,142.84,233.85,142.51,233.25,141.86z M226.39,97.26c-5.97,0-10.82,4.85-10.82,10.82v13.53
						c0,5.97,4.85,10.82,10.82,10.82h2.38l6.86,6.86l6.86-6.86h16.79c5.97,0,10.82-4.85,10.82-10.82v-13.53
						c0-5.97-4.85-10.82-10.82-10.82H226.39z"/>
				</g>
				<g>
					<path class="st0" d="M235.63,144.24c-1.26,0-2.47-0.51-3.36-1.4l-5.5-5.5h-0.33c-8.68,0-15.72-7.04-15.72-15.72v-13.53
						c0-8.68,7.04-15.72,15.72-15.72h32.84c8.68,0,15.72,7.04,15.72,15.72v13.53c0,8.68-7.04,15.72-15.72,15.72h-14.79l-5.5,5.5
						C238.05,143.77,236.89,144.24,235.63,144.24z M234.23,140.88c0.37,0.37,0.89,0.56,1.4,0.56s0.98-0.19,1.35-0.56l6.34-6.34
						h15.95c7.14,0,12.92-5.78,12.92-12.92v-13.53c0-7.14-5.78-12.92-12.92-12.92h-32.84c-7.14,0-12.92,5.78-12.92,12.92v13.53
						c0,7.14,5.78,12.92,12.92,12.92h1.49L234.23,140.88z M235.58,141.25l-7.42-7.42h-1.77c-6.72,0-12.22-5.46-12.22-12.22v-13.53
						c0-6.72,5.46-12.22,12.22-12.22h32.84c6.72,0,12.22,5.46,12.22,12.22v13.53c0,6.72-5.46,12.22-12.22,12.22H243L235.58,141.25z
						 M226.39,98.66c-5.18,0-9.42,4.25-9.42,9.42v13.53c0,5.18,4.25,9.42,9.42,9.42h2.94l6.25,6.25l6.25-6.25h17.4
						c5.18,0,9.42-4.25,9.42-9.42v-13.53c0-5.18-4.25-9.42-9.42-9.42L226.39,98.66L226.39,98.66z"/>
				</g>
			</g>
		</g>
		<g>
			<g>
				<g>
					<circle class="st0" cx="255.41" cy="115.69" r="3.22"/>
				</g>
				<g>
					<path class="st0" d="M255.41,120.31c-2.57,0-4.62-2.05-4.62-4.62s2.05-4.62,4.62-4.62c2.57,0,4.62,2.05,4.62,4.62
						S257.97,120.31,255.41,120.31z M255.41,113.87c-1.03,0-1.82,0.79-1.82,1.82c0,1.03,0.79,1.82,1.82,1.82
						c1.03,0,1.82-0.79,1.82-1.82C257.23,114.66,256.43,113.87,255.41,113.87z"/>
				</g>
			</g>
		</g>
		<g>
			<g>
				<g>
					<circle class="st0" cx="242.34" cy="115.69" r="3.22"/>
				</g>
				<g>
					<path class="st0" d="M242.34,120.31c-2.57,0-4.62-2.05-4.62-4.62s2.05-4.62,4.62-4.62s4.62,2.05,4.62,4.62
						S244.86,120.31,242.34,120.31z M242.34,113.87c-1.03,0-1.82,0.79-1.82,1.82c0,1.03,0.79,1.82,1.82,1.82
						c0.98,0,1.82-0.79,1.82-1.82C244.16,114.66,243.32,113.87,242.34,113.87z"/>
				</g>
			</g>
		</g>
		<g>
			<g>
				<g>
					<circle class="st0" cx="229.24" cy="115.69" r="3.22"/>
				</g>
				<g>
					<path class="st0" d="M229.24,120.31c-2.57,0-4.62-2.05-4.62-4.62s2.05-4.62,4.62-4.62s4.62,2.05,4.62,4.62
						S231.8,120.31,229.24,120.31z M229.24,113.87c-1.03,0-1.82,0.79-1.82,1.82c0,1.03,0.79,1.82,1.82,1.82s1.82-0.79,1.82-1.82
						C231.06,114.66,230.26,113.87,229.24,113.87z"/>
				</g>
			</g>
		</g>
	</g>
	<g>
		<g>
			<g>
				<g>
					<path class="st0" d="M147.46,96.28l-5.92-5.92h-0.93c-7.88,0-14.32-6.44-14.32-14.32V62.51c0-7.88,6.44-14.32,14.32-14.32
						h32.84c7.88,0,14.32,6.44,14.32,14.32v13.53c0,7.88-6.44,14.32-14.32,14.32h-15.35l-5.92,5.92c-0.65,0.65-1.49,0.98-2.38,0.98
						C148.95,97.26,148.11,96.94,147.46,96.28z M140.6,51.68c-5.97,0-10.82,4.85-10.82,10.82v13.53c0,5.97,4.85,10.82,10.82,10.82
						h2.38l6.86,6.86l6.86-6.86h16.79c5.97,0,10.82-4.85,10.82-10.82V62.51c0-5.97-4.85-10.82-10.82-10.82
						C173.49,51.68,140.6,51.68,140.6,51.68z"/>
				</g>
				<g>
					<path class="st0" d="M149.84,98.66c-1.26,0-2.47-0.51-3.36-1.4l-5.5-5.5h-0.33c-8.68,0-15.72-7.04-15.72-15.72V62.51
						c0-8.68,7.04-15.72,15.72-15.72h32.84c8.68,0,15.72,7.04,15.72,15.72v13.53c0,8.68-7.04,15.72-15.72,15.72H158.7l-5.5,5.5
						C152.31,98.19,151.1,98.66,149.84,98.66z M140.6,49.58c-7.14,0-12.92,5.78-12.92,12.92v13.53c0,7.14,5.78,12.92,12.92,12.92
						h1.49l6.34,6.34c0.37,0.37,0.84,0.56,1.4,0.56c0.51,0,1.03-0.19,1.4-0.56l6.34-6.34h15.95c7.14,0,12.92-5.78,12.92-12.92V62.51
						c0-7.14-5.78-12.92-12.92-12.92C173.54,49.58,140.6,49.58,140.6,49.58z M149.84,95.68l-7.42-7.42h-1.77
						c-6.72,0-12.22-5.46-12.22-12.22V62.46c0-6.72,5.46-12.22,12.22-12.22h32.84c6.72,0,12.22,5.46,12.22,12.22v13.58
						c0,6.72-5.46,12.22-12.22,12.22h-16.23L149.84,95.68z M140.6,53.08c-5.18,0-9.42,4.25-9.42,9.42v13.58
						c0,5.18,4.25,9.42,9.42,9.42h2.94l6.25,6.25l6.25-6.25h17.4c5.18,0,9.42-4.25,9.42-9.42V62.51c0-5.18-4.25-9.42-9.42-9.42
						C173.44,53.08,140.6,53.08,140.6,53.08z"/>
				</g>
			</g>
		</g>
		<g>
			<g>
				<g>
					<circle class="st0" cx="169.66" cy="70.06" r="3.22"/>
				</g>
				<g>
					<path class="st0" d="M169.66,74.68c-2.57,0-4.62-2.05-4.62-4.62s2.05-4.62,4.62-4.62s4.62,2.05,4.62,4.62
						S172.18,74.68,169.66,74.68z M169.66,68.24c-0.98,0-1.82,0.79-1.82,1.82s0.79,1.82,1.82,1.82s1.82-0.79,1.82-1.82
						C171.48,69.08,170.64,68.24,169.66,68.24z"/>
				</g>
			</g>
		</g>
		<g>
			<g>
				<g>
					<circle class="st0" cx="156.55" cy="70.06" r="3.22"/>
				</g>
				<g>
					<path class="st0" d="M156.55,74.68c-2.57,0-4.62-2.05-4.62-4.62s2.05-4.62,4.62-4.62s4.62,2.05,4.62,4.62
						S159.12,74.68,156.55,74.68z M156.55,68.24c-1.03,0-1.82,0.79-1.82,1.82s0.79,1.82,1.82,1.82c0.98,0,1.82-0.79,1.82-1.82
						C158.37,69.08,157.58,68.24,156.55,68.24z"/>
				</g>
			</g>
		</g>
		<g>
			<g>
				<g>
					<circle class="st0" cx="143.45" cy="70.06" r="3.22"/>
				</g>
				<g>
					<path class="st0" d="M143.45,74.68c-2.57,0-4.62-2.05-4.62-4.62s2.05-4.62,4.62-4.62s4.62,2.05,4.62,4.62
						S146.01,74.68,143.45,74.68z M143.45,68.24c-0.98,0-1.82,0.79-1.82,1.82s0.79,1.82,1.82,1.82s1.82-0.79,1.82-1.82
						C145.26,69.08,144.47,68.24,143.45,68.24z"/>
				</g>
			</g>
		</g>
	</g>
	<g>
		<g>
			<path class="st0" d="M266.37,253.17H32.23c-2.85,0-5.13-2.29-5.13-5.13s2.29-5.13,5.13-5.13h234.14c2.85,0,5.13,2.29,5.13,5.13
				S269.22,253.17,266.37,253.17z"/>
		</g>
	</g>
	<g>
		<g>
			<g>
				<path class="st0" d="M248.18,248.18h-57.66l-8.49-27.62c-1.59-5.08-0.65-10.5,2.52-14.79c3.17-4.29,8.07-6.76,13.39-6.76h41.66
					c5.22,0,10.03,2.38,13.2,6.53c3.17,4.15,4.25,9.42,2.89,14.46L248.18,248.18z M198.12,237.91h42.17l5.5-20.57
					c0.51-1.96,0.09-3.97-1.12-5.55c-1.21-1.59-3.08-2.52-5.08-2.52h-41.61c-2.05,0-3.92,0.93-5.13,2.61
					c-1.21,1.63-1.59,3.73-0.98,5.69L198.12,237.91z"/>
			</g>
		</g>
		<g>
			<g>
				<path class="st0" d="M219.86,198.12c-12.6,0-22.81-10.22-22.81-22.81s10.22-22.81,22.81-22.81s22.81,10.22,22.81,22.81
					S232.45,198.12,219.86,198.12z M219.86,162.76c-6.9,0-12.55,5.64-12.55,12.55c0,6.9,5.64,12.55,12.55,12.55
					s12.55-5.64,12.55-12.55C232.41,168.4,226.81,162.76,219.86,162.76z"/>
			</g>
		</g>
	</g>
	<g>
		<g>
			<g>
				<path class="st0" d="M108.97,248.18H51.31l-8.49-27.62c-1.59-5.08-0.65-10.5,2.52-14.79c3.17-4.29,8.07-6.76,13.39-6.76h41.66
					c5.22,0,10.03,2.38,13.2,6.53c3.17,4.15,4.25,9.42,2.89,14.46L108.97,248.18z M58.91,237.91h42.17l5.5-20.57
					c0.51-1.96,0.09-3.97-1.12-5.55c-1.21-1.59-3.08-2.52-5.08-2.52H58.73c-2.05,0-3.92,0.93-5.13,2.61
					c-1.21,1.63-1.59,3.73-0.98,5.69L58.91,237.91z"/>
			</g>
		</g>
		<g>
			<g>
				<path class="st0" d="M80.65,198.12c-12.6,0-22.81-10.22-22.81-22.81s10.22-22.81,22.81-22.81s22.81,10.22,22.81,22.81
					S93.25,198.12,80.65,198.12z M80.65,162.76c-6.9,0-12.55,5.64-12.55,12.55c0,6.9,5.64,12.55,12.55,12.55
					c6.9,0,12.55-5.64,12.55-12.55C93.2,168.4,87.56,162.76,80.65,162.76z"/>
			</g>
		</g>
	</g>
	<g>
		<path class="st1" d="M193.97,208.85l-9.1,34.05h-69.74l-10.36-33.64c-1.21-3.92-0.51-8.02,1.96-11.34
			c2.43-3.31,6.16-5.18,10.26-5.18h64.66c4.01,0,7.7,1.82,10.12,4.99C194.2,200.97,194.99,204.98,193.97,208.85z"/>
	</g>
	<g>
		<path class="st0" d="M199.89,191.54c-4.39-5.74-11.06-9-18.29-9h-64.66c-7.37,0-14.14,3.41-18.52,9.33s-5.64,13.39-3.5,20.48
			l12.55,40.87h85.23l11.15-41.71C205.77,204.51,204.32,197.23,199.89,191.54z M115.13,242.95l-10.36-33.64
			c-1.21-3.92-0.51-8.02,1.96-11.34c2.43-3.31,6.16-5.18,10.26-5.18h64.66c4.01,0,7.7,1.82,10.12,4.99
			c2.43,3.17,3.22,7.18,2.19,11.06l-9.1,34.05h-69.74V242.95z"/>
	</g>
	<g>
		<path class="st0" d="M151,110.28c-17.96,0-32.56,14.6-32.56,32.56s14.6,32.56,32.56,32.56s32.56-14.6,32.56-32.56
			S168.96,110.28,151,110.28z M151,165.18c-12.32,0-22.3-10.03-22.3-22.3c0-12.32,10.03-22.3,22.3-22.3c12.32,0,22.3,9.98,22.3,22.3
			C173.3,155.15,163.32,165.18,151,165.18z"/>
	</g>
</g>
</svg>
