<?xml version="1.0" encoding="utf-8"?>
<!-- Generator: Adobe Illustrator 26.3.1, SVG Export Plug-In . SVG Version: 6.00 Build 0)  -->
<svg version="1.1" id="Capa_1" xmlns="http://www.w3.org/2000/svg" xmlns:xlink="http://www.w3.org/1999/xlink" x="0px" y="0px"
	 viewBox="0 0 300 300" width="300" heigh="300" style="enable-background:new 0 0 300 300;" xml:space="preserve">
<style type="text/css">
	.st0{fill:#75160D;}
</style>
<g>
	<g>
		<g>
			<g>
				<g>
					<g>
						<g>
							<g>
								
									<ellipse transform="matrix(0.2298 -0.9732 0.9732 0.2298 19.9101 234.966)" class="st0" cx="158.41" cy="104.9" rx="40.47" ry="40.47"/>
							</g>
						</g>
					</g>
				</g>
				<g>
					<g>
						<g>
							<g>
								<path class="st0" d="M158.41,159.02L158.41,159.02c-41.49,0-75.04,33.62-75.04,75.04l0,0c0,10.91,8.81,19.73,19.73,19.73
									h110.76c10.91,0,19.73-8.81,19.73-19.73l0,0C233.45,192.64,199.82,159.02,158.41,159.02z"/>
							</g>
						</g>
					</g>
				</g>
			</g>
			<g>
				<g>
					<g>
						<g>
							<g>
								
									<ellipse transform="matrix(0.2298 -0.9732 0.9732 0.2298 -45.4533 161.3849)" class="st0" cx="79.24" cy="109.41" rx="29.22" ry="29.22"/>
							</g>
						</g>
					</g>
				</g>
				<g>
					<g>
						<g>
							<g>
								<path class="st0" d="M79.23,148.51L79.23,148.51c-29.96,0-54.23,24.27-54.23,54.23l0,0c0,7.86,6.37,14.24,14.24,14.24h80.06
									c7.86,0,14.24-6.37,14.24-14.24l0,0C133.53,172.78,109.19,148.51,79.23,148.51z"/>
							</g>
						</g>
					</g>
				</g>
			</g>
		</g>
		<g>
			<g>
				<g>
					<g>
						<rect x="235.82" y="46.22" class="st0" width="21.56" height="56.81"/>
					</g>
				</g>
			</g>
			<g>
				<g>
					<g>
						<rect x="218.19" y="63.84" class="st0" width="56.81" height="21.56"/>
					</g>
				</g>
			</g>
		</g>
	</g>
</g>
</svg>
